titillium_bold-italic.sfdir
StartChar: exclam
Encoding: 33 33 145
Width: 163
Flags: MW
HStem: 0 153<14 185 49 150> 680 20G<172 315 315 315>
VStem: 14 301
LayerCount: 2
Back
Fore
SplineSet
77 258 m 1
 172 700 l 1
 315 700 l 1
 203 258 l 1
 77 258 l 1
14 0 m 1
 49 153 l 1
 185 153 l 1
 150 0 l 1
 14 0 l 1
EndSplineSet
EndChar
StartChar: quotedbl
Encoding: 34 34 228
Width: 306
Flags: MW
HStem: 437 251<167 224 109 292 277 277 277 292 335 392>
VStem: 109 351<437 688>
LayerCount: 2
Back
Fore
SplineSet
224 437 m 1
 109 437 l 1
 167 688 l 1
 292 688 l 1
 224 437 l 1
392 437 m 1
 277 437 l 1
 335 688 l 1
 460 688 l 1
 392 437 l 1
EndSplineSet
EndChar
StartChar: numbersign
Encoding: 35 35 150
Width: 560
Flags: MW
HStem: 0 21G<106 222 106 106 326 442 326 326> 165 112<79 147 51 175 291 367 79 263 511 579> 383 112<133 201 105 229 133 317 345 421 565 633>
VStem: 51 610<165 495>
LayerCount: 2
Back
Fore
SplineSet
579 165 m 1
 483 165 l 1
 442 0 l 1
 326 0 l 1
 367 165 l 1
 263 165 l 1
 222 0 l 1
 106 0 l 1
 147 165 l 1
 51 165 l 1
 79 277 l 1
 175 277 l 1
 201 383 l 1
 105 383 l 1
 133 495 l 1
 229 495 l 1
 270 660 l 1
 386 660 l 1
 345 495 l 1
 449 495 l 1
 490 660 l 1
 606 660 l 1
 565 495 l 1
 661 495 l 1
 633 383 l 1
 537 383 l 1
 511 277 l 1
 607 277 l 1
 579 165 l 1
395 277 m 1
 421 383 l 1
 317 383 l 1
 291 277 l 1
 395 277 l 1
EndSplineSet
EndChar
StartChar: dollar
Encoding: 36 36 144
Width: 560
Flags: MW
HStem: -12 117<299 299 299 364.5> 559 114<380 409 409 415.5 335.5 418>
VStem: 181 136<459 497.5 459 517.5> 404 136<166.5 213.5>
LayerCount: 2
Back
Fore
SplineSet
609 636 m 1
 584 541 l 1
 584 541 545 547 501 552 c 1
 423 380 l 1
 518 336 540 299 540 217 c 0
 540 67 439 -12 290 -12 c 0
 276 -12 261 -11 248 -10 c 1
 199 -119 l 1
 114 -119 l 1
 169 3 l 1
 121 15 88 28 88 28 c 1
 110 125 l 1
 110 125 162 115 216 109 c 1
 298 292 l 1
 216 331 181 371 181 456 c 0
 181 579 266 673 405 673 c 0
 426 673 447 671 467 669 c 1
 513 771 l 1
 599 771 l 1
 547 654 l 1
 584 645 609 636 609 636 c 1
404 201 m 0
 404 226 398 239 368 257 c 1
 299 105 l 1
 365 107 404 132 404 201 c 0
317 472 m 0
 317 446 322 433 353 414 c 1
 418 559 l 1
 409 559 l 2
 351 559 317 523 317 472 c 0
EndSplineSet
EndChar
StartChar: percent
Encoding: 37 37 252
Width: 560
Flags: MW
HStem: 0 80<425 443 425 453.5> 211 80<458 476> 690 21G<611 611>
VStem: 241 60 323 97 481 98
LayerCount: 2
Back
Fore
SplineSet
287 621 m 0
 305 621 305 602 293 556 c 0
 282 510 273 490 255 490 c 0
 237 490 238 510 249 556 c 0
 261 602 269 621 287 621 c 0
108 6 m 1
 532 720 l 1
 611 690 l 1
 187 -24 l 1
 108 6 l 1
151 556 m 0
 127 459 158 410 235 410 c 0
 312 410 367 459 391 556 c 0
 415 653 384 701 307 701 c 0
 230 701 175 653 151 556 c 0
331 146 m 0xec
 355 243 410 291 487 291 c 0
 564 291 595 243 571 146 c 0
 547 49 492 0 415 0 c 0
 338 0 307 49 331 146 c 0xec
429 146 m 0
 417 100 416 80 434 80 c 0
 452 80 461 100 473 146 c 0
 484 192 485 211 467 211 c 0
 449 211 440 192 429 146 c 0
EndSplineSet
EndChar
StartChar: ampersand
Encoding: 38 38 247
Width: 641
Flags: MW
HStem: -12 114<267 314.5> 580 112<406.5 443>
VStem: 63 139<151.5 207 151.5 221.5> 229 134<487.5 527 482.5 574> 472 134<505.5 544.5>
LayerCount: 2
Back
Fore
SplineSet
430 692 m 0
 544 692 606 646 606 541 c 0
 606 448 569 402 430 347 c 1
 506 245 l 1
 522 268 549 333 555 366 c 1
 678 366 l 1
 663 305 611 203 574 159 c 1
 654 66 l 1
 561 -14 l 1
 489 78 l 1
 434 25 360 -12 269 -12 c 0
 102 -12 63 70 63 162 c 0xe8
 63 281 131 351 259 402 c 1
 240 435 229 466 229 509 c 0xf8
 229 639 317 692 430 692 c 0
297 102 m 0
 341 102 399 131 425 158 c 1
 307 325 l 1
 223 286 202 235 202 179 c 0
 202 124 237 102 297 102 c 0
363 505 m 0xf8
 363 460 372 436 383 419 c 1
 459 459 472 482 472 529 c 0
 472 560 458 580 428 580 c 0
 385 580 363 549 363 505 c 0xf8
EndSplineSet
EndChar
StartChar: parenleft
Encoding: 40 40 230
Width: 234
Flags: MW
HStem: -123 871<80 412 80 412>
VStem: 51 141<62 275.5 62 290.5>
LayerCount: 2
Back
Fore
SplineSet
287 748 m 1
 412 748 l 1
 412 748 192 419 192 132 c 0
 192 -8 208 -123 208 -123 c 1
 80 -123 l 1
 80 -123 51 -26 51 132 c 0
 51 449 287 748 287 748 c 1
EndSplineSet
Substitution2: "'case' Case-Sensitive Forms in Latin lookup 4 subtable" parenleft.cap
EndChar
StartChar: parenright
Encoding: 41 41 231
Width: 235
Flags: MW
HStem: -118 871<-32 300 -32 300>
VStem: 188 141<354.5 568>
LayerCount: 2
Back
Fore
SplineSet
93 -118 m 1
 -32 -118 l 1
 -32 -118 188 211 188 498 c 0
 188 638 172 753 172 753 c 1
 300 753 l 1
 300 753 329 656 329 498 c 0
 329 181 93 -118 93 -118 c 1
EndSplineSet
Substitution2: "'case' Case-Sensitive Forms in Latin lookup 4 subtable" parenright.cap
EndChar
StartChar: asterisk
Encoding: 42 42 248
Width: 423
Flags: MW
HStem: 499 74<388 511 388 511>
VStem: 162 349<458 499>
LayerCount: 2
Back
Fore
SplineSet
511 499 m 1
 388 499 l 1
 426 379 l 1
 353 357 l 1
 312 478 l 1
 209 399 l 1
 162 458 l 1
 267 536 l 1
 165 609 l 1
 211 672 l 1
 312 599 l 1
 351 720 l 1
 426 695 l 1
 388 573 l 1
 511 573 l 1
 511 499 l 1
EndSplineSet
EndChar
StartChar: plus
Encoding: 43 43 253
Width: 560
Flags: MW
HStem: 191 120<107 276 107 276 396 567>
VStem: 276 120<21 191 21 191 311 479>
LayerCount: 2
Back
Fore
SplineSet
107 191 m 1
 107 311 l 1
 276 311 l 1
 276 479 l 1
 396 479 l 1
 396 311 l 1
 567 311 l 1
 567 191 l 1
 396 191 l 1
 396 21 l 1
 276 21 l 1
 276 191 l 1
 107 191 l 1
EndSplineSet
EndChar
StartChar: comma
Encoding: 44 44 232
Width: 175
Flags: MW
HStem: -130 283<-53 211 -53 211>
VStem: -53 264
LayerCount: 2
Back
Fore
SplineSet
58 -130 m 1
 -53 -130 l 1
 64 153 l 1
 211 153 l 1
 58 -130 l 1
EndSplineSet
EndChar
StartChar: hyphen
Encoding: 45 45 233
Width: 267
Flags: MW
HStem: 205 120<53 336 83 306>
VStem: 53 283<205 325>
LayerCount: 2
Back
Fore
SplineSet
53 205 m 1
 83 325 l 1
 336 325 l 1
 306 205 l 1
 53 205 l 1
EndSplineSet
EndChar
StartChar: period
Encoding: 46 46 234
Width: 152
Flags: MW
HStem: 0 153<8 179 43 144>
VStem: 8 171<0 153>
LayerCount: 2
Back
Fore
SplineSet
8 0 m 1
 43 153 l 1
 179 153 l 1
 144 0 l 1
 8 0 l 1
EndSplineSet
EndChar
StartChar: slash
Encoding: 47 47 385
Width: 468
Flags: MW
HStem: -24 742<163 468>
VStem: 37 557
LayerCount: 2
Back
Fore
SplineSet
163 -24 m 1
 37 20 l 1
 468 718 l 1
 594 674 l 1
 163 -24 l 1
EndSplineSet
Substitution2: "'frac' Diagonal Fractions in Latin lookup 3 subtable" fraction
EndChar
StartChar: zero
Encoding: 48 48 414
Width: 560
Flags: MW
HStem: -12 118<282.5 364 282.5 398> 554 118<347.5 429>
VStem: 95 141<181 287.5 181 343.5> 476 141<371.5 478>
LayerCount: 2
Back
Fore
SplineSet
401 672 m 0
 555 672 617 594 617 460 c 0
 617 173 485 -12 311 -12 c 0
 157 -12 95 66 95 200 c 0
 95 487 227 672 401 672 c 0
398 554 m 0
 297 554 236 357 236 218 c 0
 236 144 252 106 313 106 c 0
 415 106 476 303 476 440 c 0
 476 516 460 554 398 554 c 0
EndSplineSet
Substitution2: "'frac' Diagonal Fractions in Latin lookup 1 subtable" zerosuperior
EndChar
StartChar: one
Encoding: 49 49 415
Width: 560
Flags: MW
HStem: 0 21G<279 416 279 279>
VStem: 194 374<516 660>
LayerCount: 2
Back
Fore
SplineSet
194 516 m 1
 449 660 l 1
 568 660 l 1
 416 0 l 1
 279 0 l 1
 394 498 l 1
 231 408 l 1
 194 516 l 1
EndSplineSet
Substitution2: "'frac' Diagonal Fractions in Latin lookup 1 subtable" onesuperior
EndChar
StartChar: two
Encoding: 50 50 444
Width: 560
Flags: MW
HStem: 0 118<250 488> 554 118<361.5 401.5>
VStem: 461 141<462 510.5>
LayerCount: 2
Back
Fore
SplineSet
488 0 m 1
 63 0 l 1
 90 112 l 1
 289 285 l 2
 406 386 461 439 461 485 c 0
 461 536 440 554 363 554 c 0
 295 554 205 539 205 539 c 1
 223 639 l 1
 223 639 319 672 404 672 c 0
 540 672 602 625 602 519 c 0
 602 400 537 336 432 256 c 2
 250 118 l 1
 517 118 l 1
 488 0 l 1
EndSplineSet
Substitution2: "'frac' Diagonal Fractions in Latin lookup 1 subtable" twosuperior
EndChar
StartChar: three
Encoding: 51 51 416
Width: 560
Flags: MW
HStem: -12 118<236.5 305.5 236.5 344.5> 273 106 554 118<351 400.5>
VStem: 402 141<180.5 236> 459 141<483 512>
LayerCount: 2
Back
Fore
SplineSet
198 541 m 1xf0
 212 631 l 1
 212 631 301 672 401 672 c 0
 537 672 600 629 600 529 c 0xe8
 600 437 568 392 480 347 c 1
 526 320 543 294 543 223 c 0
 543 83 430 -12 259 -12 c 0
 161 -12 59 24 59 24 c 1
 88 118 l 1
 88 118 202 106 271 106 c 0
 340 106 402 144 402 217 c 0
 402 255 382 271 316 272 c 2xf0
 190 274 l 1
 215 376 l 1
 344 382 l 2
 393 384 459 433 459 492 c 0
 459 532 432 554 369 554 c 0xe8
 291 554 198 541 198 541 c 1xf0
EndSplineSet
Substitution2: "'frac' Diagonal Fractions in Latin lookup 1 subtable" threesuperior
EndChar
StartChar: four
Encoding: 52 52 445
Width: 560
Flags: MW
HStem: -5 21G<322 322 322 458> 112 114<240 349 240 485 511 545>
VStem: 70 502<112 226>
LayerCount: 2
Back
Fore
SplineSet
322 -5 m 1
 349 112 l 1
 70 112 l 1
 93 212 l 1
 369 660 l 1
 519 660 l 1
 240 226 l 1
 375 226 l 1
 416 404 l 1
 552 404 l 1
 511 226 l 1
 572 226 l 1
 545 112 l 1
 485 112 l 1
 458 -5 l 1
 322 -5 l 1
EndSplineSet
Substitution2: "'frac' Diagonal Fractions in Latin lookup 1 subtable" foursuperior
EndChar
StartChar: five
Encoding: 53 53 446
Width: 560
Flags: MW
HStem: -12 118<246.5 323 246.5 372> 300 118<364 369.5> 543 118<330 614 330 330>
VStem: 419 141<195.5 253>
LayerCount: 2
Back
Fore
SplineSet
248 661 m 1
 641 661 l 1
 614 543 l 1
 330 543 l 1
 271 387 l 1
 271 387 342 418 386 418 c 0
 493 418 560 372 560 258 c 0
 560 99 447 -12 297 -12 c 0
 179 -12 62 31 62 31 c 1
 93 135 l 1
 93 135 209 106 284 106 c 0
 362 106 419 163 419 228 c 0
 419 278 398 300 341 300 c 0
 291 300 237 279 237 279 c 1
 137 302 l 1
 248 661 l 1
EndSplineSet
Substitution2: "'frac' Diagonal Fractions in Latin lookup 1 subtable" fivesuperior
EndChar
StartChar: six
Encoding: 54 54 213
Width: 560
Flags: MW
HStem: -12 118<290.5 360.5 290.5 400.5> 307 118<374.5 384.5> 554 118<397 479.5>
VStem: 99 141<193 231 193 321.5> 442 141<195 265>
LayerCount: 2
Back
Fore
SplineSet
640 650 m 1
 597 539 l 1
 597 539 519 554 440 554 c 0
 354 554 303 491 267 390 c 1
 267 390 347 425 402 425 c 0
 531 425 583 360 583 251 c 0
 583 97 489 -12 312 -12 c 0
 184 -12 99 60 99 223 c 0
 99 420 233 672 472 672 c 0
 546 672 640 650 640 650 c 1
361 307 m 0
 297 307 249 283 249 283 c 1
 245 266 240 243 240 219 c 0
 240 167 260 106 321 106 c 0
 400 106 442 152 442 238 c 0
 442 292 408 307 361 307 c 0
EndSplineSet
Substitution2: "'frac' Diagonal Fractions in Latin lookup 1 subtable" sixsuperior
EndChar
StartChar: seven
Encoding: 55 55 417
Width: 560
Flags: MW
HStem: 542 118<197 636 224 472>
VStem: 117 519
LayerCount: 2
Back
Fore
SplineSet
197 542 m 1
 224 660 l 1
 636 660 l 1
 596 487 l 1
 242 -18 l 1
 117 18 l 1
 464 501 l 1
 472 542 l 1
 197 542 l 1
EndSplineSet
Substitution2: "'frac' Diagonal Fractions in Latin lookup 1 subtable" sevensuperior
EndChar
StartChar: eight
Encoding: 56 56 418
Width: 560
Flags: MW
HStem: -14 118<268.5 337.5 268.5 351.5> 275 114<327 387 299 415> 555 118<378.5 439>
VStem: 65 149<152.5 196.5> 153 141<438.5 479 438.5 497.5> 430 145<185 227> 490 148<487 505>
LayerCount: 2
Back
Fore
SplineSet
441 673 m 0xea
 573 673 638 610 638 540 c 0xea
 638 434 592 386 523 340 c 1
 568 306 575 259 575 217 c 0
 575 80 434 -14 269 -14 c 0
 120 -14 65 45 65 154 c 0xf4
 65 239 144 306 195 340 c 1
 150 386 153 411 153 439 c 0
 153 556 258 673 441 673 c 0xea
300 104 m 0xf4
 375 104 430 159 430 211 c 0
 430 243 422 260 387 275 c 1
 299 275 l 1
 254 259 214 225 214 180 c 0
 214 125 237 104 300 104 c 0xf4
411 555 m 0xea
 346 555 294 503 294 455 c 0
 294 422 301 411 327 389 c 1
 415 389 l 1
 453 411 490 453 490 486 c 0
 490 524 467 555 411 555 c 0xea
EndSplineSet
Substitution2: "'frac' Diagonal Fractions in Latin lookup 1 subtable" eightsuperior
EndChar
StartChar: nine
Encoding: 57 57 214
Width: 560
Flags: MW
HStem: -12 21G<190 326.5> -12 126<218.5 301 218.5 326.5> 239 122<311 320> 547 125<355 429>
VStem: 125 134<401 464.5 401 470.5> 478 127
LayerCount: 2
Back
Fore
SplineSet
79 10 m 1xbc
 121 129 l 1
 121 129 179 114 258 114 c 0
 344 114 421 173 444 265 c 0
 444 266 344 239 296 239 c 0
 183 239 125 290 125 416 c 0
 125 525 213 672 418 672 c 0
 548 672 605 573 605 420 c 0
 605 138 426 -12 227 -12 c 0x7c
 153 -12 79 10 79 10 c 1xbc
339 361 m 0
 393 361 472 376 472 376 c 1
 491 472 470 547 388 547 c 0
 322 547 259 501 259 428 c 0
 259 374 283 361 339 361 c 0
EndSplineSet
Substitution2: "'frac' Diagonal Fractions in Latin lookup 1 subtable" ninesuperior
EndChar
StartChar: colon
Encoding: 58 58 235
Width: 158
Flags: MW
HStem: 0 153<10 181 45 146> 296 153<80 251 115 216>
VStem: 10 241
LayerCount: 2
Back
Fore
SplineSet
80 296 m 1
 115 449 l 1
 251 449 l 1
 216 296 l 1
 80 296 l 1
10 0 m 1
 45 153 l 1
 181 153 l 1
 146 0 l 1
 10 0 l 1
EndSplineSet
EndChar
StartChar: semicolon
Encoding: 59 59 236
Width: 175
Flags: MW
HStem: 296 153<95 266 130 231>
VStem: -54 320
LayerCount: 2
Back
Fore
SplineSet
-54 -130 m 1
 57 -130 l 1
 210 153 l 1
 63 153 l 1
 -54 -130 l 1
95 296 m 1
 130 449 l 1
 266 449 l 1
 231 296 l 1
 95 296 l 1
EndSplineSet
EndChar
StartChar: less
Encoding: 60 60 216
Width: 560
Flags: MW
HStem: 10 479<520 520>
VStem: 114 406<10 306 10 306>
LayerCount: 2
Back
Fore
SplineSet
520 353 m 1
 259 254 l 1
 520 146 l 1
 520 10 l 1
 114 196 l 1
 114 306 l 1
 520 489 l 1
 520 353 l 1
EndSplineSet
EndChar
StartChar: equal
Encoding: 61 61 237
Width: 560
Flags: MW
HStem: 87 121<116 560 116 560> 295 121<116 560 116 560>
VStem: 116 444<87 208 87 208 295 416 87 416>
LayerCount: 2
Back
Fore
SplineSet
116 295 m 1
 116 416 l 1
 560 416 l 1
 560 295 l 1
 116 295 l 1
116 87 m 1
 116 208 l 1
 560 208 l 1
 560 87 l 1
 116 87 l 1
EndSplineSet
EndChar
StartChar: greater
Encoding: 62 62 217
Width: 560
Flags: MW
HStem: 10 479<155 155>
VStem: 155 406<10 306 146 306 196 489 196 489>
LayerCount: 2
Back
Fore
SplineSet
416 254 m 1
 155 353 l 1
 155 489 l 1
 561 306 l 1
 561 196 l 1
 155 10 l 1
 155 146 l 1
 416 254 l 1
EndSplineSet
EndChar
StartChar: question
Encoding: 63 63 238
Width: 431
Flags: MW
HStem: 0 168<120 294 158 256> 572 120<303 329.5> 665 21G<178 178>
VStem: 380 142<503.5 544.5>
LayerCount: 2
Back
Fore
SplineSet
522 536 m 0xb0
 522 441 481 397 371 321 c 0
 335 296 314 270 309 248 c 2
 300 208 l 1
 174 208 l 1
 174 208 174 257 182 298 c 0
 188 332 220 368 276 408 c 0
 347 458 380 485 380 522 c 0
 380 567 352 572 307 572 c 0
 237 572 164 560 164 560 c 1xd0
 178 665 l 1xb0
 178 665 268 692 338 692 c 0xd0
 451 692 522 648 522 536 c 0xb0
120 0 m 1
 158 168 l 1
 294 168 l 1
 256 0 l 1
 120 0 l 1
EndSplineSet
EndChar
StartChar: at
Encoding: 64 64 151
Width: 959
Flags: MW
HStem: -207 112<363 488.5> -12 114 -10 127<763.5 796.5 763.5 811.5> 398 114<529.5 574> 615 112<499 762>
VStem: 77 125 304 135 897 122
LayerCount: 2
Back
Fore
SplineSet
635 727 m 0xbf
 985 727 1061 528 1000 295 c 0
 943 78 876 -10 747 -10 c 0xbf
 691 -10 654 4 634 34 c 1
 594 14 504 -12 445 -12 c 0xdf
 308 -12 290 130 312 242 c 0
 344 402 421 512 564 512 c 0
 608 512 695 498 808 479 c 1
 800 444 741 182 737 150 c 0
 734 126 750 117 777 117 c 0
 816 117 843 167 879 307 c 0
 921 474 909 615 615 615 c 0
 383 615 266 486 215 271 c 0
 171 84 229 -95 497 -95 c 0
 535 -95 634 -86 634 -86 c 1
 608 -197 l 1
 608 -197 511 -207 466 -207 c 0
 147 -207 33 28 91 271 c 0
 170 601 345 727 635 727 c 0xbf
480 102 m 0xdf
 520 101 571 121 602 140 c 1
 605 174 635 304 654 384 c 1
 631 389 585 398 563 398 c 0
 496 398 465 322 447 242 c 0
 429 162 441 104 480 102 c 0xdf
EndSplineSet
EndChar
StartChar: B
Encoding: 66 66 28
Width: 573
Flags: MW
HStem: 0 118<230 321> 285 115<295 382 269 398> 562 118<333 436 333 333>
VStem: 447 142<196.5 248.5> 495 141<487 523.5>
LayerCount: 2
Back
Fore
SplineSet
222 680 m 1xf0
 458 680 l 2
 569 680 636 634 636 533 c 0xe8
 636 441 593 392 524 350 c 1
 579 317 589 282 589 232 c 0
 589 107 502 0 321 0 c 2
 65 0 l 1
 222 680 l 1xf0
382 285 m 2xf0
 269 285 l 1
 230 118 l 1
 348 118 l 2
 408 118 447 164 447 229 c 0
 447 268 427 285 382 285 c 2xf0
436 562 m 2xe8
 333 562 l 1
 295 400 l 1
 398 400 l 2
 452 400 495 442 495 505 c 0
 495 542 477 562 436 562 c 2xe8
EndSplineSet
Position2: "'cpsp' Capital Spacing in Latin lookup 0 subtable" dx=5 dy=0 dh=10 dv=0
EndChar
StartChar: C
Encoding: 67 67 29
Width: 494
Flags: MW
HStem: -12 120<293.5 342> 572 120<379.5 485> 662 21G<620 620>
VStem: 99 142<167.5 290 167.5 290.5>
LayerCount: 2
Back
Fore
SplineSet
484 121 m 1xb0
 473 14 l 1
 473 14 380 -12 304 -12 c 0
 165 -12 99 59 99 185 c 0
 99 396 190 692 449 692 c 0xd0
 531 692 620 662 620 662 c 1xb0
 588 560 l 1
 588 560 526 572 444 572 c 0xd0
 315 572 241 385 241 195 c 0
 241 140 265 108 322 108 c 0
 400 108 484 121 484 121 c 1xb0
EndSplineSet
Position2: "'cpsp' Capital Spacing in Latin lookup 0 subtable" dx=5 dy=0 dh=10 dv=0
EndChar
StartChar: D
Encoding: 68 68 35
Width: 605
Flags: MW
HStem: 0 120<231 309> 560 120<332 408 332 332>
VStem: 518 142<411 507>
LayerCount: 2
Back
Fore
SplineSet
309 0 m 2
 65 0 l 1
 222 680 l 1
 436 680 l 2
 554 680 660 636 660 473 c 0
 660 247 553 0 309 0 c 2
518 473 m 0
 518 541 476 560 408 560 c 2
 332 560 l 1
 231 120 l 1
 321 120 l 2
 465 120 518 349 518 473 c 0
EndSplineSet
Position2: "'cpsp' Capital Spacing in Latin lookup 0 subtable" dx=5 dy=0 dh=10 dv=0
EndChar
StartChar: F
Encoding: 70 70 48
Width: 477
Flags: MW
HStem: 0 21G<65 65 65 203> 235 120<285 466 257 495> 560 120<332 586 332 332>
VStem: 65 549
LayerCount: 2
Back
Fore
SplineSet
65 0 m 1
 222 680 l 1
 614 680 l 1
 586 560 l 1
 332 560 l 1
 285 355 l 1
 495 355 l 1
 466 235 l 1
 257 235 l 1
 203 0 l 1
 65 0 l 1
EndSplineSet
Position2: "'cpsp' Capital Spacing in Latin lookup 0 subtable" dx=5 dy=0 dh=10 dv=0
EndChar
StartChar: H
Encoding: 72 72 54
Width: 620
Flags: MW
HStem: 0 21G<65 203 65 65 417 555 417 417> 288 120<297 483 269 511>
VStem: 65 647
LayerCount: 2
Back
Fore
SplineSet
417 0 m 1
 483 288 l 1
 269 288 l 1
 203 0 l 1
 65 0 l 1
 222 680 l 1
 360 680 l 1
 297 408 l 1
 511 408 l 1
 574 680 l 1
 712 680 l 1
 555 0 l 1
 417 0 l 1
EndSplineSet
Position2: "'cpsp' Capital Spacing in Latin lookup 0 subtable" dx=5 dy=0 dh=10 dv=0
EndChar
StartChar: J
Encoding: 74 74 67
Width: 283
Flags: MW
HStem: -69 749<6 378>
VStem: 6 372
LayerCount: 2
Back
Fore
SplineSet
378 680 m 1
 252 135 l 2
 210 -47 181 -69 6 -69 c 1
 29 51 l 1
 82 53 96 57 114 135 c 2
 240 680 l 1
 378 680 l 1
EndSplineSet
Position2: "'cpsp' Capital Spacing in Latin lookup 0 subtable" dx=5 dy=0 dh=10 dv=0
EndChar
StartChar: K
Encoding: 75 75 69
Width: 540
Flags: MW
HStem: 0 21G<65 203 65 65 384 529 384 384> 269.5 120.5
VStem: 65 618
LayerCount: 2
Back
Fore
SplineSet
384 0 m 1
 340 273 l 1
 264 266 l 1
 203 0 l 1
 65 0 l 1
 222 680 l 1
 360 680 l 1
 292 386 l 1
 356 394 l 1
 532 680 l 1
 683 680 l 1
 466 339 l 1
 529 0 l 1
 384 0 l 1
EndSplineSet
Position2: "'cpsp' Capital Spacing in Latin lookup 0 subtable" dx=5 dy=0 dh=10 dv=0
EndChar
StartChar: M
Encoding: 77 77 76
Width: 789
Flags: MW
HStem: 0 21G<65 65 65 203 586 586 586 724> 560 120<331 336 331 331 710 716 710 710>
VStem: 336.5 100
LayerCount: 2
Back
Fore
SplineSet
65 0 m 1
 222 680 l 1
 436 680 l 1
 437 185 l 1
 663 680 l 1
 881 680 l 1
 724 0 l 1
 586 0 l 1
 716 560 l 1
 710 560 l 1
 467 30 l 1
 337 30 l 1
 336 560 l 1
 331 560 l 1
 203 0 l 1
 65 0 l 1
EndSplineSet
Position2: "'cpsp' Capital Spacing in Latin lookup 0 subtable" dx=5 dy=0 dh=10 dv=0
EndChar
StartChar: N
Encoding: 78 78 77
Width: 651
Flags: MW
HStem: 0 147<378 489 477 489 477 586> 543 137<322 334 322 322>
VStem: 65 678
LayerCount: 2
Back
Fore
SplineSet
65 0 m 1
 222 680 l 1
 441 680 l 1
 477 147 l 1
 489 147 l 1
 610 680 l 1
 743 680 l 1
 586 0 l 1
 378 0 l 1
 334 543 l 1
 322 543 l 1
 195 0 l 1
 65 0 l 1
EndSplineSet
Position2: "'cpsp' Capital Spacing in Latin lookup 0 subtable" dx=5 dy=0 dh=10 dv=0
EndChar
StartChar: P
Encoding: 80 80 94
Width: 547
Flags: MW
HStem: 0 21G<65 203 65 65> 196 120<276 333 248 351> 560 120<332 408 332 332>
VStem: 486 142<431.5 511>
LayerCount: 2
Back
Fore
SplineSet
333 196 m 2
 248 196 l 1
 203 0 l 1
 65 0 l 1
 222 680 l 1
 418 680 l 2
 566 680 628 622 628 488 c 0
 628 293 512 196 333 196 c 2
276 316 m 1
 351 316 l 2
 435 316 486 377 486 486 c 0
 486 536 465 560 408 560 c 2
 332 560 l 1
 276 316 l 1
EndSplineSet
Position2: "'cpsp' Capital Spacing in Latin lookup 0 subtable" dx=5 dy=0 dh=10 dv=0
EndChar
StartChar: R
Encoding: 82 82 96
Width: 559
Flags: MW
HStem: 0 21G<65 203 65 65 393 531 393 393> 216 118<280 348 253 369> 562 118<333 410 333 333>
VStem: 486 142<442.5 508.5>
LayerCount: 2
Back
Fore
SplineSet
393 0 m 1
 348 216 l 1
 253 216 l 1
 203 0 l 1
 65 0 l 1
 222 680 l 1
 418 680 l 2
 559 680 628 625 628 486 c 0
 628 356 559 268 476 235 c 1
 531 0 l 1
 393 0 l 1
486 480 m 0
 486 537 467 562 410 562 c 2
 333 562 l 1
 280 334 l 1
 369 334 l 2
 444 334 486 405 486 480 c 0
EndSplineSet
Position2: "'cpsp' Capital Spacing in Latin lookup 0 subtable" dx=5 dy=0 dh=10 dv=0
EndChar
StartChar: V
Encoding: 86 86 121
Width: 555
Flags: MW
HStem: 0 120<284 317 284 391>
VStem: 163 133
LayerCount: 2
Back
Fore
SplineSet
561 680 m 1
 699 680 l 1
 391 0 l 1
 156 0 l 1
 170 680 l 1
 308 680 l 1
 284 120 l 1
 317 120 l 1
 561 680 l 1
EndSplineSet
Position2: "'cpsp' Capital Spacing in Latin lookup 0 subtable" dx=5 dy=0 dh=10 dv=0
EndChar
StartChar: X
Encoding: 88 88 127
Width: 520
Flags: MW
HStem: 0 21G<1 146 1 1 370 515 370 370>
VStem: 1 670
LayerCount: 2
Back
Fore
SplineSet
313 680 m 1
 362 441 l 1
 526 680 l 1
 671 680 l 1
 421 342 l 1
 515 0 l 1
 370 0 l 1
 315 243 l 1
 146 0 l 1
 1 0 l 1
 257 343 l 1
 167 680 l 1
 313 680 l 1
EndSplineSet
Position2: "'cpsp' Capital Spacing in Latin lookup 0 subtable" dx=5 dy=0 dh=10 dv=0
EndChar
StartChar: bracketleft
Encoding: 91 91 218
Width: 246
Flags: MW
HStem: -122 114<151 211> 633 114<300 388 300 300>
VStem: -15 431
LayerCount: 2
Back
Fore
SplineSet
187 747 m 1
 416 747 l 1
 388 633 l 1
 300 633 l 1
 151 -8 l 1
 239 -8 l 1
 211 -122 l 1
 -15 -122 l 1
 187 747 l 1
EndSplineSet
Substitution2: "'case' Case-Sensitive Forms in Latin lookup 4 subtable" bracketleft.cap
EndChar
StartChar: backslash
Encoding: 92 92 219
Width: 484
Flags: MW
HStem: 0 21G<319 458 319 319> 682 20G<186 326 326 326>
VStem: 186 272
LayerCount: 2
Back
Fore
SplineSet
458 0 m 1
 319 0 l 1
 186 702 l 1
 326 702 l 1
 458 0 l 1
EndSplineSet
EndChar
StartChar: bracketright
Encoding: 93 93 220
Width: 245
Flags: MW
HStem: -122 114<2 90 2 203 -26 90> 633 114<179 239 151 405>
VStem: -26 431
LayerCount: 2
Back
Fore
SplineSet
203 -122 m 1
 -26 -122 l 1
 2 -8 l 1
 90 -8 l 1
 239 633 l 1
 151 633 l 1
 179 747 l 1
 405 747 l 1
 203 -122 l 1
EndSplineSet
Substitution2: "'case' Case-Sensitive Forms in Latin lookup 4 subtable" bracketright.cap
EndChar
StartChar: asciicircum
Encoding: 94 94 254
Width: 560
Flags: MW
HStem: 313 347<55 363 55 363 249 557 249 417>
VStem: 55 502<313 313>
LayerCount: 2
Back
Fore
SplineSet
417 313 m 1
 308 530 l 1
 195 313 l 1
 55 313 l 1
 249 660 l 1
 363 660 l 1
 557 313 l 1
 417 313 l 1
EndSplineSet
EndChar
StartChar: underscore
Encoding: 95 95 239
Width: 478
Flags: MW
HStem: -205 125<-4 416 -32 444>
VStem: -32 476<-205 -80>
LayerCount: 2
Back
Fore
SplineSet
-4 -80 m 1
 444 -80 l 1
 416 -205 l 1
 -32 -205 l 1
 -4 -80 l 1
EndSplineSet
EndChar
StartChar: grave
Encoding: 96 96 11
Width: 518
Flags: MW
HStem: 662 21G<244 244> 682 21G<529 529>
VStem: 244 285<662 682>
LayerCount: 2
Back
Fore
SplineSet
308 772 m 1x60
 529 682 l 1
 473 583 l 1x60
 244 662 l 1xa0
 308 772 l 1x60
EndSplineSet
EndChar
StartChar: a
Encoding: 97 97 147
Width: 528
Flags: MW
HStem: -12 114<246.5 259.5> -2 21G<349 349> 398 114<297.5 351>
VStem: 80 136<148.5 215.5 148.5 238>
LayerCount: 2
Back
Fore
SplineSet
221 -12 m 0xb0
 119 -12 80 66 80 170 c 0
 80 306 152 512 334 512 c 0
 407 512 584 479 584 479 c 1
 509 156 l 2
 495 94 482 3 482 3 c 1
 349 -2 l 1x70
 349 -2 358 59 362 76 c 1
 362 76 298 -12 221 -12 c 0xb0
338 398 m 0
 257 398 216 261 216 170 c 0
 216 127 226 102 267 102 c 0
 308 102 384 191 384 191 c 1
 430 384 l 1
 430 384 364 398 338 398 c 0
EndSplineSet
EndChar
StartChar: b
Encoding: 98 98 386
Width: 527
Flags: MW
HStem: -11 114<278.5 346 278.5 384> 398 114<382 394.5> 680 20G<214 348 348 348>
VStem: 425 137<297 349.5>
LayerCount: 2
Back
Fore
SplineSet
412 512 m 0
 529 512 562 430 562 349 c 0
 562 145 466 -11 302 -11 c 0
 194 -11 58 22 58 22 c 1
 214 700 l 1
 348 700 l 1
 293 461 l 1
 293 461 352 512 412 512 c 0
300 103 m 0
 392 103 425 259 425 335 c 0
 425 364 417 398 372 398 c 0
 328 398 267 348 267 348 c 1
 213 113 l 1
 213 113 257 103 300 103 c 0
EndSplineSet
EndChar
StartChar: d
Encoding: 100 100 405
Width: 528
Flags: MW
HStem: -12 114<249 260> 0 102<249 473 249 343> 397 114<294.5 351> 491 20G<249 353> 680 20G<501 635 635 635>
VStem: 80 136<148 211.5 148 246>
LayerCount: 2
Back
Fore
SplineSet
635 700 m 1xac
 473 0 l 1
 343 0 l 1x6c
 352 52 l 1
 352 52 296 -12 224 -12 c 0
 128 -12 80 53 80 165 c 0
 80 327 166 511 332 511 c 0xac
 374 511 452 490 452 490 c 1x9c
 501 700 l 1
 635 700 l 1xac
380 174 m 1xac
 428 383 l 1
 428 383 370 397 332 397 c 0
 257 397 216 257 216 166 c 0
 216 130 231 102 267 102 c 0
 304 102 380 174 380 174 c 1xac
EndSplineSet
EndChar
StartChar: f
Encoding: 102 102 389
Width: 328
Flags: MW
HStem: -211 21G<26 147 26 26> 386 114<148 300 325 402> 598 114<367 399> 689 21G<473 473>
VStem: 26 447
LayerCount: 2
Back
Fore
SplineSet
300 386 m 1xe8
 210 0 l 1
 147 -211 l 1
 26 -211 l 1
 166 384 l 1
 120 384 l 1
 148 500 l 1
 191 500 l 1
 196 520 l 2
 227 655 267 712 378 712 c 0xe8
 424 712 473 689 473 689 c 1xd8
 449 591 l 1
 449 591 414 598 384 598 c 0
 350 598 340 560 330 519 c 2
 325 500 l 1
 430 500 l 1
 402 386 l 1
 300 386 l 1xe8
EndSplineSet
EndChar
StartChar: g
Encoding: 103 103 139
Width: 484
Flags: MW
HStem: -230 112<189 250 189 301.5> 157 109<276.5 319.5 272 350> 392 108<494 577 494 577> 403 109<281 329> 492 20G<247 334.5>
VStem: 9 122<-76.5 -58> 103 123<304.5 344.5 304.5 372> 111 120<83 134> 341 126<-77.5 -34.5> 375 123<324.5 351.5 290.5 364.5>
LayerCount: 2
Back
Fore
SplineSet
226 -230 m 0xe480
 97 -230 9 -193 9 -93 c 0xe480
 9 -23 75 15 131 42 c 1
 115 58 111 71 111 95 c 0xe180
 111 140 171 191 171 191 c 1
 130 215 103 249 103 316 c 0
 103 428 184 512 310 512 c 0xd240
 359 512 431 494 431 494 c 1xca40
 577 500 l 1
 552 392 l 1
 494 392 l 1
 496 381 498 362 498 341 c 0
 498 240 411 157 289 157 c 0
 264 157 246 162 246 162 c 1
 246 162 231 142 231 126 c 0xe140
 231 109 257 104 325 94 c 0
 392 84 467 58 467 -32 c 0
 467 -149 377 -230 226 -230 c 0xe480
273 -9 m 0
 238 -3 205 2 188 6 c 1
 166 -6 131 -35 131 -62 c 0
 131 -91 155 -118 223 -118 c 0
 277 -118 341 -107 341 -48 c 0
 341 -21 314 -16 273 -9 c 0
296 266 m 0xd240
 343 266 375 302 375 347 c 0
 375 382 353 403 305 403 c 0
 257 403 226 367 226 322 c 0
 226 287 248 266 296 266 c 0xd240
EndSplineSet
EndChar
StartChar: h
Encoding: 104 104 140
Width: 513
Flags: MW
HStem: 0 21G<55 189 55 55 330 330 330 464> 396 116<346.5 464.5> 680 20G<216 350 350 350>
VStem: 402 139<353.5 356.5>
LayerCount: 2
Back
Fore
SplineSet
189 0 m 1
 55 0 l 1
 216 700 l 1
 350 700 l 1
 294 453 l 1
 294 453 353 512 419 512 c 0
 510 512 541 449 541 371 c 0
 541 336 527 275 520 245 c 2
 464 0 l 1
 330 0 l 1
 384 235 l 2
 390 260 402 315 402 338 c 0
 402 375 397 396 362 396 c 0
 331 396 266 336 266 336 c 1
 189 0 l 1
EndSplineSet
EndChar
StartChar: i
Encoding: 105 105 390
Width: 243
Flags: MW
HStem: 0 21G<55 55 55 189> 480 20G<170 304 304 304> 552 137<181 348 213 317>
VStem: 55 293
LayerCount: 2
Back
Fore
SplineSet
55 0 m 1
 170 500 l 1
 304 500 l 1
 189 0 l 1
 55 0 l 1
181 552 m 1
 213 689 l 1
 348 689 l 1
 317 552 l 1
 181 552 l 1
EndSplineSet
EndChar
StartChar: j
Encoding: 106 106 391
Width: 243
Flags: MW
HStem: -230 21G<-28 -28> 480 20G<170 304 304 304> 543 137<179 346 211 315>
VStem: -70 416
LayerCount: 2
Back
Fore
SplineSet
55 0 m 2
 170 500 l 1
 304 500 l 1
 189 0 l 2
 157 -138 147 -153 -28 -230 c 1
 -70 -123 l 1
 34 -69 41 -61 55 0 c 2
179 543 m 1
 211 680 l 1
 346 680 l 1
 315 543 l 1
 179 543 l 1
EndSplineSet
EndChar
StartChar: k
Encoding: 107 107 392
Width: 467
Flags: MW
HStem: 0 21G<55 189 55 55 323 323 323 460> 479 20G<421 568 568 568> 680 20G<216 350 350 350>
VStem: 55 513<0 499>
LayerCount: 2
Back
Fore
SplineSet
189 0 m 1
 55 0 l 1
 216 700 l 1
 350 700 l 1
 260 311 l 1
 294 318 l 1
 421 499 l 1
 568 499 l 1
 394 259 l 1
 460 0 l 1
 323 0 l 1
 275 207 l 1
 235 201 l 1
 189 0 l 1
EndSplineSet
EndChar
StartChar: l
Encoding: 108 108 393
Width: 244
Flags: MW
HStem: 0 21G<55 55 55 189> 680 20G<216 350 350 350>
VStem: 55 295
LayerCount: 2
Back
Fore
SplineSet
55 0 m 1
 216 700 l 1
 350 700 l 1
 189 0 l 1
 55 0 l 1
EndSplineSet
EndChar
StartChar: m
Encoding: 109 109 394
Width: 776
Flags: MW
HStem: 0 21G<55 189 55 55 329 463 329 329 594 594 594 728> 396 116<344 465.5 644.5 646> 452 48<293 293>
VStem: 55 748<0 410> 668 135<353 354>
LayerCount: 2
Back
Fore
SplineSet
463 0 m 1xd0
 329 0 l 1
 383 235 l 2
 389 260 401 315 401 338 c 0
 401 375 394 396 360 396 c 0
 328 396 266 336 266 336 c 1xd0
 189 0 l 1
 55 0 l 1
 170 500 l 1
 298 500 l 1
 293 452 l 1xb0
 293 452 350 512 423 512 c 0
 508 512 527 441 527 441 c 1
 527 441 606 512 683 512 c 0
 774 512 803 449 803 371 c 0
 803 335 791 275 784 245 c 2
 728 0 l 1
 594 0 l 1
 650 235 l 2
 656 260 668 313 668 334 c 0
 668 374 661 396 631 396 c 0xc8
 594 396 534 338 534 338 c 1
 534 338 527 278 519 245 c 2
 463 0 l 1xd0
EndSplineSet
EndChar
StartChar: n
Encoding: 110 110 149
Width: 513
Flags: MW
HStem: 0 21G<55 189 55 55 330 330 330 464> 396 104<170 379.5> 396 116<345 464.5> 451 49<292 292>
VStem: 402 139<354.5 356.5>
LayerCount: 2
Back
Fore
SplineSet
189 0 m 1x98
 55 0 l 1
 170 500 l 1
 298 500 l 1
 292 451 l 1x98
 292 451 353 512 419 512 c 0xa8
 510 512 541 449 541 371 c 0
 541 338 527 275 520 245 c 2
 464 0 l 1
 330 0 l 1
 384 235 l 2
 390 260 402 315 402 338 c 0
 402 375 398 396 361 396 c 0
 329 396 266 336 266 336 c 1xc8
 189 0 l 1x98
EndSplineSet
EndChar
StartChar: p
Encoding: 112 112 395
Width: 527
Flags: MW
HStem: -210 21G<7 7 7 139> -11 114<292 348.5 292 394> 398 114<385 394> 448 52<291 291>
VStem: 427 136<288.5 352>
LayerCount: 2
Back
Fore
SplineSet
7 -210 m 1xd8
 170 500 l 1
 301 500 l 1
 291 448 l 1xd8
 291 448 352 512 418 512 c 0xe8
 519 512 563 439 563 342 c 0
 563 173 477 -11 311 -11 c 0
 264 -11 190 10 190 10 c 1
 139 -210 l 1
 7 -210 l 1xd8
376 398 m 0xe8
 339 398 263 326 263 326 c 1
 215 117 l 1
 215 117 273 103 311 103 c 0
 386 103 427 243 427 334 c 0
 427 370 412 398 376 398 c 0xe8
EndSplineSet
EndChar
StartChar: q
Encoding: 113 113 396
Width: 526
Flags: MW
HStem: -210 21G<291 425 291 291> -12 114<249 260> 397 114<296 350>
VStem: 80 136<148 215.5 148 248>
LayerCount: 2
Back
Fore
SplineSet
224 -12 m 0
 129 -12 80 54 80 162 c 0
 80 334 170 511 332 511 c 0
 417 511 583 478 583 478 c 1
 425 -210 l 1
 291 -210 l 1
 352 53 l 1
 352 53 296 -12 224 -12 c 0
331 397 m 0
 261 397 216 265 216 166 c 0
 216 130 231 102 267 102 c 0
 304 102 380 174 380 174 c 1
 428 383 l 1
 428 383 369 397 331 397 c 0
EndSplineSet
EndChar
StartChar: t
Encoding: 116 116 398
Width: 329
Flags: MW
HStem: -12 114<174.5 280> 386 114<134 158 104 185 319 396 134 292>
VStem: 99 139<66.5 137> 99 325
LayerCount: 2
Back
Fore
SplineSet
396 386 m 1xd0
 292 386 l 1
 246 186 l 2
 242 169 238 144 238 130 c 0
 238 111 246 102 267 102 c 0
 293 102 335 107 335 107 c 1
 324 11 l 1
 324 11 271 -12 212 -12 c 0
 137 -12 99 37 99 96 c 0
 99 127 106 165 114 198 c 2
 158 386 l 1
 104 386 l 1
 134 500 l 1
 185 500 l 1xe0
 214 628 l 1
 348 628 l 1
 319 500 l 1
 424 500 l 1
 396 386 l 1xd0
EndSplineSet
EndChar
StartChar: v
Encoding: 118 118 400
Width: 463
Flags: MW
HStem: 0 111<243 261 243 332> 480 20G<126 257 257 257 432 567 567 567>
VStem: 124 126
LayerCount: 2
Back
Fore
SplineSet
126 500 m 1
 257 500 l 1
 243 111 l 1
 261 111 l 1
 432 500 l 1
 567 500 l 1
 332 0 l 1
 122 0 l 1
 126 500 l 1
EndSplineSet
EndChar
StartChar: x
Encoding: 120 120 402
Width: 430
Flags: MW
HStem: 0 21G<6 145 6 6 286 422 286 286> 480 20G<124 260 260 260 403 539 539 539>
VStem: 6 533<0 500>
LayerCount: 2
Back
Fore
SplineSet
124 500 m 1
 260 500 l 1
 299 347 l 1
 403 500 l 1
 539 500 l 1
 342 240 l 1
 422 0 l 1
 286 0 l 1
 247 147 l 1
 145 0 l 1
 6 0 l 1
 202 250 l 1
 124 500 l 1
EndSplineSet
EndChar
StartChar: y
Encoding: 121 121 403
Width: 464
Flags: MW
HStem: -210 21G<102 235 102 102> 0 21G<122 205 122 122> 0 111<122 258> 480 20G<126 257 257 257 432 567 567 567>
VStem: 124 126
LayerCount: 2
Back
Fore
SplineSet
126 500 m 1xd8
 257 500 l 1
 243 111 l 1
 258 111 l 1xb8
 432 500 l 1
 567 500 l 1
 235 -210 l 1
 102 -210 l 1
 205 0 l 1
 122 0 l 1
 126 500 l 1xd8
EndSplineSet
EndChar
StartChar: z
Encoding: 122 122 404
Width: 414
Flags: MW
HStem: 0 114<216 379> 386 114<122 496 151 310>
VStem: 34 462
LayerCount: 2
Back
Fore
SplineSet
122 386 m 1
 151 500 l 1
 496 500 l 1
 468 389 l 1
 216 114 l 1
 408 114 l 1
 379 0 l 1
 34 0 l 1
 59 112 l 1
 310 386 l 1
 122 386 l 1
EndSplineSet
EndChar
StartChar: braceleft
Encoding: 123 123 240
Width: 288
Flags: MW
HStem: -133 115<199 278> -133 892<199 458>
VStem: 88 132<-48 48> 130 135<200 205>
LayerCount: 2
Back
Fore
SplineSet
265 219 m 0x50
 265 181 220 66 220 30 c 0
 220 0 240 -18 278 -18 c 1
 247 -133 l 1
 151 -133 88 -88 88 -8 c 0xa0
 88 33 130 150 130 190 c 0
 130 220 114 248 63 275 c 1
 87 370 l 1
 175 393 185 415 196 457 c 0
 203 481 225 603 225 603 c 1
 259 717 325 754 458 759 c 1
 436 644 l 1
 378 639 357 611 347 572 c 2
 323 446 l 1
 304 368 272 337 204 313 c 1
 245 290 265 267 265 219 c 0x50
EndSplineSet
Substitution2: "'case' Case-Sensitive Forms in Latin lookup 4 subtable" braceleft.cap
EndChar
StartChar: bar
Encoding: 124 124 221
Width: 335
Flags: MW
HStem: -210 21G<157 157 157 291> 680 20G<157 291 291 291>
VStem: 157 134<-210 700 -210 700>
LayerCount: 2
Back
Fore
SplineSet
157 -210 m 1
 157 700 l 1
 291 700 l 1
 291 -210 l 1
 157 -210 l 1
EndSplineSet
EndChar
StartChar: braceright
Encoding: 125 125 241
Width: 287
Flags: MW
HStem: -136 892<-27 232> 641 115<153 232>
VStem: 166 135<418 423> 211 132<575 671>
LayerCount: 2
Back
Fore
SplineSet
166 404 m 0xa0
 166 442 211 557 211 593 c 0
 211 623 191 641 153 641 c 1
 184 756 l 1
 280 756 343 711 343 631 c 0x50
 343 590 301 473 301 433 c 0
 301 403 317 375 368 348 c 1
 344 253 l 1
 256 230 246 208 235 166 c 0
 228 142 206 20 206 20 c 1
 172 -94 106 -131 -27 -136 c 1
 -5 -21 l 1
 53 -16 74 12 84 51 c 2
 108 177 l 1
 127 255 159 286 227 310 c 1
 186 333 166 356 166 404 c 0xa0
EndSplineSet
Substitution2: "'case' Case-Sensitive Forms in Latin lookup 4 subtable" braceright.cap
EndChar
StartChar: asciitilde
Encoding: 126 126 211
Width: 560
Flags: MW
HStem: 170 120<422 465.5 422 473> 214 120<215 258>
VStem: 120 436<221 282>
LayerCount: 2
Back
Fore
SplineSet
548 328 m 1xa0
 556 221 l 1
 556 221 503 170 443 170 c 0xa0
 389 170 277 214 239 214 c 0
 191 214 130 175 130 175 c 1
 120 282 l 1
 120 282 183 334 243 334 c 0x60
 297 334 398 290 446 290 c 0
 485 290 548 328 548 328 c 1xa0
EndSplineSet
EndChar
StartChar: exclamdown
Encoding: 161 161 281
Width: 161
Flags: MW
HStem: 347 153<128 229 93 264>
VStem: -37 301
LayerCount: 2
Back
Fore
SplineSet
201 242 m 1
 106 -200 l 1
 -37 -200 l 1
 75 242 l 1
 201 242 l 1
264 500 m 1
 229 347 l 1
 93 347 l 1
 128 500 l 1
 264 500 l 1
EndSplineSet
Substitution2: "'case' Case-Sensitive Forms in Latin lookup 4 subtable" exclamdown.cap
EndChar
StartChar: cent
Encoding: 162 162 242
Width: 560
Flags: MW
HStem: 45 108<326 457> 346 224<402 431>
VStem: 146 131
LayerCount: 2
Back
Fore
SplineSet
251 -74 m 1
 274 29 l 1
 151 37 131 149 155 250 c 0
 190 391 273 461 379 468 c 1
 402 570 l 1
 510 570 l 1
 484 465 l 1
 521 461 554 455 554 455 c 1
 520 343 l 1
 520 343 449 346 413 346 c 0
 333 346 301 320 283 250 c 0
 267 183 282 153 370 153 c 0
 405 153 478 157 478 157 c 1
 457 45 l 1
 457 45 420 39 382 36 c 1
 357 -74 l 1
 251 -74 l 1
EndSplineSet
EndChar
StartChar: sterling
Encoding: 163 163 249
Width: 560
Flags: MW
HStem: 0 114<101 196 332 415 75 196> 329 114<192 245 165 271 408 538 192 382> 561 118<464.5 506 422.5 510>
VStem: 75 549
LayerCount: 2
Back
Fore
SplineSet
624 654 m 1
 593 553 l 1
 593 553 530 561 490 561 c 0
 439 561 428 523 413 463 c 2
 408 443 l 1
 565 443 l 1
 538 329 l 1
 382 329 l 1
 332 114 l 1
 424 114 l 1
 492 132 l 1
 489 17 l 1
 415 0 l 1
 75 0 l 1
 101 114 l 1
 196 114 l 1
 245 329 l 1
 165 329 l 1
 192 443 l 1
 271 443 l 1
 280 479 l 2
 316 623 364 679 481 679 c 0
 531 679 624 654 624 654 c 1
EndSplineSet
EndChar
StartChar: currency
Encoding: 164 164 273
Width: 560
Flags: MW
HStem: 55 122 327 121
VStem: 143 121 414 121
LayerCount: 2
Back
Fore
SplineSet
497 2 m 1
 424 75 l 1
 370 49 307 49 254 75 c 1
 181 2 l 1
 89 94 l 1
 162 167 l 1
 136 220 136 283 162 337 c 1
 89 410 l 1
 181 502 l 1
 254 429 l 1
 307 454 370 454 424 429 c 1
 497 502 l 1
 589 410 l 1
 516 337 l 1
 541 283 541 220 516 167 c 1
 589 94 l 1
 497 2 l 1
286 199 m 0
 315 170 363 170 392 199 c 0
 421 228 421 276 392 305 c 0
 363 334 315 334 286 305 c 0
 257 276 257 228 286 199 c 0
EndSplineSet
EndChar
StartChar: yen
Encoding: 165 165 215
Width: 560
Flags: MW
HStem: 0 21G<219 356 219 219> 125 118<131 249 103 276 412 525 131 385> 276 118<139 235 165 235 165 278 516 559>
VStem: 103 627<125 660>
LayerCount: 2
Back
Fore
SplineSet
139 276 m 1
 165 394 l 1
 235 394 l 1
 127 660 l 1
 276 660 l 1
 374 429 l 1
 552 660 l 1
 730 660 l 1
 516 394 l 1
 587 394 l 1
 559 276 l 1
 427 276 l 1
 418 265 l 1
 412 243 l 1
 552 243 l 1
 525 125 l 1
 385 125 l 1
 356 0 l 1
 219 0 l 1
 249 125 l 1
 103 125 l 1
 131 243 l 1
 276 243 l 1
 281 265 l 1
 278 276 l 1
 139 276 l 1
EndSplineSet
EndChar
StartChar: brokenbar
Encoding: 166 166 204
Width: 335
Flags: MW
HStem: -210 21G<157 291 157 157> 680 20G<157 291 291 291>
VStem: 157 134<-210 170 -210 170 328 700>
LayerCount: 2
Back
Fore
SplineSet
157 700 m 1
 291 700 l 1
 291 328 l 1
 157 328 l 1
 157 700 l 1
157 170 m 1
 291 170 l 1
 291 -210 l 1
 157 -210 l 1
 157 170 l 1
EndSplineSet
EndChar
StartChar: section
Encoding: 167 167 157
Width: 487
Flags: MW
HStem: -188 119<178.5 236 178.5 301.5> 518 119<355.5 412>
VStem: 78 137<205.5 224> 154 129<434.5 468> 311 131<-27.5 54.5> 373 139<234 248>
LayerCount: 2
Back
Fore
SplineSet
568 613 m 1xd4
 538 502 l 1
 538 502 434 518 390 518 c 0
 321 518 283 494 283 455 c 0
 283 414 342 406 396 393 c 0
 496 369 512 306 512 266 c 0xd4
 512 202 460 143 425 103 c 1
 440 79 442 63 442 46 c 0
 442 -15 417 -188 186 -188 c 0
 120 -188 16 -166 16 -166 c 1
 54 -55 l 1
 54 -55 153 -69 204 -69 c 0
 268 -69 311 -46 311 -9 c 0
 311 31 287 28 195 57 c 0
 109 84 78 122 78 182 c 0xe8
 78 266 139 320 174 346 c 1
 154 364 154 409 154 428 c 0
 154 508 235 637 409 637 c 0
 475 637 568 613 568 613 c 1xd4
310 283 m 0
 286 289 256 297 249 301 c 1
 239 289 215 244 215 216 c 0
 215 195 235 190 261 180 c 0xe4
 292 168 317 160 337 151 c 1
 351 165 373 210 373 236 c 0
 373 260 354 271 310 283 c 0
EndSplineSet
EndChar
StartChar: dieresis
Encoding: 168 168 8
Width: 514
Flags: MW
HStem: 601 135<215 357 246 325 440 519 246 409>
VStem: 215 336<601 736>
LayerCount: 2
Back
Fore
SplineSet
215 601 m 1
 246 736 l 1
 357 736 l 1
 325 601 l 1
 215 601 l 1
409 601 m 1
 440 736 l 1
 551 736 l 1
 519 601 l 1
 409 601 l 1
EndSplineSet
EndChar
StartChar: copyright
Encoding: 169 169 158
Width: 641
Flags: MW
HStem: 150 60<358 481.5 358 504> 269 95<426.5 455 426.5 457> 503 95<426 455> 658 60<359 481>
VStem: 145 62<373 495 373 516> 301 103<412.5 463.5 412.5 500> 634 62<372.5 495>
LayerCount: 2
Back
Fore
SplineSet
145 434 m 0
 145 598 261 718 421 718 c 0
 589 718 696 588 696 434 c 0
 696 273 589 150 419 150 c 0
 262 150 145 274 145 434 c 0
207 434 m 0
 207 312 297 210 419 210 c 0
 544 210 634 311 634 434 c 0
 634 556 542 658 420 658 c 0
 298 658 207 556 207 434 c 0
506 369 m 1
 513 287 l 1
 513 287 485 269 429 269 c 0
 341 269 301 303 301 439 c 0
 301 561 341 598 433 598 c 0
 481 598 513 583 513 583 c 1
 506 497 l 1
 506 497 471 503 439 503 c 0
 413 503 404 488 404 439 c 0
 404 386 414 364 439 364 c 0
 471 364 506 369 506 369 c 1
EndSplineSet
EndChar
StartChar: ordfeminine
Encoding: 170 170 208
Width: 329
Flags: MW
HStem: 314 88<146.5 249> 456.5 70 565 94<272.5 293.5>
VStem: 96 117 318 120
LayerCount: 2
Back
Fore
SplineSet
434 544 m 2
 402 403 l 2
 405 400 413 396 418 395 c 1
 397 313 l 1
 298 313 287 325 278 346 c 1
 278 346 228 314 181 314 c 0
 112 314 84 357 100 424 c 0
 115 490 156 521 248 525 c 2
 312 528 l 1
 318 550 l 2
 319 560 308 565 279 565 c 0
 235 565 146 558 146 558 c 1
 160 633 l 1
 160 633 237 659 308 659 c 0
 402 659 455 638 434 544 c 2
296 458 m 1
 252 455 l 2
 230 453 217 446 213 428 c 0
 210 409 218 402 239 402 c 0
 259 402 288 418 288 418 c 1
 296 458 l 1
EndSplineSet
EndChar
StartChar: guillemotleft
Encoding: 171 171 383
Width: 482
Flags: MW
HStem: 43 393<223 326 326 473>
VStem: 53 523<212 436>
LayerCount: 2
Back
Fore
SplineSet
576 436 m 1
 539 305 l 1
 426 240 l 1
 506 163 l 1
 473 43 l 1
 303 212 l 1
 326 273 l 1
 576 436 l 1
326 436 m 1
 289 305 l 1
 176 240 l 1
 256 163 l 1
 223 43 l 1
 53 212 l 1
 76 273 l 1
 326 436 l 1
EndSplineSet
EndChar
StartChar: logicalnot
Encoding: 172 172 277
Width: 560
Flags: MW
HStem: 238 120<113 429 113 549>
VStem: 429 120<104 238 238 238>
LayerCount: 2
Back
Fore
SplineSet
113 358 m 1
 549 358 l 1
 549 104 l 1
 429 104 l 1
 429 238 l 1
 113 238 l 1
 113 358 l 1
EndSplineSet
EndChar
StartChar: registered
Encoding: 174 174 160
Width: 641
Flags: MW
HStem: 150 60<360.5 482 360.5 504.5> 369 71<396 423 423 425 396 396> 519 72<395 395 395 422> 658 60<359.5 481>
VStem: 145 62<373 495 373 516> 300 96<276 369 276 591> 457 93<467.5 491> 634 62<372.5 495>
LayerCount: 2
Back
Fore
SplineSet
145 434 m 0
 145 598 261 718 420 718 c 0
 589 718 696 588 696 434 c 0
 696 273 589 150 420 150 c 0
 262 150 145 274 145 434 c 0
207 434 m 0
 207 312 301 210 420 210 c 0
 544 210 634 311 634 434 c 0
 634 556 542 658 420 658 c 0
 299 658 207 556 207 434 c 0
453 276 m 1
 425 369 l 1
 396 369 l 1
 396 276 l 1
 300 276 l 1
 300 591 l 1
 436 591 l 2
 501 591 550 562 550 486 c 0
 550 434 541 410 512 386 c 1
 553 276 l 1
 453 276 l 1
395 519 m 1
 395 440 l 1
 423 440 l 2
 445 440 457 456 457 479 c 0
 457 503 446 519 422 519 c 2
 395 519 l 1
EndSplineSet
EndChar
StartChar: macron
Encoding: 175 175 12
Width: 462
Flags: MW
HStem: 627 109<217 551 242 525>
VStem: 217 334<627 736>
LayerCount: 2
Back
Fore
SplineSet
217 627 m 1
 242 736 l 1
 551 736 l 1
 525 627 l 1
 217 627 l 1
EndSplineSet
EndChar
StartChar: degree
Encoding: 176 176 156
Width: 560
Flags: MW
HStem: 393 73<382.5 427.5 382.5 449.5> 619 73<382.5 427.5>
VStem: 255 75<519.5 564.5 519.5 586.5> 482 73<519.5 564.5>
LayerCount: 2
Back
Fore
SplineSet
255 542 m 0
 255 631 316 692 405 692 c 0
 494 692 555 631 555 542 c 0
 555 453 494 393 405 393 c 0
 316 393 255 453 255 542 c 0
330 542 m 0
 330 497 360 466 405 466 c 0
 450 466 482 497 482 542 c 0
 482 587 450 619 405 619 c 0
 360 619 330 587 330 542 c 0
EndSplineSet
EndChar
StartChar: plusminus
Encoding: 177 177 205
Width: 560
Flags: MW
HStem: 19 120<99 559 99 559> 270 120<99 268 99 268 388 559>
VStem: 268 120<170 270 170 270 390 498>
LayerCount: 2
Back
Fore
SplineSet
99 270 m 1
 99 390 l 1
 268 390 l 1
 268 498 l 1
 388 498 l 1
 388 390 l 1
 559 390 l 1
 559 270 l 1
 388 270 l 1
 388 170 l 1
 268 170 l 1
 268 270 l 1
 99 270 l 1
99 139 m 1
 559 139 l 1
 559 19 l 1
 99 19 l 1
 99 139 l 1
EndSplineSet
EndChar
StartChar: twosuperior
Encoding: 178 178 258
Width: 280
Flags: MW
HStem: 478 95<293 364> 693 108
VStem: 303 122
LayerCount: 2
Back
Fore
SplineSet
364 478 m 1
 133 478 l 1
 155 568 l 1
 243 627 l 2
 284 654 299 669 303 684 c 0
 306 696 295 699 270 699 c 0
 248 699 192 693 192 693 c 1
 213 792 l 1
 213 792 288 801 333 801 c 0
 416 801 437 772 419 701 c 0
 408 656 386 630 338 601 c 2
 293 573 l 1
 387 573 l 1
 364 478 l 1
EndSplineSet
Substitution2: "Single Substitution lookup 5 subtable" twoinferior
EndChar
StartChar: threesuperior
Encoding: 179 179 259
Width: 280
Flags: MW
HStem: 467 95<233.5 260.5 233.5 283.5> 592 85<215 260 194 279> 706 95<261.5 361>
VStem: 283 112 303 120
LayerCount: 2
Back
Fore
SplineSet
211 792 m 1x68
 211 792 281 801 321 801 c 0
 401 801 435 773 420 712 c 0x68
 412 678 395 653 374 642 c 1
 394 632 401 612 390 569 c 0
 373 500 320 467 247 467 c 0
 198 467 128 475 128 475 c 1
 157 568 l 1
 157 568 217 562 250 562 c 0xd0
 271 562 280 566 283 578 c 0
 286 590 278 592 260 592 c 2
 194 592 l 1
 215 677 l 1x50
 279 677 l 2x48
 292 677 300 681 303 691 c 0
 306 703 296 706 280 706 c 0
 243 706 194 701 194 701 c 1
 211 792 l 1x68
EndSplineSet
Substitution2: "Single Substitution lookup 5 subtable" threeinferior
EndChar
StartChar: acute
Encoding: 180 180 2
Width: 559
Flags: MW
HStem: 683 21G<244 244>
VStem: 244 274<654 683>
LayerCount: 2
Back
Fore
SplineSet
254 576 m 1
 244 683 l 1
 508 774 l 1
 518 654 l 1
 254 576 l 1
EndSplineSet
EndChar
StartChar: mu
Encoding: 181 181 223
Width: 560
Flags: MW
HStem: -210 21G<27 27 27 161> -12 21G<230 268> -9 21G<207 207> 0 104<276 484 276 356> 480 20G<190 324 324 324 465 599 599 599>
VStem: 27 572
LayerCount: 2
Back
Fore
SplineSet
27 -210 m 1xac
 128 232 l 1
 131 242 l 2
 131 245 132 248 133 251 c 2
 142 290 l 1
 190 500 l 1
 324 500 l 1
 275 290 l 1
 276 290 l 1
 261 224 l 2
 256 200 252 175 252 162 c 0
 252 125 259 104 293 104 c 0
 325 104 388 164 388 164 c 1
 465 500 l 1
 599 500 l 1
 484 0 l 1
 356 0 l 1x9c
 362 49 l 1
 362 49 301 -12 235 -12 c 0xcc
 225 -12 215 -11 207 -9 c 1
 161 -210 l 1
 27 -210 l 1xac
EndSplineSet
EndChar
StartChar: paragraph
Encoding: 182 182 250
Width: 565
Flags: MW
HStem: 0 21G<206 314 206 206 372 479 372 372> 594 106<456 513 456 456 621 621 621 655>
VStem: 140 540<420 700>
LayerCount: 2
Back
Fore
SplineSet
372 0 m 1
 513 594 l 1
 456 594 l 1
 314 0 l 1
 206 0 l 1
 279 306 l 1
 173 308 140 380 140 460 c 0
 140 579 230 700 367 700 c 2
 680 700 l 1
 655 594 l 1
 621 594 l 1
 479 0 l 1
 372 0 l 1
EndSplineSet
EndChar
StartChar: periodcentered
Encoding: 183 183 271
Width: 151
Flags: MW
HStem: 207 169<56 229 94 191>
VStem: 56 173<207 376>
LayerCount: 2
Back
Fore
SplineSet
56 207 m 1
 94 376 l 1
 229 376 l 1
 191 207 l 1
 56 207 l 1
EndSplineSet
Substitution2: "'case' Case-Sensitive Forms in Latin lookup 4 subtable" periodcentered.cap
EndChar
StartChar: cedilla
Encoding: 184 184 5
Width: 791
Flags: MW
HStem: -229 91<355.5 371 350 410.5> -218 21G<292 292> -94 99<347 421 347 421>
VStem: 400 109
LayerCount: 2
Back
Fore
SplineSet
505 -124 m 0xb0
 489 -192 445 -229 376 -229 c 0xb0
 335 -229 292 -218 292 -218 c 1x70
 312 -137 l 1
 312 -137 342 -138 358 -138 c 0
 384 -138 396 -130 400 -114 c 0
 405 -96 391 -94 369 -94 c 2
 347 -94 l 1
 369 5 l 1
 421 5 l 1
 410 -33 l 1
 416 -33 l 2
 477 -33 522 -51 505 -124 c 0xb0
EndSplineSet
EndChar
StartChar: onesuperior
Encoding: 185 185 257
Width: 280
Flags: MW
HStem: 673 21G<274 274>
VStem: 189 220<715 790>
LayerCount: 2
Back
Fore
SplineSet
189 715 m 1
 313 790 l 1
 409 790 l 1
 332 478 l 1
 226 478 l 1
 274 673 l 1
 219 641 l 1
 189 715 l 1
EndSplineSet
Substitution2: "Single Substitution lookup 5 subtable" oneinferior
EndChar
StartChar: ordmasculine
Encoding: 186 186 209
Width: 343
Flags: MW
HStem: 314 96<248 282 248 298.5> 568 92<282.5 315.5>
VStem: 108 116 344 117
LayerCount: 2
Back
Fore
SplineSet
321 660 m 0
 377 660 445 641 457 591 c 0
 465 557 461 523 454 494 c 0
 421 357 358 314 239 314 c 0
 153 314 103 362 108 440 c 0
 109 457 112 475 117 495 c 0
 147 617 213 660 321 660 c 0
263 410 m 0
 301 410 321 428 339 492 c 0
 342 504 344 515 344 528 c 0
 344 556 330 568 301 568 c 0
 264 568 245 550 232 498 c 0
 227 479 224 464 224 449 c 0
 224 422 233 410 263 410 c 0
EndSplineSet
EndChar
StartChar: guillemotright
Encoding: 187 187 384
Width: 474
Flags: MW
HStem: 43 393<19 122 122 259>
VStem: 19 513<43 267>
LayerCount: 2
Back
Fore
SplineSet
259 43 m 1
 296 174 l 1
 409 239 l 1
 329 316 l 1
 362 436 l 1
 532 267 l 1
 509 206 l 1
 259 43 l 1
19 43 m 1
 56 174 l 1
 169 239 l 1
 89 316 l 1
 122 436 l 1
 292 267 l 1
 269 206 l 1
 19 43 l 1
EndSplineSet
EndChar
StartChar: onequarter
Encoding: 188 188 421
Width: 634
Flags: MW
HStem: 0 20 35 95<521 524 521 629 521 640> 673 21G<243 243>
VStem: 102 574<20 220>
LayerCount: 2
Back
Fore
SplineSet
158 715 m 1
 282 790 l 1
 378 790 l 1
 301 478 l 1
 195 478 l 1
 243 673 l 1
 188 641 l 1
 158 715 l 1
228 -24 m 1
 102 20 l 1
 533 718 l 1
 659 674 l 1
 228 -24 l 1
516 0 m 1
 524 35 l 1
 389 35 l 1
 411 123 l 1
 500 312 l 1
 618 312 l 1
 521 130 l 1
 548 130 l 1
 585 220 l 1
 676 220 l 1
 653 130 l 1
 664 130 l 1
 640 35 l 1
 629 35 l 1xf0
 621 0 l 1
 516 0 l 1
EndSplineSet
EndChar
StartChar: onehalf
Encoding: 189 189 442
Width: 647
Flags: MW
HStem: 0 21G<411 642 411 411> 0 95<571 642> 221 102<537 652.5> 673 21G<243 243>
VStem: 102 601 581 122
LayerCount: 2
Back
Fore
SplineSet
158 715 m 1x78
 282 790 l 1
 378 790 l 1
 301 478 l 1
 195 478 l 1
 243 673 l 1
 188 641 l 1
 158 715 l 1x78
228 -24 m 1
 102 20 l 1xb8
 533 718 l 1
 659 674 l 1
 228 -24 l 1
642 0 m 1x74
 411 0 l 1
 433 90 l 1
 521 149 l 2
 562 176 577 191 581 206 c 0
 584 218 573 221 548 221 c 0
 526 221 470 215 470 215 c 1
 491 314 l 1
 491 314 566 323 611 323 c 0
 694 323 715 294 697 223 c 0
 686 178 664 152 616 123 c 2
 571 95 l 1
 665 95 l 1
 642 0 l 1x74
EndSplineSet
EndChar
StartChar: threequarters
Encoding: 190 190 443
Width: 631
Flags: MW
HStem: 0 20 35 95<518 521 518 626 518 637> 467 95<213.5 240.5 213.5 263.5> 592 85<195 240 174 259> 706 95<241.5 341>
VStem: 263 112 283 120
LayerCount: 2
Back
Fore
SplineSet
191 792 m 1x9a
 191 792 261 801 301 801 c 0
 381 801 415 773 400 712 c 0x9a
 392 678 375 653 354 642 c 1
 374 632 381 612 370 569 c 0
 353 500 300 467 227 467 c 0
 178 467 108 475 108 475 c 1
 137 568 l 1
 137 568 197 562 230 562 c 0xb4
 251 562 260 566 263 578 c 0
 266 590 258 592 240 592 c 2
 174 592 l 1
 195 677 l 1x94
 259 677 l 2x92
 272 677 280 681 283 691 c 0
 286 703 276 706 260 706 c 0
 223 706 174 701 174 701 c 1
 191 792 l 1x9a
225 -24 m 1
 99 20 l 1x94
 530 718 l 1
 656 674 l 1
 225 -24 l 1
513 0 m 1
 521 35 l 1
 386 35 l 1
 408 123 l 1
 497 312 l 1
 615 312 l 1
 518 130 l 1
 545 130 l 1
 582 220 l 1
 673 220 l 1
 650 130 l 1
 661 130 l 1
 637 35 l 1
 626 35 l 1xd4
 618 0 l 1
 513 0 l 1
EndSplineSet
EndChar
StartChar: questiondown
Encoding: 191 191 266
Width: 432
Flags: MW
HStem: -192 120<218.5 245> 332 168<292 390 254 428>
VStem: 26 142<-44.5 -3.5 -44.5 11.5>
LayerCount: 2
Back
Fore
SplineSet
26 -36 m 0
 26 59 67 103 177 179 c 0
 213 204 234 230 239 252 c 2
 248 292 l 1
 374 292 l 1
 374 292 374 243 366 202 c 0
 360 168 328 132 272 92 c 0
 201 42 168 15 168 -22 c 0
 168 -67 196 -72 241 -72 c 0
 311 -72 384 -60 384 -60 c 1
 370 -165 l 1
 370 -165 280 -192 210 -192 c 0
 97 -192 26 -148 26 -36 c 0
428 500 m 1
 390 332 l 1
 254 332 l 1
 292 500 l 1
 428 500 l 1
EndSplineSet
Substitution2: "'case' Case-Sensitive Forms in Latin lookup 4 subtable" questiondown.cap
EndChar
StartChar: Acircumflex
Encoding: 194 194 19
Width: 551
Flags: MW
HStem: 0 21G<13 13 13 151 398 398 398 536> 118 120<256 402 204 407> 560 120<400 400 400 421> 779 152<273 529 503 503 503 529 449 625>
VStem: 414 132.5
LayerCount: 2
Back
Fore
SplineSet
273 779 m 1
 449 931 l 1
 529 931 l 1
 625 779 l 1
 503 779 l 1
 477 834 l 1
 415 779 l 1
 273 779 l 1
13 0 m 1
 319 680 l 1
 557 680 l 1
 536 0 l 1
 398 0 l 1
 402 118 l 1
 204 118 l 1
 151 0 l 1
 13 0 l 1
400 560 m 1
 256 238 l 1
 407 238 l 1
 421 560 l 1
 400 560 l 1
EndSplineSet
Position2: "'cpsp' Capital Spacing in Latin lookup 0 subtable" dx=5 dy=0 dh=10 dv=0
EndChar
StartChar: Atilde
Encoding: 195 195 25
Width: 551
Flags: MW
HStem: 0 21G<13 13 13 151 398 398 398 536> 118 120<256 402 204 407> 560 120<400 400 400 421> 779 119<531.5 544> 822 118<373 387.5>
VStem: 414 132.5
LayerCount: 2
Back
Fore
SplineSet
631 936 m 1xf4
 633 842 l 1
 633 842 569 779 519 779 c 0xf4
 469 779 406 822 369 822 c 0
 344 822 285 783 285 783 c 1
 281 876 l 1
 281 876 349 940 397 940 c 0xec
 457 940 519 898 544 898 c 0
 569 898 631 936 631 936 c 1xf4
13 0 m 1
 319 680 l 1
 557 680 l 1
 536 0 l 1
 398 0 l 1
 402 118 l 1
 204 118 l 1
 151 0 l 1
 13 0 l 1
400 560 m 1
 256 238 l 1
 407 238 l 1
 421 560 l 1
 400 560 l 1
EndSplineSet
Position2: "'cpsp' Capital Spacing in Latin lookup 0 subtable" dx=5 dy=0 dh=10 dv=0
EndChar
StartChar: Adieresis
Encoding: 196 196 21
Width: 551
Flags: MW
HStem: 0 21G<13 13 13 151 398 398 398 536> 118 120<256 402 204 407> 560 120<400 400 400 421> 788 135<308 450 339 418 538 616 339 507>
VStem: 414 132.5
LayerCount: 2
Back
Fore
SplineSet
308 788 m 1
 339 923 l 1
 450 923 l 1
 418 788 l 1
 308 788 l 1
507 788 m 1
 538 923 l 1
 649 923 l 1
 616 788 l 1
 507 788 l 1
13 0 m 1
 319 680 l 1
 557 680 l 1
 536 0 l 1
 398 0 l 1
 402 118 l 1
 204 118 l 1
 151 0 l 1
 13 0 l 1
400 560 m 1
 256 238 l 1
 407 238 l 1
 421 560 l 1
 400 560 l 1
EndSplineSet
Position2: "'cpsp' Capital Spacing in Latin lookup 0 subtable" dx=5 dy=0 dh=10 dv=0
EndChar
StartChar: AE
Encoding: 198 198 26
Width: 754
Flags: MW
HStem: 0 130<472 719> 119 128<256 341 198 372> 277 125<537 728 507 757> 560 130<393 393 393 445>
VStem: 14 867<0 690>
LayerCount: 2
Back
Fore
SplineSet
313 0 m 1xb8
 341 119 l 1
 198 119 l 1x78
 145 0 l 1
 14 0 l 1
 322 690 l 1
 881 690 l 1
 851 559 l 1
 575 561 l 1
 537 402 l 1
 757 402 l 1
 728 277 l 1
 507 277 l 1
 472 130 l 1
 748 130 l 1
 719 0 l 1
 313 0 l 1xb8
393 560 m 1
 256 247 l 1
 372 247 l 1
 445 560 l 1
 393 560 l 1
EndSplineSet
Position2: "'cpsp' Capital Spacing in Latin lookup 0 subtable" dx=5 dy=0 dh=10 dv=0
EndChar
StartChar: Ccedilla
Encoding: 199 199 32
Width: 494
Flags: MW
HStem: -229 91<233.5 249 228 288.5> -218 21G<170 170> -94 61<225 294> -12 120<294 304 294 294> -7 21G 572 120<379.5 485> 662 21G<620 620>
VStem: 99 142<167.5 290 167.5 290.5> 278 109
LayerCount: 2
Back
Fore
SplineSet
484 121 m 1x95
 473 14 l 1
 473 14 380 -12 304 -12 c 2
 294 -12 l 1x9380
 288 -33 l 1
 294 -33 l 2
 355 -33 400 -51 383 -124 c 0
 367 -192 323 -229 254 -229 c 0xab80
 213 -229 170 -218 170 -218 c 1x4b
 190 -137 l 1
 190 -137 220 -138 236 -138 c 0
 262 -138 274 -130 278 -114 c 0
 283 -96 269 -94 247 -94 c 2
 225 -94 l 1xab80
 244 -7 l 1
 146 11 99 78 99 185 c 0
 99 396 190 692 449 692 c 0x8d
 531 692 620 662 620 662 c 1x8b
 588 560 l 1
 588 560 526 572 444 572 c 0
 315 572 241 385 241 195 c 0
 241 140 265 108 322 108 c 0
 400 108 484 121 484 121 c 1x95
EndSplineSet
Position2: "'cpsp' Capital Spacing in Latin lookup 0 subtable" dx=5 dy=0 dh=10 dv=0
EndChar
StartChar: Egrave
Encoding: 200 200 45
Width: 497
Flags: MW
HStem: 0 120<231 465> 280 120<295 473 268 501> 560 120<332 592 332 332>
VStem: 65 555
LayerCount: 2
Back
Fore
SplineSet
336 950 m 1
 558 859 l 1
 497 754 l 1
 270 831 l 1
 336 950 l 1
65 0 m 1
 221 680 l 1
 620 680 l 1
 592 560 l 1
 332 560 l 1
 295 400 l 1
 501 400 l 1
 473 280 l 1
 268 280 l 1
 231 120 l 1
 492 120 l 1
 465 0 l 1
 65 0 l 1
EndSplineSet
Position2: "'cpsp' Capital Spacing in Latin lookup 0 subtable" dx=5 dy=0 dh=10 dv=0
EndChar
StartChar: Ecircumflex
Encoding: 202 202 42
Width: 497
Flags: MW
HStem: 0 120<231 465> 280 120<295 473 268 501> 560 120<332 592 332 332> 782 152<260 516 490 490 490 516 436 612>
VStem: 65 555
LayerCount: 2
Back
Fore
SplineSet
260 782 m 1
 436 934 l 1
 516 934 l 1
 612 782 l 1
 490 782 l 1
 464 837 l 1
 402 782 l 1
 260 782 l 1
65 0 m 1
 221 680 l 1
 620 680 l 1
 592 560 l 1
 332 560 l 1
 295 400 l 1
 501 400 l 1
 473 280 l 1
 268 280 l 1
 231 120 l 1
 492 120 l 1
 465 0 l 1
 65 0 l 1
EndSplineSet
Position2: "'cpsp' Capital Spacing in Latin lookup 0 subtable" dx=5 dy=0 dh=10 dv=0
EndChar
StartChar: Icircumflex
Encoding: 206 206 60
Width: 268
Flags: MW
HStem: 0 21G<65 65 65 203> 782 152<132 388 362 362 362 388 308 484>
VStem: 65 419
LayerCount: 2
Back
Fore
SplineSet
132 782 m 1
 308 934 l 1
 388 934 l 1
 484 782 l 1
 362 782 l 1
 336 837 l 1
 274 782 l 1
 132 782 l 1
65 0 m 1
 222 680 l 1
 360 680 l 1
 203 0 l 1
 65 0 l 1
EndSplineSet
Position2: "'cpsp' Capital Spacing in Latin lookup 0 subtable" dx=5 dy=0 dh=10 dv=0
EndChar
StartChar: Eth
Encoding: 208 208 407
Width: 613
Flags: MW
HStem: 0 120<239 317> 275 136<112 136 83 168 112 274 306 385> 560 120<340 416 340 340>
VStem: 526 142<411 507>
LayerCount: 2
Back
Fore
SplineSet
317 0 m 2
 73 0 l 1
 136 275 l 1
 83 275 l 1
 112 411 l 1
 168 411 l 1
 230 680 l 1
 444 680 l 2
 562 680 668 636 668 473 c 0
 668 247 561 0 317 0 c 2
526 473 m 0
 526 541 484 560 416 560 c 2
 340 560 l 1
 306 411 l 1
 415 411 l 1
 385 275 l 1
 274 275 l 1
 239 120 l 1
 329 120 l 2
 473 120 526 349 526 473 c 0
EndSplineSet
Position2: "'cpsp' Capital Spacing in Latin lookup 0 subtable" dx=5 dy=0 dh=10 dv=0
EndChar
StartChar: Ntilde
Encoding: 209 209 81
Width: 651
Flags: MW
HStem: 0 147<378 489 477 489 477 586> 543 137<322 334 322 322> 778 119<575.5 588> 821 118<417 431.5>
VStem: 65 678
LayerCount: 2
Back
Fore
SplineSet
675 935 m 1xe8
 677 841 l 1
 677 841 613 778 563 778 c 0xe8
 513 778 450 821 413 821 c 0
 388 821 329 782 329 782 c 1
 325 875 l 1
 325 875 393 939 441 939 c 0xd8
 501 939 563 897 588 897 c 0
 613 897 675 935 675 935 c 1xe8
65 0 m 1
 222 680 l 1
 441 680 l 1
 477 147 l 1
 489 147 l 1
 610 680 l 1
 743 680 l 1
 586 0 l 1
 378 0 l 1
 334 543 l 1
 322 543 l 1
 195 0 l 1
 65 0 l 1
EndSplineSet
Position2: "'cpsp' Capital Spacing in Latin lookup 0 subtable" dx=5 dy=0 dh=10 dv=0
EndChar
StartChar: multiply
Encoding: 215 215 183
Width: 560
Flags: MW
HStem: 26 449<477 478>
VStem: 114 448<111 111>
LayerCount: 2
Back
Fore
SplineSet
200 473 m 1
 338 332 l 1
 478 475 l 1
 562 390 l 1
 419 250 l 1
 562 111 l 1
 477 26 l 1
 338 168 l 1
 199 27 l 1
 114 111 l 1
 256 250 l 1
 115 388 l 1
 200 473 l 1
EndSplineSet
EndChar
StartChar: Oslash
Encoding: 216 216 90
Width: 615
Flags: MW
HStem: -12 120<327 350.5> 572 120<417 444>
VStem: 101 142<200 200 200 210 200 279> 527 142<470 478 478 478>
LayerCount: 2
Back
Fore
SplineSet
119 -121 m 1
 53 -81 l 1
 144 53 l 1
 116 87 101 134 101 196 c 0
 101 362 151 533 257 625 c 0
 308 669 373 692 448 692 c 0
 492 692 531 686 563 672 c 1
 654 805 l 1
 728 774 l 1
 626 624 l 1
 653 591 669 545 669 484 c 0
 669 312 619 135 505 46 c 0
 456 8 386 -12 315 -12 c 0
 273 -12 237 -5 206 7 c 1
 119 -121 l 1
339 108 m 0
 370 108 400 119 423 142 c 0
 489 208 527 356 527 470 c 2
 527 478 l 1
 423 325 l 1
 282 118 l 1
 296 111 315 108 339 108 c 0
243 200 m 1
 353 363 l 1
 488 562 l 1
 474 569 456 572 432 572 c 0
 402 572 373 564 351 542 c 0
 280 472 243 310 243 210 c 2
 243 200 l 1
EndSplineSet
Position2: "'cpsp' Capital Spacing in Latin lookup 0 subtable" dx=5 dy=0 dh=10 dv=0
EndChar
StartChar: Ugrave
Encoding: 217 217 115
Width: 595
Flags: MW
HStem: -12 120<297 365.5 297 390>
VStem: 103 137<141.5 160>
LayerCount: 2
Back
Fore
SplineSet
389 950 m 1
 611 859 l 1
 550 754 l 1
 323 831 l 1
 389 950 l 1
353 680 m 1
 249 231 l 2
 244 210 240 189 240 165 c 0
 240 118 272 108 322 108 c 0
 409 108 432 147 451 231 c 2
 555 680 l 1
 693 680 l 1
 589 231 l 2
 550 61 470 -12 310 -12 c 0
 186 -12 103 36 103 142 c 0
 103 178 109 221 116 253 c 2
 215 680 l 1
 353 680 l 1
EndSplineSet
Position2: "'cpsp' Capital Spacing in Latin lookup 0 subtable" dx=5 dy=0 dh=10 dv=0
EndChar
StartChar: Uacute
Encoding: 218 218 111
Width: 595
Flags: MW
HStem: -12 120<297 365.5 297 390>
VStem: 103 137<141.5 160>
LayerCount: 2
Back
Fore
SplineSet
353 680 m 1
 249 231 l 2
 244 210 240 189 240 165 c 0
 240 118 272 108 322 108 c 0
 409 108 432 147 451 231 c 2
 555 680 l 1
 693 680 l 1
 589 231 l 2
 550 61 470 -12 310 -12 c 0
 186 -12 103 36 103 142 c 0
 103 178 109 221 116 253 c 2
 215 680 l 1
 353 680 l 1
361 765 m 1
 351 871 l 1
 615 962 l 1
 625 842 l 1
 361 765 l 1
EndSplineSet
Position2: "'cpsp' Capital Spacing in Latin lookup 0 subtable" dx=5 dy=0 dh=10 dv=0
EndChar
StartChar: Ucircumflex
Encoding: 219 219 113
Width: 595
Flags: MW
HStem: -12 120<297 365.5 297 390> 779 152<295 551 525 525 525 551 471 647>
VStem: 103 137<141.5 160>
LayerCount: 2
Back
Fore
SplineSet
353 680 m 1
 249 231 l 2
 244 210 240 189 240 165 c 0
 240 118 272 108 322 108 c 0
 409 108 432 147 451 231 c 2
 555 680 l 1
 693 680 l 1
 589 231 l 2
 550 61 470 -12 310 -12 c 0
 186 -12 103 36 103 142 c 0
 103 178 109 221 116 253 c 2
 215 680 l 1
 353 680 l 1
295 779 m 1
 471 931 l 1
 551 931 l 1
 647 779 l 1
 525 779 l 1
 499 834 l 1
 437 779 l 1
 295 779 l 1
EndSplineSet
Position2: "'cpsp' Capital Spacing in Latin lookup 0 subtable" dx=5 dy=0 dh=10 dv=0
EndChar
StartChar: Udieresis
Encoding: 220 220 114
Width: 595
Flags: MW
HStem: -12 120<297 365.5 297 390> 781 135<305 457 336 425 540 629 336 509>
VStem: 103 137<141.5 160>
LayerCount: 2
Back
Fore
SplineSet
305 781 m 1
 336 916 l 1
 457 916 l 1
 425 781 l 1
 305 781 l 1
509 781 m 1
 540 916 l 1
 661 916 l 1
 629 781 l 1
 509 781 l 1
353 680 m 1
 249 231 l 2
 244 210 240 189 240 165 c 0
 240 118 272 108 322 108 c 0
 409 108 432 147 451 231 c 2
 555 680 l 1
 693 680 l 1
 589 231 l 2
 550 61 470 -12 310 -12 c 0
 186 -12 103 36 103 142 c 0
 103 178 109 221 116 253 c 2
 215 680 l 1
 353 680 l 1
EndSplineSet
Position2: "'cpsp' Capital Spacing in Latin lookup 0 subtable" dx=5 dy=0 dh=10 dv=0
EndChar
StartChar: Yacute
Encoding: 221 221 129
Width: 504
Flags: MW
HStem: 0 21G<185 313 185 185>
VStem: 158 503<680 680>
LayerCount: 2
Back
Fore
SplineSet
345 765 m 1
 335 871 l 1
 599 962 l 1
 609 842 l 1
 345 765 l 1
661 680 m 1
 381 288 l 1
 313 0 l 1
 185 0 l 1
 253 294 l 1
 158 680 l 1
 298 680 l 1
 346 415 l 1
 515 680 l 1
 661 680 l 1
EndSplineSet
Position2: "'cpsp' Capital Spacing in Latin lookup 0 subtable" dx=5 dy=0 dh=10 dv=0
EndChar
StartChar: Thorn
Encoding: 222 222 192
Width: 538
Flags: MW
HStem: 0 21G<63 193 63 63> 99.5 136.5 458 135
VStem: 472 134
LayerCount: 2
Back
Fore
SplineSet
343 236 m 2
 408 236 449 277 467 348 c 0
 481 404 466 455 397 457 c 2
 301 459 l 1
 248 236 l 1
 343 236 l 2
312 99 m 2
 216 100 l 1
 193 0 l 1
 63 0 l 1
 226 690 l 1
 357 690 l 1
 332 593 l 1
 428 593 l 2
 564 593 628 483 599 348 c 0
 565 193 458 97 312 99 c 2
EndSplineSet
Position2: "'cpsp' Capital Spacing in Latin lookup 0 subtable" dx=5 dy=0 dh=10 dv=0
EndChar
StartChar: germandbls
Encoding: 223 223 188
Width: 564
Flags: MW
HStem: -12 114<340 392 338 441> 0 16 0 21G<54 180 54 54> 598 114<378.5 436>
VStem: 305 136<351.5 375.5 351.5 378> 447 136<146.5 173> 486 136<539 566>
LayerCount: 2
Back
Fore
SplineSet
180 0 m 1x3a
 54 0 l 1
 177 520 l 2
 213 670 288 712 424 712 c 0
 554 712 622 659 622 567 c 0
 622 502 603 455 531 427 c 0
 465 401 441 389 441 362 c 0x3a
 441 341 453 332 507 297 c 0
 558 264 583 247 583 180 c 0
 583 62 505 -12 377 -12 c 0x94
 303 -12 216 16 216 16 c 1x54
 245 114 l 1
 245 114 315 102 361 102 c 0
 423 102 447 132 447 161 c 0x94
 447 185 439 192 387 223 c 0
 325 260 305 285 305 337 c 0
 305 419 344 455 411 486 c 0
 475 516 486 525 486 553 c 0
 486 579 462 598 410 598 c 0
 347 598 314 571 298 502 c 2
 180 0 l 1x3a
EndSplineSet
EndChar
StartChar: agrave
Encoding: 224 224 162
Width: 528
Flags: MW
HStem: -12 114<246.5 259.5> -2 21G<349 349> 398 114<297.5 351> 662 21G<288 288> 682 21G<573 573>
VStem: 80 136<148.5 215.5 148.5 238>
LayerCount: 2
Back
Fore
SplineSet
221 -12 m 0xac
 119 -12 80 66 80 170 c 0
 80 306 152 512 334 512 c 0
 407 512 584 479 584 479 c 1
 509 156 l 2
 495 94 482 3 482 3 c 1
 349 -2 l 1x6c
 349 -2 358 59 362 76 c 1
 362 76 298 -12 221 -12 c 0xac
338 398 m 0xb4
 257 398 216 261 216 170 c 0
 216 127 226 102 267 102 c 0
 308 102 384 191 384 191 c 1
 430 384 l 1
 430 384 364 398 338 398 c 0xb4
352 772 m 1
 573 682 l 1
 517 583 l 1x6c
 288 662 l 1
 352 772 l 1
EndSplineSet
EndChar
StartChar: aacute
Encoding: 225 225 161
Width: 528
Flags: MW
HStem: -12 114<246.5 259.5> -2 21G<349 349> 398 114<297.5 351> 683 21G<326 326>
VStem: 80 136<148.5 215.5 148.5 238>
LayerCount: 2
Back
Fore
SplineSet
221 -12 m 0xb8
 119 -12 80 66 80 170 c 0
 80 306 152 512 334 512 c 0
 407 512 584 479 584 479 c 1
 509 156 l 2
 495 94 482 3 482 3 c 1
 349 -2 l 1x78
 349 -2 358 59 362 76 c 1
 362 76 298 -12 221 -12 c 0xb8
338 398 m 0
 257 398 216 261 216 170 c 0
 216 127 226 102 267 102 c 0
 308 102 384 191 384 191 c 1
 430 384 l 1
 430 384 364 398 338 398 c 0
336 576 m 1
 326 683 l 1
 590 774 l 1
 600 654 l 1
 336 576 l 1
EndSplineSet
EndChar
StartChar: atilde
Encoding: 227 227 165
Width: 528
Flags: MW
HStem: -12 114<246.5 259.5> -2 21G<349 349> 398 114<297.5 351> 590 118<507.5 518.5> 634 117<366 379.5> 688 20G<507.5 532>
VStem: 80 136<148.5 215.5 148.5 238>
LayerCount: 2
Back
Fore
SplineSet
221 -12 m 0xa6
 119 -12 80 66 80 170 c 0
 80 306 152 512 334 512 c 0
 407 512 584 479 584 479 c 1
 509 156 l 2
 495 94 482 3 482 3 c 1
 349 -2 l 1x66
 349 -2 358 59 362 76 c 1
 362 76 298 -12 221 -12 c 0xa6
338 398 m 0
 257 398 216 261 216 170 c 0
 216 127 226 102 267 102 c 0
 308 102 384 191 384 191 c 1
 430 384 l 1
 430 384 364 398 338 398 c 0
606 747 m 1
 610 654 l 1
 610 654 543 590 494 590 c 0x72
 446 590 395 634 364 634 c 0
 337 634 278 594 278 594 c 1x6a
 275 686 l 1
 275 686 342 751 390 751 c 0
 445 751 495 708 520 708 c 0
 544 708 606 747 606 747 c 1
EndSplineSet
EndChar
StartChar: adieresis
Encoding: 228 228 164
Width: 528
Flags: MW
HStem: -12 114<246.5 259.5> -2 21G<349 349> 398 114<297.5 351> 601 135<242 394 273 362 477 566 273 446>
VStem: 80 136<148.5 215.5 148.5 238>
LayerCount: 2
Back
Fore
SplineSet
242 601 m 1x78
 273 736 l 1
 394 736 l 1
 362 601 l 1
 242 601 l 1x78
446 601 m 1
 477 736 l 1
 598 736 l 1
 566 601 l 1
 446 601 l 1
221 -12 m 0xb8
 119 -12 80 66 80 170 c 0
 80 306 152 512 334 512 c 0
 407 512 584 479 584 479 c 1
 509 156 l 2
 495 94 482 3 482 3 c 1
 349 -2 l 1x78
 349 -2 358 59 362 76 c 1
 362 76 298 -12 221 -12 c 0xb8
338 398 m 0
 257 398 216 261 216 170 c 0
 216 127 226 102 267 102 c 0
 308 102 384 191 384 191 c 1
 430 384 l 1
 430 384 364 398 338 398 c 0
EndSplineSet
EndChar
StartChar: aring
Encoding: 229 229 166
Width: 528
Flags: MW
HStem: -12 114<246.5 259.5> -2 21G<349 349> 398 114<297.5 351> 547 79<416.5 433.5 416.5 434> 683 80<430.5 446>
VStem: 80 136<148.5 215.5 148.5 238> 326 210
LayerCount: 2
Back
Fore
SplineSet
221 -12 m 0xbe
 119 -12 80 66 80 170 c 0
 80 306 152 512 334 512 c 0
 407 512 584 479 584 479 c 1
 509 156 l 2
 495 94 482 3 482 3 c 1
 349 -2 l 1x7e
 349 -2 358 59 362 76 c 1
 362 76 298 -12 221 -12 c 0xbe
338 398 m 0
 257 398 216 261 216 170 c 0
 216 127 226 102 267 102 c 0
 308 102 384 191 384 191 c 1
 430 384 l 1
 430 384 364 398 338 398 c 0
331 656 m 0
 346 717 395 763 459 763 c 0
 525 763 546 715 532 655 c 0
 516 587 465 547 403 547 c 0
 338 547 315 595 331 656 c 0
403 656 m 0
 398 641 408 626 425 626 c 0
 442 626 456 639 461 655 c 0
 466 672 453 683 439 683 c 0
 422 683 408 672 403 656 c 0
EndSplineSet
EndChar
StartChar: ccedilla
Encoding: 231 231 189
Width: 410
Flags: MW
HStem: -229 91<201.5 217 196 256.5> -218 21G<138 138> -94 61<193 262> -9 21G<212 212> 396 116<297 360>
VStem: 83 136<163 238 163 259> 246 109
LayerCount: 2
Back
Fore
SplineSet
344 512 m 0x9c
 414 512 493 481 493 481 c 1
 459 383 l 1
 459 383 382 396 338 396 c 0
 256 396 219 285 219 191 c 0
 219 135 240 104 295 104 c 0x9c
 338 104 402 112 402 112 c 1
 391 13 l 1
 391 13 328 -9 262 -12 c 1
 256 -33 l 1
 262 -33 l 2
 323 -33 368 -51 351 -124 c 0
 335 -192 291 -229 222 -229 c 0xbe
 181 -229 138 -218 138 -218 c 1x5c
 158 -137 l 1
 158 -137 188 -138 204 -138 c 0
 230 -138 242 -130 246 -114 c 0
 251 -96 237 -94 215 -94 c 2
 193 -94 l 1xbe
 212 -9 l 1
 134 4 83 64 83 162 c 0
 83 356 169 512 344 512 c 0x9c
EndSplineSet
EndChar
StartChar: edieresis
Encoding: 235 235 170
Width: 476
Flags: MW
HStem: -12 114<268 298> 195 99<233 253 218 274> 403 108<318.5 364> 601 135<211 363 242 331 446 535 242 415>
VStem: 81 134<141 167 141 248.5> 398 132<336.5 376>
LayerCount: 2
Back
Fore
SplineSet
211 601 m 1
 242 736 l 1
 363 736 l 1
 331 601 l 1
 211 601 l 1
415 601 m 1
 446 736 l 1
 567 736 l 1
 535 601 l 1
 415 601 l 1
288 102 m 0
 356 102 454 115 454 115 c 1
 439 16 l 1
 439 16 346 -12 250 -12 c 0
 135 -12 81 41 81 158 c 0
 81 339 160 511 355 511 c 0
 462 511 530 469 530 362 c 0
 530 231 444 195 253 195 c 2
 218 195 l 1
 216 187 215 173 215 161 c 0
 215 121 248 102 288 102 c 0
233 294 m 1
 274 294 l 2
 368 294 398 313 398 360 c 0
 398 392 380 403 348 403 c 0
 289 403 250 366 233 294 c 1
EndSplineSet
EndChar
StartChar: igrave
Encoding: 236 236 186
Width: 243
Flags: MW
HStem: 0 21G<55 55 55 189> 480 20G<170 304 304 304> 662 21G<71 71> 682 21G<356 356>
VStem: 55 301
LayerCount: 2
Back
Fore
SplineSet
55 0 m 1xd8
 170 500 l 1
 304 500 l 1
 189 0 l 1
 55 0 l 1xd8
135 772 m 1
 356 682 l 1
 300 583 l 1xd8
 71 662 l 1xe8
 135 772 l 1
EndSplineSet
EndChar
StartChar: iacute
Encoding: 237 237 185
Width: 243
Flags: MW
HStem: 0 21G<55 55 55 189> 480 20G<170 304 304 304> 683 21G<172 172>
VStem: 55 391
LayerCount: 2
Back
Fore
SplineSet
55 0 m 1
 170 500 l 1
 304 500 l 1
 189 0 l 1
 55 0 l 1
182 576 m 1
 172 683 l 1
 436 774 l 1
 446 654 l 1
 182 576 l 1
EndSplineSet
EndChar
StartChar: icircumflex
Encoding: 238 238 187
Width: 243
Flags: MW
HStem: 0 21G<55 55 55 189> 480 20G<170 304 304 304> 575 175<69 337 69 337 291 291 291 337 237 423>
VStem: 55 368
LayerCount: 2
Back
Fore
SplineSet
69 575 m 1
 237 750 l 1
 337 750 l 1
 423 575 l 1
 291 575 l 1
 267 639 l 1
 209 575 l 1
 69 575 l 1
55 0 m 1
 170 500 l 1
 304 500 l 1
 189 0 l 1
 55 0 l 1
EndSplineSet
EndChar
StartChar: idieresis
Encoding: 239 239 171
Width: 243
Flags: MW
HStem: 0 21G<55 55 55 189> 480 20G<170 304 304 304> 601 135<89 241 120 209 324 413 120 293>
VStem: 55 390
LayerCount: 2
Back
Fore
SplineSet
89 601 m 1
 120 736 l 1
 241 736 l 1
 209 601 l 1
 89 601 l 1
293 601 m 1
 324 736 l 1
 445 736 l 1
 413 601 l 1
 293 601 l 1
55 0 m 1
 170 500 l 1
 304 500 l 1
 189 0 l 1
 55 0 l 1
EndSplineSet
EndChar
StartChar: eth
Encoding: 240 240 191
Width: 527
Flags: MW
HStem: -9 127<243.5 312.5 243.5 341> 318 120<295.5 352.5> 667 21G<558 558>
VStem: 72 138 453 135
LayerCount: 2
Back
Fore
SplineSet
381 544 m 1
 274 470 l 1
 228 542 l 1
 273 573 l 1
 209 582 l 1
 253 698 l 1
 317 695 371 687 417 672 c 1
 515 739 l 1
 558 667 l 1
 504 629 l 1
 582 572 606 479 575 353 c 0
 516 112 433 -9 249 -9 c 0
 105 -9 49 102 81 221 c 0
 114 345 206 438 339 438 c 0
 404 438 453 416 453 416 c 1
 465 484 431 522 381 544 c 1
320 318 m 0
 271 318 233 277 218 222 c 0
 201 160 208 118 279 118 c 0
 346 118 396 173 427 296 c 0
 425 297 385 318 320 318 c 0
EndSplineSet
EndChar
StartChar: ntilde
Encoding: 241 241 172
Width: 513
Flags: MW
HStem: 590 118<479.5 490.5> 634 117<338 351.5> 688 20G<479.5 504>
VStem: 55 527
LayerCount: 2
Back
Fore
SplineSet
55 0 m 1x30
 189 0 l 1
 266 336 l 1
 266 336 329 396 361 396 c 0
 398 396 402 375 402 338 c 0
 402 315 390 260 384 235 c 2
 330 0 l 1
 464 0 l 1
 520 245 l 2
 527 275 541 338 541 371 c 0
 541 449 510 512 419 512 c 0
 353 512 292 451 292 451 c 1
 298 500 l 1
 170 500 l 1
 55 0 l 1x30
578 747 m 1
 582 654 l 1
 582 654 515 590 466 590 c 0x90
 418 590 367 634 336 634 c 0
 309 634 250 594 250 594 c 1x50
 247 686 l 1
 247 686 314 751 362 751 c 0
 417 751 467 708 492 708 c 0
 516 708 578 747 578 747 c 1
EndSplineSet
EndChar
StartChar: ocircumflex
Encoding: 244 244 175
Width: 496
Flags: MW
HStem: -12 114<256 315 256 361> 397 114<295 354> 575 175<200 468 200 468 422 422 422 468 368 554>
VStem: 80 133<152 227 152 254> 397 133<272 347>
LayerCount: 2
Back
Fore
SplineSet
200 575 m 1
 368 750 l 1
 468 750 l 1
 554 575 l 1
 422 575 l 1
 398 639 l 1
 340 575 l 1
 200 575 l 1
333 511 m 0
 457 511 530 456 530 322 c 0
 530 168 445 -12 277 -12 c 0
 153 -12 80 43 80 177 c 0
 80 331 173 511 333 511 c 0
277 102 m 0
 353 102 397 220 397 324 c 0
 397 370 375 397 333 397 c 0
 257 397 213 279 213 175 c 0
 213 129 235 102 277 102 c 0
EndSplineSet
EndChar
StartChar: otilde
Encoding: 245 245 177
Width: 496
Flags: MW
HStem: -12 114<256 315 256 361> 397 114<295 354> 590 118<454.5 465.5> 634 117<313 326.5> 688 20G<454.5 479>
VStem: 80 133<152 227 152 254> 397 133<272 347>
LayerCount: 2
Back
Fore
SplineSet
333 511 m 0xce
 457 511 530 456 530 322 c 0
 530 168 445 -12 277 -12 c 0
 153 -12 80 43 80 177 c 0
 80 331 173 511 333 511 c 0xce
277 102 m 0
 353 102 397 220 397 324 c 0
 397 370 375 397 333 397 c 0
 257 397 213 279 213 175 c 0
 213 129 235 102 277 102 c 0
553 747 m 1
 557 654 l 1
 557 654 490 590 441 590 c 0xe6
 393 590 342 634 311 634 c 0
 284 634 225 594 225 594 c 1xd6
 222 686 l 1
 222 686 289 751 337 751 c 0
 392 751 442 708 467 708 c 0
 491 708 553 747 553 747 c 1
EndSplineSet
EndChar
StartChar: odieresis
Encoding: 246 246 176
Width: 496
Flags: MW
HStem: -12 114<256 315 256 361> 397 114<295 354> 601 135<228 370 259 338 453 532 259 422>
VStem: 80 133<152 227 152 254> 397 133<272 347>
LayerCount: 2
Back
Fore
SplineSet
333 511 m 0
 457 511 530 456 530 322 c 0
 530 168 445 -12 277 -12 c 0
 153 -12 80 43 80 177 c 0
 80 331 173 511 333 511 c 0
277 102 m 0
 353 102 397 220 397 324 c 0
 397 370 375 397 333 397 c 0
 257 397 213 279 213 175 c 0
 213 129 235 102 277 102 c 0
228 601 m 1
 259 736 l 1
 370 736 l 1
 338 601 l 1
 228 601 l 1
422 601 m 1
 453 736 l 1
 564 736 l 1
 532 601 l 1
 422 601 l 1
EndSplineSet
EndChar
StartChar: divide
Encoding: 247 247 245
Width: 560
Flags: MW
HStem: 17 132<271 403 271 403> 191 120<108 568 108 568> 352 132<271 403 271 403>
VStem: 271 132<17 149 17 149 352 484>
LayerCount: 2
Back
Fore
SplineSet
271 352 m 1
 271 484 l 1
 403 484 l 1
 403 352 l 1
 271 352 l 1
108 191 m 1
 108 311 l 1
 568 311 l 1
 568 191 l 1
 108 191 l 1
271 17 m 1
 271 149 l 1
 403 149 l 1
 403 17 l 1
 271 17 l 1
EndSplineSet
EndChar
StartChar: oslash
Encoding: 248 248 193
Width: 496
Flags: MW
HStem: -10 114<274 316 274 362> 1 21G<192 192> 399 114<296 338> 481 20G<419 419>
VStem: 81 133<169 169 169 177 169 256> 398 133<326 331 331 331>
LayerCount: 2
Back
Fore
SplineSet
334 513 m 0xac
 366 513 394 509 419 501 c 1
 483 606 l 1
 554 575 l 1
 483 464 l 1
 514 434 531 388 531 324 c 0
 531 170 446 -10 278 -10 c 0x9c
 246 -10 217 -6 192 1 c 1x6c
 126 -107 l 1
 56 -76 l 1
 129 38 l 1
 98 68 81 114 81 179 c 0
 81 333 174 513 334 513 c 0xac
214 169 m 1
 276 266 l 1
 355 396 l 1
 349 398 342 399 334 399 c 0
 258 399 214 281 214 177 c 2
 214 169 l 1
278 104 m 0
 354 104 398 222 398 326 c 2
 398 331 l 1
 336 235 l 1
 257 106 l 1
 263 105 270 104 278 104 c 0
EndSplineSet
EndChar
StartChar: ugrave
Encoding: 249 249 179
Width: 513
Flags: MW
HStem: -12 116<163.5 283> 0 104<250 458 250 330> 480 20G<164 298 298 298 439 573 573 573> 662 21G<231 231> 682 21G<516 516>
VStem: 87 139<143.5 145.5> 87 486<90 500>
LayerCount: 2
Back
Fore
SplineSet
295 772 m 1x6a
 516 682 l 1
 460 583 l 1x6a
 231 662 l 1x72
 295 772 l 1x6a
439 500 m 1
 573 500 l 1
 458 0 l 1
 330 0 l 1x6a
 336 49 l 1
 336 49 275 -12 209 -12 c 0xac
 118 -12 87 51 87 129 c 0
 87 162 101 226 108 255 c 2
 164 500 l 1
 298 500 l 1
 244 265 l 2
 238 240 226 185 226 162 c 0
 226 125 233 104 267 104 c 0x6c
 299 104 362 164 362 164 c 1
 439 500 l 1
EndSplineSet
EndChar
StartChar: uacute
Encoding: 250 250 178
Width: 513
Flags: MW
HStem: -12 116<163.5 283> 0 104<250 458 250 330> 480 20G<164 298 298 298 439 573 573 573> 683 21G<277 277>
VStem: 87 139<143.5 145.5> 87 486<90 500>
LayerCount: 2
Back
Fore
SplineSet
439 500 m 1x74
 573 500 l 1
 458 0 l 1
 330 0 l 1x74
 336 49 l 1
 336 49 275 -12 209 -12 c 0xb8
 118 -12 87 51 87 129 c 0
 87 162 101 226 108 255 c 2
 164 500 l 1
 298 500 l 1
 244 265 l 2
 238 240 226 185 226 162 c 0
 226 125 233 104 267 104 c 0x78
 299 104 362 164 362 164 c 1
 439 500 l 1x74
287 576 m 1
 277 683 l 1
 541 774 l 1
 551 654 l 1
 287 576 l 1
EndSplineSet
EndChar
StartChar: yacute
Encoding: 253 253 154
Width: 464
Flags: MW
HStem: -210 21G<102 235 102 102> 0 21G<122 205 122 122> 0 111<122 258> 480 20G<126 257 257 257 432 567 567 567> 683 21G<263 263>
VStem: 124 126
LayerCount: 2
Back
Fore
SplineSet
126 500 m 1xdc
 257 500 l 1
 243 111 l 1
 258 111 l 1xbc
 432 500 l 1
 567 500 l 1
 235 -210 l 1
 102 -210 l 1
 205 0 l 1
 122 0 l 1
 126 500 l 1xdc
273 576 m 1
 263 683 l 1
 527 774 l 1
 537 654 l 1
 273 576 l 1
EndSplineSet
EndChar
StartChar: thorn
Encoding: 254 254 447
Width: 495
Flags: MW
HStem: -12 119<273 304 273 318.5> -7 21G<177 177> 388 123<368.5 382.5>
VStem: 403 135
LayerCount: 2
Back
Fore
SplineSet
394 511 m 0xb0
 549 511 553 364 523 255 c 0
 467 50 389 -12 248 -12 c 0xb0
 213 -12 177 -9 177 -7 c 2x70
 130 -208 l 1
 4 -208 l 1
 218 698 l 1
 344 698 l 1
 291 469 l 2
 294 470 343 511 394 511 c 0xb0
262 350 m 2
 206 113 l 1
 273 107 l 1
 335 107 371 166 394 255 c 0
 407 305 416 388 349 388 c 0
 317 388 262 348 262 350 c 2
EndSplineSet
EndChar
StartChar: ydieresis
Encoding: 255 255 152
Width: 464
Flags: MW
HStem: -210 21G<102 235 102 102> 0 21G<122 205 122 122> 0 111<122 258> 480 20G<126 257 257 257 432 567 567 567> 601 135<198 350 229 318 433 522 229 402>
VStem: 124 126
LayerCount: 2
Back
Fore
SplineSet
198 601 m 1xdc
 229 736 l 1
 350 736 l 1
 318 601 l 1
 198 601 l 1xdc
402 601 m 1
 433 736 l 1
 554 736 l 1
 522 601 l 1
 402 601 l 1
126 500 m 1
 257 500 l 1
 243 111 l 1
 258 111 l 1xbc
 432 500 l 1
 567 500 l 1
 235 -210 l 1
 102 -210 l 1
 205 0 l 1
 122 0 l 1
 126 500 l 1
EndSplineSet
EndChar
StartChar: amacron
Encoding: 257 257 301
Width: 528
Flags: MW
HStem: -12 114<246.5 259.5> -2 21G<349 349> 398 114<297.5 351> 627 109<277 611 302 585>
VStem: 80 136<148.5 215.5 148.5 238>
LayerCount: 2
Back
Fore
SplineSet
221 -12 m 0xb8
 119 -12 80 66 80 170 c 0
 80 306 152 512 334 512 c 0
 407 512 584 479 584 479 c 1
 509 156 l 2
 495 94 482 3 482 3 c 1
 349 -2 l 1x78
 349 -2 358 59 362 76 c 1
 362 76 298 -12 221 -12 c 0xb8
338 398 m 0
 257 398 216 261 216 170 c 0
 216 127 226 102 267 102 c 0
 308 102 384 191 384 191 c 1
 430 384 l 1
 430 384 364 398 338 398 c 0
277 627 m 1
 302 736 l 1
 611 736 l 1
 585 627 l 1
 277 627 l 1
EndSplineSet
EndChar
StartChar: Abreve
Encoding: 258 258 18
Width: 551
Flags: MW
HStem: 0 21G<13 13 13 151 398 398 398 536> 118 120<256 402 204 407> 560 120<400 400 400 421> 783 144<408.5 445 323 516.5>
VStem: 414 132.5
LayerCount: 2
Back
Fore
SplineSet
323 927 m 1
 445 927 l 1
 441 899 454 888 480 888 c 0
 506 888 524 904 533 927 c 1
 655 927 l 1
 625 840 575 783 458 783 c 0
 359 783 311 835 323 927 c 1
13 0 m 1
 319 680 l 1
 557 680 l 1
 536 0 l 1
 398 0 l 1
 402 118 l 1
 204 118 l 1
 151 0 l 1
 13 0 l 1
400 560 m 1
 256 238 l 1
 407 238 l 1
 421 560 l 1
 400 560 l 1
EndSplineSet
Position2: "'cpsp' Capital Spacing in Latin lookup 0 subtable" dx=5 dy=0 dh=10 dv=0
EndChar
StartChar: abreve
Encoding: 259 259 302
Width: 528
Flags: MW
HStem: -12 114<246.5 259.5> -2 21G<349 349> 398 114<297.5 351> 590 112<431.5 466 431.5 477> 590 156<365 408 287 477>
VStem: 80 136<148.5 215.5 148.5 238> 284 124
LayerCount: 2
Back
Fore
SplineSet
221 -12 m 0xb6
 119 -12 80 66 80 170 c 0
 80 306 152 512 334 512 c 0
 407 512 584 479 584 479 c 1
 509 156 l 2
 495 94 482 3 482 3 c 1
 349 -2 l 1x76
 349 -2 358 59 362 76 c 1
 362 76 298 -12 221 -12 c 0xb6
338 398 m 0xae
 257 398 216 261 216 170 c 0
 216 127 226 102 267 102 c 0
 308 102 384 191 384 191 c 1
 430 384 l 1
 430 384 364 398 338 398 c 0xae
287 746 m 1
 408 746 l 1x6e
 406 723 413 702 450 702 c 0x76
 482 702 502 716 513 746 c 1
 634 746 l 1x6e
 602 650 538 590 416 590 c 0x76
 314 590 273 643 287 746 c 1
EndSplineSet
EndChar
StartChar: Aogonek
Encoding: 260 260 23
Width: 551
Flags: MW
HStem: -214 21G<375.5 421.5> -214 118<375.5 478.5> 0 21G<13 13 13 151 398 398 398 408 528 528 528 536> 118 120<256 402 204 407> 560 120<400 400 400 421>
VStem: 400 62 414 122
LayerCount: 2
Back
Fore
SplineSet
13 0 m 1xba
 319 680 l 1
 557 680 l 1xba
 536 5 l 1
 536 0 l 1
 528 0 l 1
 503 -18 462 -60 462 -82 c 0
 462 -89 465 -96 475 -96 c 0
 482 -96 512 -93 512 -93 c 1x7c
 499 -203 l 1
 499 -203 442 -214 401 -214 c 0
 350 -214 318 -188 318 -137 c 0
 318 -86 370 -31 408 0 c 1
 398 0 l 1
 402 118 l 1xbc
 204 118 l 1
 151 0 l 1
 13 0 l 1xba
400 560 m 1
 256 238 l 1
 407 238 l 1
 421 560 l 1
 400 560 l 1
EndSplineSet
Position2: "'cpsp' Capital Spacing in Latin lookup 0 subtable" dx=5 dy=0 dh=10 dv=0
EndChar
StartChar: aogonek
Encoding: 261 261 304
Width: 528
Flags: MW
HStem: -214 118<315.5 418.5> -12 114<246.5 259.5> 398 114<297.5 351>
VStem: 80 136<148.5 215.5 148.5 238> 258 144<-162.5 -70.5>
LayerCount: 2
Back
Fore
SplineSet
452 -93 m 1
 439 -203 l 1
 439 -203 382 -214 341 -214 c 0
 290 -214 258 -188 258 -137 c 0
 258 -85 312 -29 349 1 c 1
 351 11 358 61 362 76 c 1
 362 76 298 -12 221 -12 c 0
 119 -12 80 66 80 170 c 0
 80 306 152 512 334 512 c 0
 407 512 584 479 584 479 c 1
 509 156 l 2
 495 94 482 3 482 3 c 1
 472 2 l 1
 447 -14 402 -59 402 -82 c 0
 402 -89 405 -96 415 -96 c 0
 422 -96 452 -93 452 -93 c 1
338 398 m 0
 257 398 216 261 216 170 c 0
 216 127 226 102 267 102 c 0
 308 102 384 191 384 191 c 1
 430 384 l 1
 430 384 364 398 338 398 c 0
EndSplineSet
EndChar
StartChar: cdotaccent
Encoding: 267 267 309
Width: 409
Flags: MW
HStem: -12 116<266.5 281> 396 116<296 359> 582 137<300 448 332 416>
VStem: 82 136<163 238 163 259>
LayerCount: 2
Back
Fore
SplineSet
343 512 m 0
 413 512 492 481 492 481 c 1
 458 383 l 1
 458 383 381 396 337 396 c 0
 255 396 218 285 218 191 c 0
 218 135 239 104 294 104 c 0
 337 104 401 112 401 112 c 1
 390 13 l 1
 390 13 317 -12 245 -12 c 0
 149 -12 82 50 82 162 c 0
 82 356 168 512 343 512 c 0
300 582 m 1
 332 719 l 1
 448 719 l 1
 416 582 l 1
 300 582 l 1
EndSplineSet
EndChar
StartChar: Dcaron
Encoding: 270 270 36
Width: 605
Flags: MW
HStem: 680 247<302 434 302 436 222 434> 776 151<395 434 302 487 395 395>
VStem: 65 595<0 554.5>
LayerCount: 2
Back
Fore
SplineSet
65 0 m 1xa0
 309 0 l 2
 553 0 660 247 660 473 c 0
 660 636 554 680 436 680 c 2
 222 680 l 1
 65 0 l 1xa0
518 473 m 0
 518 349 465 120 321 120 c 2
 231 120 l 1
 332 560 l 1
 408 560 l 2
 476 560 518 541 518 473 c 0
647 927 m 1
 487 776 l 1
 395 776 l 1x60
 302 927 l 1
 434 927 l 1
 463 870 l 1
 516 927 l 1
 647 927 l 1
EndSplineSet
Position2: "'cpsp' Capital Spacing in Latin lookup 0 subtable" dx=5 dy=0 dh=10 dv=0
EndChar
StartChar: dcaron
Encoding: 271 271 310
Width: 637
Flags: MW
HStem: -12 114<249 260> 0 102<249 473 249 343> 397 114<294.5 351> 429 251<682 744 621 804> 429 271<621 635 501 744 621 621> 491 20G<249 353> 680 20G
VStem: 80 136<148 211.5 148 246>
LayerCount: 2
Back
Fore
SplineSet
804 680 m 1x91
 744 429 l 1
 621 429 l 1x89
 682 680 l 1
 804 680 l 1x91
635 700 m 1
 473 0 l 1
 343 0 l 1x63
 352 52 l 1
 352 52 296 -12 224 -12 c 0
 128 -12 80 53 80 165 c 0
 80 327 166 511 332 511 c 0xa3
 374 511 452 490 452 490 c 1x87
 501 700 l 1
 635 700 l 1
380 174 m 1xa3
 428 383 l 1
 428 383 370 397 332 397 c 0
 257 397 216 257 216 166 c 0
 216 130 231 102 267 102 c 0
 304 102 380 174 380 174 c 1xa3
EndSplineSet
EndChar
StartChar: dcroat
Encoding: 273 273 311
Width: 528
Flags: MW
HStem: -12 114<249 260> 0 102<249 473 249 343> 397 114<294.5 351> 491 20G<249 353> 547 119<372 465 345 493 627 653 372 599> 547 153<345 635 599 635 501 653 599 599>
VStem: 80 136<148 211.5 148 246>
LayerCount: 2
Back
Fore
SplineSet
635 700 m 1xa6
 627 666 l 1
 681 666 l 1xaa
 653 547 l 1
 599 547 l 1
 473 0 l 1
 343 0 l 1x66
 352 52 l 1
 352 52 296 -12 224 -12 c 0
 128 -12 80 53 80 165 c 0
 80 327 166 511 332 511 c 0xa6
 374 511 452 490 452 490 c 1
 465 547 l 1
 345 547 l 1x96
 372 666 l 1
 493 666 l 1xaa
 501 700 l 1
 635 700 l 1xa6
380 174 m 1
 428 383 l 1
 428 383 370 397 332 397 c 0
 257 397 216 257 216 166 c 0
 216 130 231 102 267 102 c 0
 304 102 380 174 380 174 c 1
EndSplineSet
EndChar
StartChar: Ebreve
Encoding: 276 276 40
Width: 497
Flags: MW
HStem: 0 120<231 465> 280 120<295 473 268 501> 560 120<332 592 332 332> 783 144<382.5 419 297 490.5>
VStem: 65 564
LayerCount: 2
Back
Fore
SplineSet
297 927 m 1
 419 927 l 1
 415 899 428 888 454 888 c 0
 480 888 498 904 507 927 c 1
 629 927 l 1
 599 840 549 783 432 783 c 0
 333 783 285 835 297 927 c 1
65 0 m 1
 221 680 l 1
 620 680 l 1
 592 560 l 1
 332 560 l 1
 295 400 l 1
 501 400 l 1
 473 280 l 1
 268 280 l 1
 231 120 l 1
 492 120 l 1
 465 0 l 1
 65 0 l 1
EndSplineSet
Position2: "'cpsp' Capital Spacing in Latin lookup 0 subtable" dx=5 dy=0 dh=10 dv=0
EndChar
StartChar: ebreve
Encoding: 277 277 314
Width: 476
Flags: MW
HStem: -12 114<268 298> 195 99<233 253 218 274> 403 108<318.5 364> 590 112<388.5 423 388.5 434> 590 156<322 365 244 434>
VStem: 81 134<141 167 141 248.5> 241 124 398 132<336.5 376>
LayerCount: 2
Back
Fore
SplineSet
288 102 m 0xf5
 356 102 454 115 454 115 c 1
 439 16 l 1
 439 16 346 -12 250 -12 c 0
 135 -12 81 41 81 158 c 0
 81 339 160 511 355 511 c 0
 462 511 530 469 530 362 c 0
 530 231 444 195 253 195 c 2
 218 195 l 1
 216 187 215 173 215 161 c 0
 215 121 248 102 288 102 c 0xf5
233 294 m 1
 274 294 l 2
 368 294 398 313 398 360 c 0
 398 392 380 403 348 403 c 0
 289 403 250 366 233 294 c 1
244 746 m 1xed
 365 746 l 1xef
 363 723 370 702 407 702 c 0xf7
 439 702 459 716 470 746 c 1
 591 746 l 1xed
 559 650 495 590 373 590 c 0xf7
 271 590 230 643 244 746 c 1xed
EndSplineSet
EndChar
StartChar: Edotaccent
Encoding: 278 278 44
Width: 497
Flags: MW
HStem: 0 120<231 465> 280 120<295 473 268 501> 560 120<332 592 332 332> 771 138<368 518 400 484>
VStem: 65 555
LayerCount: 2
Back
Fore
SplineSet
368 771 m 1
 400 909 l 1
 518 909 l 1
 484 771 l 1
 368 771 l 1
65 0 m 1
 221 680 l 1
 620 680 l 1
 592 560 l 1
 332 560 l 1
 295 400 l 1
 501 400 l 1
 473 280 l 1
 268 280 l 1
 231 120 l 1
 492 120 l 1
 465 0 l 1
 65 0 l 1
EndSplineSet
Position2: "'cpsp' Capital Spacing in Latin lookup 0 subtable" dx=5 dy=0 dh=10 dv=0
EndChar
StartChar: Eogonek
Encoding: 280 280 47
Width: 497
Flags: MW
HStem: -214 21G<300.5 346.5> -214 118<300.5 403.5> 0 120<231 333 453 453 453 465> 280 120<295 473 268 501> 560 120<332 592 332 332>
VStem: 65 555 243 144<-162.5 -71>
LayerCount: 2
Back
Fore
SplineSet
65 0 m 1xbc
 221 680 l 1
 620 680 l 1
 592 560 l 1
 332 560 l 1
 295 400 l 1
 501 400 l 1
 473 280 l 1
 268 280 l 1
 231 120 l 1
 492 120 l 1
 465 0 l 1
 453 0 l 1
 428 -18 387 -60 387 -82 c 0
 387 -89 390 -96 400 -96 c 0
 407 -96 437 -93 437 -93 c 1x7a
 424 -203 l 1
 424 -203 367 -214 326 -214 c 0
 275 -214 243 -188 243 -137 c 0
 243 -86 295 -31 333 0 c 1xba
 65 0 l 1xbc
EndSplineSet
Position2: "'cpsp' Capital Spacing in Latin lookup 0 subtable" dx=5 dy=0 dh=10 dv=0
EndChar
StartChar: eogonek
Encoding: 281 281 316
Width: 476
Flags: MW
HStem: -194 118<278.5 381.5> -12 114<192.5 322> 195 99<233 253 218 274> 403 108<318.5 364>
VStem: 81 134<141 167 141 248.5> 398 132<336.5 376>
LayerCount: 2
Back
Fore
SplineSet
415 -73 m 1
 402 -183 l 1
 402 -183 345 -194 304 -194 c 0
 253 -194 221 -168 221 -117 c 0
 221 -80 248 -42 277 -11 c 1
 268 -12 259 -12 250 -12 c 0
 135 -12 81 41 81 158 c 0
 81 339 160 511 355 511 c 0
 462 511 530 469 530 362 c 0
 530 231 444 195 253 195 c 2
 218 195 l 1
 216 187 215 173 215 161 c 0
 215 121 248 102 288 102 c 0
 356 102 454 115 454 115 c 1
 439 16 l 1
 439 16 430 13 419 10 c 1
 395 -10 365 -43 365 -62 c 0
 365 -69 368 -76 378 -76 c 0
 385 -76 415 -73 415 -73 c 1
233 294 m 1
 274 294 l 2
 368 294 398 313 398 360 c 0
 398 392 380 403 348 403 c 0
 289 403 250 366 233 294 c 1
EndSplineSet
EndChar
StartChar: Ecaron
Encoding: 282 282 41
Width: 497
Flags: MW
HStem: 0 120<231 465> 280 120<295 473 268 501> 560 120<332 592 332 332> 794 151<387 426 294 479 387 387>
VStem: 65 574
LayerCount: 2
Back
Fore
SplineSet
639 945 m 1
 479 794 l 1
 387 794 l 1
 294 945 l 1
 426 945 l 1
 455 888 l 1
 508 945 l 1
 639 945 l 1
65 0 m 1
 221 680 l 1
 620 680 l 1
 592 560 l 1
 332 560 l 1
 295 400 l 1
 501 400 l 1
 473 280 l 1
 268 280 l 1
 231 120 l 1
 492 120 l 1
 465 0 l 1
 65 0 l 1
EndSplineSet
Position2: "'cpsp' Capital Spacing in Latin lookup 0 subtable" dx=5 dy=0 dh=10 dv=0
EndChar
StartChar: ecaron
Encoding: 283 283 312
Width: 476
Flags: MW
HStem: -12 114<268 298> 195 99<233 253 218 274> 403 108<318.5 364> 575 175<323 364 241 408 323 323>
VStem: 81 134<141 167 141 248.5> 398 132<336.5 376>
LayerCount: 2
Back
Fore
SplineSet
288 102 m 0
 356 102 454 115 454 115 c 1
 439 16 l 1
 439 16 346 -12 250 -12 c 0
 135 -12 81 41 81 158 c 0
 81 339 160 511 355 511 c 0
 462 511 530 469 530 362 c 0
 530 231 444 195 253 195 c 2
 218 195 l 1
 216 187 215 173 215 161 c 0
 215 121 248 102 288 102 c 0
233 294 m 1
 274 294 l 2
 368 294 398 313 398 360 c 0
 398 392 380 403 348 403 c 0
 289 403 250 366 233 294 c 1
408 575 m 1
 323 575 l 1
 241 750 l 1
 364 750 l 1
 393 684 l 1
 446 750 l 1
 575 750 l 1
 408 575 l 1
EndSplineSet
EndChar
StartChar: Gbreve
Encoding: 286 286 50
Width: 568
Flags: MW
HStem: -12 120<314 361 314 390> 264 114<378 606 405 442> 572 120<378 498> 760 166<429.5 469 338 538>
VStem: 102 142<167.5 278 167.5 329> 338 131<913 926>
LayerCount: 2
Back
Fore
SplineSet
338 926 m 1
 469 926 l 1
 468 921 469 917 469 913 c 0
 471 893 485 882 511 882 c 0
 543 882 563 896 574 926 c 1
 705 926 l 1
 673 830 599 760 477 760 c 0
 382 760 340 813 336 882 c 0
 335 896 336 911 338 926 c 1
378 264 m 1
 405 378 l 1
 606 378 l 1
 521 14 l 1
 521 14 453 -12 327 -12 c 0
 180 -12 102 59 102 202 c 0
 102 456 215 692 465 692 c 0
 575 692 673 652 673 652 c 1
 641 552 l 1
 641 552 542 572 454 572 c 0
 302 572 244 355 244 201 c 0
 244 134 284 108 344 108 c 0
 378 108 407 113 407 113 c 1
 442 264 l 1
 378 264 l 1
EndSplineSet
Position2: "'cpsp' Capital Spacing in Latin lookup 0 subtable" dx=5 dy=0 dh=10 dv=0
EndChar
StartChar: Hbar
Encoding: 294 294 55
Width: 628
Flags: MW
HStem: 0 21G<69 201 69 69 427 559 427 427> 278 129<295 491 265 521> 481 119<115 207 143 180 143 312 339 538 697 731>
VStem: 69 692<0 600>
LayerCount: 2
Back
Fore
SplineSet
115 481 m 1
 115 484 l 1
 143 600 l 1
 207 600 l 1
 226 680 l 1
 358 680 l 1
 339 600 l 1
 565 600 l 1
 584 680 l 1
 716 680 l 1
 697 600 l 1
 761 600 l 1
 731 481 l 1
 670 481 l 1
 559 0 l 1
 427 0 l 1
 491 278 l 1
 265 278 l 1
 201 0 l 1
 69 0 l 1
 180 481 l 1
 115 481 l 1
295 407 m 1
 521 407 l 1
 538 481 l 1
 312 481 l 1
 295 407 l 1
EndSplineSet
Position2: "'cpsp' Capital Spacing in Latin lookup 0 subtable" dx=5 dy=0 dh=10 dv=0
EndChar
StartChar: Itilde
Encoding: 296 296 66
Width: 268
Flags: MW
HStem: 0 21G<65 65 65 203> 769 119<403.5 416> 812 118<245 259.5>
VStem: 65 440
LayerCount: 2
Back
Fore
SplineSet
503 926 m 1xd0
 505 832 l 1
 505 832 441 769 391 769 c 0xd0
 341 769 278 812 241 812 c 0
 216 812 157 773 157 773 c 1
 153 866 l 1
 153 866 221 930 269 930 c 0xb0
 329 930 391 888 416 888 c 0
 441 888 503 926 503 926 c 1xd0
65 0 m 1
 222 680 l 1
 360 680 l 1
 203 0 l 1
 65 0 l 1
EndSplineSet
Position2: "'cpsp' Capital Spacing in Latin lookup 0 subtable" dx=5 dy=0 dh=10 dv=0
EndChar
StartChar: itilde
Encoding: 297 297 323
Width: 243
Flags: MW
HStem: 0 21G<55 55 55 189> 480 20G<170 304 304 304> 590 118<325.5 336.5> 634 117<184 197.5> 688 20G<325.5 350>
VStem: 55 373
LayerCount: 2
Back
Fore
SplineSet
55 0 m 1xcc
 170 500 l 1
 304 500 l 1
 189 0 l 1
 55 0 l 1xcc
424 747 m 1
 428 654 l 1
 428 654 361 590 312 590 c 0xe4
 264 590 213 634 182 634 c 0
 155 634 96 594 96 594 c 1xd4
 93 686 l 1
 93 686 160 751 208 751 c 0
 263 751 313 708 338 708 c 0
 362 708 424 747 424 747 c 1
EndSplineSet
EndChar
StartChar: Imacron
Encoding: 298 298 64
Width: 268
Flags: MW
HStem: 0 21G<65 65 65 203> 817 109<150 502 175 477>
VStem: 65 437
LayerCount: 2
Back
Fore
SplineSet
150 817 m 1
 175 926 l 1
 502 926 l 1
 477 817 l 1
 150 817 l 1
65 0 m 1
 222 680 l 1
 360 680 l 1
 203 0 l 1
 65 0 l 1
EndSplineSet
Position2: "'cpsp' Capital Spacing in Latin lookup 0 subtable" dx=5 dy=0 dh=10 dv=0
EndChar
StartChar: imacron
Encoding: 299 299 324
Width: 243
Flags: MW
HStem: 0 21G<55 55 55 189> 480 20G<170 304 304 304> 627 109<101 435 126 409>
VStem: 55 380
LayerCount: 2
Back
Fore
SplineSet
55 0 m 1
 170 500 l 1
 304 500 l 1
 189 0 l 1
 55 0 l 1
101 627 m 1
 126 736 l 1
 435 736 l 1
 409 627 l 1
 101 627 l 1
EndSplineSet
EndChar
StartChar: Ibreve
Encoding: 300 300 59
Width: 268
Flags: MW
HStem: 0 21G<65 65 65 203> 783 144<267.5 304 182 375.5>
VStem: 65 449
LayerCount: 2
Back
Fore
SplineSet
182 927 m 1
 304 927 l 1
 300 899 313 888 339 888 c 0
 365 888 383 904 392 927 c 1
 514 927 l 1
 484 840 434 783 317 783 c 0
 218 783 170 835 182 927 c 1
65 0 m 1
 222 680 l 1
 360 680 l 1
 203 0 l 1
 65 0 l 1
EndSplineSet
Position2: "'cpsp' Capital Spacing in Latin lookup 0 subtable" dx=5 dy=0 dh=10 dv=0
EndChar
StartChar: ibreve
Encoding: 301 301 325
Width: 243
Flags: MW
HStem: 0 21G<55 55 55 189> 480 20G<170 304 304 304> 590 112<256.5 291 256.5 302> 590 156<190 233 112 302>
VStem: 109 124
LayerCount: 2
Back
Fore
SplineSet
55 0 m 1xe8
 170 500 l 1
 304 500 l 1
 189 0 l 1
 55 0 l 1xe8
112 746 m 1xd8
 233 746 l 1xd8
 231 723 238 702 275 702 c 0xe8
 307 702 327 716 338 746 c 1
 459 746 l 1xd8
 427 650 363 590 241 590 c 0xe8
 139 590 98 643 112 746 c 1xd8
EndSplineSet
EndChar
StartChar: Iogonek
Encoding: 302 302 65
Width: 268
Flags: MW
HStem: -214 21G<38.5 84.5> -214 118<38.5 141.5> 0 21G<65 65 65 71 203 203>
VStem: -19 144<-162.5 -70>
LayerCount: 2
Back
Fore
SplineSet
65 0 m 1xb0
 222 680 l 1
 360 680 l 1
 203 0 l 1
 170 -14 125 -58 125 -82 c 0
 125 -89 128 -96 138 -96 c 0
 145 -96 175 -93 175 -93 c 1x70
 162 -203 l 1
 162 -203 105 -214 64 -214 c 0
 13 -214 -19 -188 -19 -137 c 0
 -19 -86 33 -31 71 0 c 1
 65 0 l 1xb0
EndSplineSet
Position2: "'cpsp' Capital Spacing in Latin lookup 0 subtable" dx=5 dy=0 dh=10 dv=0
EndChar
StartChar: iogonek
Encoding: 303 303 326
Width: 243
Flags: MW
HStem: -214 118<20.5 123.5> 480 20G<170 304 304 304> 552 137<181 348 213 317>
VStem: -37 144<-162.5 -70>
LayerCount: 2
Back
Fore
SplineSet
157 -93 m 1
 144 -203 l 1
 144 -203 87 -214 46 -214 c 0
 -5 -214 -37 -188 -37 -137 c 0
 -37 -85 17 -28 55 2 c 1
 170 500 l 1
 304 500 l 1
 189 0 l 1
 156 -17 107 -58 107 -82 c 0
 107 -89 110 -96 120 -96 c 0
 127 -96 157 -93 157 -93 c 1
181 552 m 1
 213 689 l 1
 348 689 l 1
 317 552 l 1
 181 552 l 1
EndSplineSet
EndChar
StartChar: Idotaccent
Encoding: 304 304 62
Width: 268
Flags: MW
HStem: 0 21G<65 65 65 203> 771 138<251 401 283 367>
VStem: 65 336
LayerCount: 2
Back
Fore
SplineSet
251 771 m 1
 283 909 l 1
 401 909 l 1
 367 771 l 1
 251 771 l 1
65 0 m 1
 222 680 l 1
 360 680 l 1
 203 0 l 1
 65 0 l 1
EndSplineSet
Position2: "'cpsp' Capital Spacing in Latin lookup 0 subtable" dx=5 dy=0 dh=10 dv=0
EndChar
StartChar: dotlessi
Encoding: 305 305 184
Width: 244
Flags: MW
HStem: 0 21G<55 55 55 189> 480 20G<170 304 304 304>
VStem: 55 249
LayerCount: 2
Back
Fore
SplineSet
55 0 m 1
 170 500 l 1
 304 500 l 1
 189 0 l 1
 55 0 l 1
EndSplineSet
EndChar
StartChar: Jcircumflex
Encoding: 308 308 68
Width: 283
Flags: MW
HStem: 779 152<144 400 374 374 374 400 320 496>
VStem: 6 490
LayerCount: 2
Back
Fore
SplineSet
378 680 m 1
 252 135 l 2
 210 -47 181 -69 6 -69 c 1
 29 51 l 1
 82 53 96 57 114 135 c 2
 240 680 l 1
 378 680 l 1
144 779 m 1
 320 931 l 1
 400 931 l 1
 496 779 l 1
 374 779 l 1
 348 834 l 1
 286 779 l 1
 144 779 l 1
EndSplineSet
Position2: "'cpsp' Capital Spacing in Latin lookup 0 subtable" dx=5 dy=0 dh=10 dv=0
EndChar
StartChar: jcircumflex
Encoding: 309 309 327
Width: 243
Flags: MW
HStem: -230 21G<-28 -28> 480 20G<170 304 304 304> 575 175<80 328 80 328 292 292 292 328 248 414>
VStem: -70 484
LayerCount: 2
Back
Fore
SplineSet
55 0 m 2
 170 500 l 1
 304 500 l 1
 189 0 l 2
 157 -138 147 -153 -28 -230 c 1
 -70 -123 l 1
 34 -69 41 -61 55 0 c 2
80 575 m 1
 248 750 l 1
 328 750 l 1
 414 575 l 1
 292 575 l 1
 268 639 l 1
 210 575 l 1
 80 575 l 1
EndSplineSet
EndChar
StartChar: Lacute
Encoding: 313 313 72
Width: 422
Flags: MW
HStem: 0 120<231 419>
VStem: 65 499
LayerCount: 2
Back
Fore
SplineSet
300 765 m 1
 290 871 l 1
 554 962 l 1
 564 842 l 1
 300 765 l 1
419 0 m 1
 65 0 l 1
 222 680 l 1
 360 680 l 1
 231 120 l 1
 446 120 l 1
 419 0 l 1
EndSplineSet
Position2: "'cpsp' Capital Spacing in Latin lookup 0 subtable" dx=5 dy=0 dh=10 dv=0
EndChar
StartChar: Lcommaaccent
Encoding: 315 315 74
Width: 422
Flags: MW
HStem: -72 192<165 446 231 288> 0 120<231 419>
VStem: 65 381<0 120>
LayerCount: 2
Back
Fore
SplineSet
165 -72 m 1xa0
 68 -309 l 1
 181 -309 l 1
 288 -72 l 1
 165 -72 l 1xa0
419 0 m 1x60
 65 0 l 1
 222 680 l 1
 360 680 l 1
 231 120 l 1
 446 120 l 1
 419 0 l 1x60
EndSplineSet
Position2: "'cpsp' Capital Spacing in Latin lookup 0 subtable" dx=5 dy=0 dh=10 dv=0
EndChar
StartChar: Lcaron
Encoding: 317 317 73
Width: 464
Flags: MW
HStem: 0 120<231 419> 429 251<468 530 222 407>
VStem: 65 525
LayerCount: 2
Back
Fore
SplineSet
590 680 m 1
 530 429 l 1
 407 429 l 1
 468 680 l 1
 590 680 l 1
419 0 m 1
 65 0 l 1
 222 680 l 1
 360 680 l 1
 231 120 l 1
 446 120 l 1
 419 0 l 1
EndSplineSet
Position2: "'cpsp' Capital Spacing in Latin lookup 0 subtable" dx=5 dy=0 dh=10 dv=0
EndChar
StartChar: lcaron
Encoding: 318 318 330
Width: 353
Flags: MW
HStem: 0 21G<55 55 55 189> 429 251<398 460 337 520> 429 271<337 350 216 460 337 337>
VStem: 55 465
LayerCount: 2
Back
Fore
SplineSet
520 680 m 1xd0
 460 429 l 1
 337 429 l 1xb0
 398 680 l 1
 520 680 l 1xd0
55 0 m 1
 216 700 l 1
 350 700 l 1
 189 0 l 1
 55 0 l 1
EndSplineSet
EndChar
StartChar: Lslash
Encoding: 321 321 75
Width: 423
Flags: MW
HStem: 0 120<233 421> 486 20G<404 404>
VStem: 46 402<120 284>
LayerCount: 2
Back
Fore
SplineSet
421 0 m 1
 67 0 l 1
 115 208 l 1
 87 191 l 1
 46 284 l 1
 147 346 l 1
 224 680 l 1
 362 680 l 1
 308 446 l 1
 404 506 l 1
 445 414 l 1
 276 309 l 1
 233 120 l 1
 448 120 l 1
 421 0 l 1
EndSplineSet
Position2: "'cpsp' Capital Spacing in Latin lookup 0 subtable" dx=5 dy=0 dh=10 dv=0
EndChar
StartChar: lslash
Encoding: 322 322 190
Width: 292
Flags: MW
HStem: 0 21G<77 77 77 211> 680 20G<238 372 372 372>
VStem: 49 348<290 389>
LayerCount: 2
Back
Fore
SplineSet
77 0 m 1
 127 220 l 1
 90 197 l 1
 49 290 l 1
 159 359 l 1
 238 700 l 1
 372 700 l 1
 316 456 l 1
 356 481 l 1
 397 389 l 1
 284 318 l 1
 211 0 l 1
 77 0 l 1
EndSplineSet
EndChar
StartChar: nacute
Encoding: 324 324 332
Width: 513
Flags: MW
HStem: 683 21G<278 278>
VStem: 55 497
LayerCount: 2
Back
Fore
SplineSet
55 0 m 1
 189 0 l 1
 266 336 l 1
 266 336 329 396 361 396 c 0
 398 396 402 375 402 338 c 0
 402 315 390 260 384 235 c 2
 330 0 l 1
 464 0 l 1
 520 245 l 2
 527 275 541 338 541 371 c 0
 541 449 510 512 419 512 c 0
 353 512 292 451 292 451 c 1
 298 500 l 1
 170 500 l 1
 55 0 l 1
288 576 m 1
 278 683 l 1
 542 774 l 1
 552 654 l 1
 288 576 l 1
EndSplineSet
EndChar
StartChar: ncaron
Encoding: 328 328 333
Width: 513
Flags: MW
HStem: 0 21G<55 189 55 55 330 330 330 464> 396 104<170 379.5> 396 116<345 464.5> 451 49<292 292> 575 175<344 385 262 429 344 344>
VStem: 402 139<354.5 356.5>
LayerCount: 2
Back
Fore
SplineSet
189 0 m 1x9c
 55 0 l 1
 170 500 l 1
 298 500 l 1
 292 451 l 1x9c
 292 451 353 512 419 512 c 0xac
 510 512 541 449 541 371 c 0
 541 338 527 275 520 245 c 2
 464 0 l 1
 330 0 l 1
 384 235 l 2
 390 260 402 315 402 338 c 0
 402 375 398 396 361 396 c 0
 329 396 266 336 266 336 c 1xcc
 189 0 l 1x9c
429 575 m 1
 344 575 l 1
 262 750 l 1
 385 750 l 1
 414 684 l 1
 467 750 l 1
 596 750 l 1
 429 575 l 1
EndSplineSet
EndChar
StartChar: Eng
Encoding: 330 330 300
Width: 651
Flags: MW
HStem: -210 21G<345 430.5> 0 21G<65 195 65 65 378 454 378 378> 0 147<378 488 378 488> 543 137<322 334 322 322>
VStem: 65 678
LayerCount: 2
Back
Fore
SplineSet
711 539 m 1xd8
 585 -6 l 2
 543 -188 516 -210 345 -210 c 1
 368 -90 l 1
 421 -88 435 -84 453 -6 c 1
 454 0 l 1
 378 0 l 1
 334 543 l 1
 322 543 l 1
 195 0 l 1
 65 0 l 1
 222 680 l 1
 441 680 l 1
 477 147 l 1
 488 147 l 1xb8
 518 277 l 1
 610 680 l 1
 743 680 l 1
 710 539 l 1
 711 539 l 1xd8
EndSplineSet
Position2: "'cpsp' Capital Spacing in Latin lookup 0 subtable" dx=5 dy=0 dh=10 dv=0
EndChar
StartChar: eng
Encoding: 331 331 448
Width: 502
Flags: MW
HStem: 0 21G<52 179 52 52> 386 113<170 368.5> 491 20G<386.5 445.5>
VStem: 397 134
LayerCount: 2
Back
Fore
SplineSet
179 0 m 1xb0
 52 0 l 1
 170 499 l 1
 297 499 l 1xd0
 285 452 l 1
 315 475 362 511 411 511 c 0
 480 511 517 478 527 422 c 0xb0
 537 366 526 313 514 261 c 2
 453 7 l 2
 421 -125 378 -180 226 -246 c 1
 194 -132 l 1
 295 -81 310 -66 326 2 c 2
 388 261 l 2
 396 293 400 325 397 349 c 0
 394 371 382 386 355 386 c 0
 324 386 259 342 259 342 c 1xd0
 179 0 l 1xb0
EndSplineSet
EndChar
StartChar: Obreve
Encoding: 334 334 84
Width: 615
Flags: MW
HStem: -12 120<303 350.5> 572 120<417 467.5> 783 144<428.5 465 343 536.5>
VStem: 101 142<173.5 260 173.5 279> 527 142<413 506.5>
LayerCount: 2
Back
Fore
SplineSet
343 927 m 1
 465 927 l 1
 461 899 474 888 500 888 c 0
 526 888 544 904 553 927 c 1
 675 927 l 1
 645 840 595 783 478 783 c 0
 379 783 331 835 343 927 c 1
339 108 m 0
 370 108 400 119 423 142 c 0
 489 208 527 356 527 470 c 0
 527 543 503 572 432 572 c 0
 402 572 373 564 351 542 c 0
 280 472 243 310 243 210 c 0
 243 137 267 108 339 108 c 0
315 -12 m 0
 183 -12 101 52 101 196 c 0
 101 362 151 533 257 625 c 0
 308 669 373 692 448 692 c 0
 583 692 669 631 669 484 c 0
 669 312 619 135 505 46 c 0
 456 8 386 -12 315 -12 c 0
EndSplineSet
Position2: "'cpsp' Capital Spacing in Latin lookup 0 subtable" dx=5 dy=0 dh=10 dv=0
EndChar
StartChar: obreve
Encoding: 335 335 336
Width: 496
Flags: MW
HStem: -12 114<256 315 256 361> 397 114<295 354> 590 112<368.5 403 368.5 414> 590 156<302 345 224 414>
VStem: 80 133<152 227 152 254> 221 124 397 133<272 347>
LayerCount: 2
Back
Fore
SplineSet
333 511 m 0xea
 457 511 530 456 530 322 c 0
 530 168 445 -12 277 -12 c 0
 153 -12 80 43 80 177 c 0
 80 331 173 511 333 511 c 0xea
277 102 m 0
 353 102 397 220 397 324 c 0
 397 370 375 397 333 397 c 0
 257 397 213 279 213 175 c 0
 213 129 235 102 277 102 c 0
224 746 m 1xda
 345 746 l 1xde
 343 723 350 702 387 702 c 0xee
 419 702 439 716 450 746 c 1
 571 746 l 1xda
 539 650 475 590 353 590 c 0xee
 251 590 210 643 224 746 c 1xda
EndSplineSet
EndChar
StartChar: OE
Encoding: 338 338 93
Width: 831
Flags: MW
HStem: -12 21G<219 296> 0 120<294 796 294 395> 0 131<551 796> 278 124 559 131<653 929 653 653> 570 132<389 449>
VStem: 95 137
LayerCount: 2
Back
Fore
SplineSet
796 0 m 1x36
 395 0 l 1x36
 358 -6 313 -12 279 -12 c 0
 159 -12 102 45 95 151 c 0
 92 204 99 268 117 345 c 0
 176 595 285 702 447 702 c 0x96
 480 702 522 696 555 690 c 1
 959 690 l 1
 929 559 l 1
 653 559 l 1x3a
 614 402 l 1
 834 402 l 1
 805 277 l 1
 586 279 l 1
 551 131 l 1
 826 131 l 1
 796 0 l 1x36
328 120 m 0x56
 349 120 388 123 421 126 c 1
 526 564 l 1
 509 566 465 570 433 570 c 0
 345 570 292 514 252 345 c 0
 239 291 232 249 232 215 c 0
 232 148 260 120 328 120 c 0x56
EndSplineSet
Position2: "'cpsp' Capital Spacing in Latin lookup 0 subtable" dx=5 dy=0 dh=10 dv=0
EndChar
StartChar: oe
Encoding: 339 339 226
Width: 759
Flags: MW
HStem: -12 121<546.5 578.5> 193 102 389 122<619 644> 392 119<299 357.5>
VStem: 76 129 681 115
LayerCount: 2
Back
Fore
SplineSet
568 109 m 0xdc
 637 109 741 118 741 118 c 1
 718 16 l 1
 718 16 627 -12 530 -12 c 0
 467 -12 420 4 395 37 c 1
 353 6 305 -12 239 -12 c 0
 137 -12 91 35 80 105 c 0
 72 152 76 201 88 250 c 0
 123 389 185 511 362 511 c 0
 430 511 471 491 498 457 c 1
 540 493 588 511 650 511 c 0
 747 511 798 465 806 390 c 0
 809 361 809 324 796 284 c 2
 767 192 l 1
 499 194 l 1
 495 177 494 162 497 149 c 0
 503 124 525 109 568 109 c 0xdc
266 107 m 0
 348 107 370 193 387 257 c 0
 393 279 397 303 397 329 c 0
 397 370 381 392 334 392 c 0
 264 392 236 330 217 250 c 0
 207 209 202 173 208 147 c 0
 214 122 230 107 266 107 c 0
522 296 m 1
 674 294 l 1
 681 321 684 343 681 358 c 0
 677 380 662 389 626 389 c 0xec
 564 389 536 356 522 296 c 1
EndSplineSet
EndChar
StartChar: Racute
Encoding: 340 340 97
Width: 559
Flags: MW
HStem: 334 228<333 369 280 410> 680 21G<222 418 222 222>
VStem: 65 563<0 555.5>
LayerCount: 2
Back
Fore
SplineSet
348 216 m 1
 393 0 l 1
 531 0 l 1
 476 235 l 1
 559 268 628 356 628 486 c 0
 628 625 559 680 418 680 c 2
 222 680 l 1
 65 0 l 1
 203 0 l 1
 253 216 l 1
 348 216 l 1
486 480 m 0
 486 405 444 334 369 334 c 2
 280 334 l 1
 333 562 l 1
 410 562 l 2
 467 562 486 537 486 480 c 0
331 765 m 1
 321 871 l 1
 585 962 l 1
 595 842 l 1
 331 765 l 1
EndSplineSet
Position2: "'cpsp' Capital Spacing in Latin lookup 0 subtable" dx=5 dy=0 dh=10 dv=0
EndChar
StartChar: racute
Encoding: 341 341 338
Width: 334
Flags: MW
HStem: 0 21G<55 55 55 189> 428 72<285 285> 492 20G<442 442> 683 21G<177 177>
VStem: 55 396
LayerCount: 2
Back
Fore
SplineSet
55 0 m 1xb8
 170 500 l 1
 303 500 l 1
 285 428 l 1xd8
 285 428 367 502 442 512 c 1
 403 372 l 1
 354 357 262 315 262 315 c 1
 189 0 l 1
 55 0 l 1xb8
187 576 m 1
 177 683 l 1
 441 774 l 1
 451 654 l 1
 187 576 l 1
EndSplineSet
EndChar
StartChar: rcommaaccent
Encoding: 343 343 339
Width: 334
Flags: MW
HStem: 0 21G<55 55 55 189> 428 72<285 285> 492 20G<442 442>
VStem: -44 486
LayerCount: 2
Back
Fore
SplineSet
55 0 m 1xb0
 170 500 l 1
 303 500 l 1
 285 428 l 1xd0
 285 428 367 502 442 512 c 1
 403 372 l 1
 354 357 262 315 262 315 c 1
 189 0 l 1
 55 0 l 1xb0
53 -72 m 1
 -44 -309 l 1
 69 -309 l 1
 176 -72 l 1
 53 -72 l 1
EndSplineSet
EndChar
StartChar: Rcaron
Encoding: 344 344 98
Width: 559
Flags: MW
HStem: 334 228<333 369 280 410> 680 247<282 414 282 418 222 414> 776 151<375 414 282 467 375 375>
VStem: 65 563<0 555.5>
LayerCount: 2
Back
Fore
SplineSet
627 927 m 1xd0
 467 776 l 1
 375 776 l 1xb0
 282 927 l 1
 414 927 l 1
 443 870 l 1
 496 927 l 1
 627 927 l 1xd0
348 216 m 1
 393 0 l 1
 531 0 l 1
 476 235 l 1
 559 268 628 356 628 486 c 0
 628 625 559 680 418 680 c 2
 222 680 l 1xd0
 65 0 l 1
 203 0 l 1
 253 216 l 1
 348 216 l 1
486 480 m 0
 486 405 444 334 369 334 c 2
 280 334 l 1
 333 562 l 1
 410 562 l 2
 467 562 486 537 486 480 c 0
EndSplineSet
Position2: "'cpsp' Capital Spacing in Latin lookup 0 subtable" dx=5 dy=0 dh=10 dv=0
EndChar
StartChar: rcaron
Encoding: 345 345 340
Width: 334
Flags: MW
HStem: 0 21G<55 55 55 189> 428 72<285 285> 492 20G<442 442> 575 175<251 292 169 336 251 251>
VStem: 55 448
LayerCount: 2
Back
Fore
SplineSet
55 0 m 1xb8
 170 500 l 1
 303 500 l 1
 285 428 l 1xd8
 285 428 367 502 442 512 c 1
 403 372 l 1
 354 357 262 315 262 315 c 1
 189 0 l 1
 55 0 l 1xb8
336 575 m 1
 251 575 l 1
 169 750 l 1
 292 750 l 1
 321 684 l 1
 374 750 l 1
 503 750 l 1
 336 575 l 1
EndSplineSet
EndChar
StartChar: sacute
Encoding: 347 347 341
Width: 432
Flags: MW
HStem: -12 114<200.5 261.5 200.5 284> 397 114<281.5 334.5> 683 21G<246 246>
VStem: 106 134<337 361.5 337 378> 307 137<137 160>
LayerCount: 2
Back
Fore
SplineSet
494 480 m 1
 470 381 l 1
 470 381 367 397 302 397 c 0
 261 397 240 375 240 348 c 0
 240 326 257 318 311 301 c 0
 396 274 444 255 444 178 c 0
 444 48 349 -12 219 -12 c 0
 122 -12 46 22 46 22 c 1
 71 120 l 1
 71 120 167 102 234 102 c 0
 289 102 307 123 307 151 c 0
 307 169 287 177 245 189 c 0
 160 213 106 241 106 313 c 0
 106 443 206 511 314 511 c 0
 420 511 494 480 494 480 c 1
256 576 m 1
 246 683 l 1
 510 774 l 1
 520 654 l 1
 256 576 l 1
EndSplineSet
EndChar
StartChar: Scedilla
Encoding: 350 350 103
Width: 495
Flags: MW
HStem: -229 91<205.5 221 200 260.5> -218 21G<142 142> -94 61<197 266> -10 21G<215 215> 574 118<351 416>
VStem: 146 140<466.5 511.5 466.5 532> 250 109 375 140<169.5 226>
LayerCount: 2
Back
Fore
SplineSet
586 654 m 1x9d
 561 556 l 1
 561 556 451 574 381 574 c 0
 321 574 286 538 286 485 c 0
 286 448 297 436 379 399 c 0
 491 349 515 312 515 223 c 0x9d
 515 71 415 -9 266 -12 c 1
 260 -33 l 1
 266 -33 l 2
 327 -33 372 -51 355 -124 c 0
 339 -192 295 -229 226 -229 c 0xbb
 185 -229 142 -218 142 -218 c 1x5d
 162 -137 l 1
 162 -137 192 -138 208 -138 c 0
 234 -138 246 -130 250 -114 c 0
 255 -96 241 -94 219 -94 c 2
 197 -94 l 1xbb
 215 -10 l 1x9b
 126 -1 50 29 50 29 c 1
 73 128 l 1
 73 128 186 108 256 108 c 0
 331 108 375 132 375 207 c 0
 375 245 362 257 274 297 c 0
 184 338 146 379 146 469 c 0
 146 595 234 692 377 692 c 0
 486 692 586 654 586 654 c 1x9d
EndSplineSet
Substitution2: "'locl' Localized Forms in Latin lookup 0 subtable" Scommaaccent
Position2: "'cpsp' Capital Spacing in Latin lookup 0 subtable" dx=5 dy=0 dh=10 dv=0
EndChar
StartChar: scedilla
Encoding: 351 351 343
Width: 434
Flags: MW
HStem: -229 91<166.5 182 161 221.5> -218 21G<103 103> -94 61<158 227> -10 21G<176 176> 397 114<282.5 335.5>
VStem: 107 134<337 361.5 337 378> 211 109 308 137<137 160>
LayerCount: 2
Back
Fore
SplineSet
316 -124 m 0xba
 300 -192 256 -229 187 -229 c 0x9a
 146 -229 103 -218 103 -218 c 1x5d
 123 -137 l 1
 123 -137 153 -138 169 -138 c 0
 195 -138 207 -130 211 -114 c 0
 216 -96 202 -94 180 -94 c 2
 158 -94 l 1xba
 176 -10 l 1x9a
 101 -2 47 22 47 22 c 1
 72 120 l 1
 72 120 168 102 235 102 c 0
 290 102 308 123 308 151 c 0
 308 169 288 177 246 189 c 0
 161 213 107 241 107 313 c 0
 107 443 207 511 315 511 c 0
 421 511 495 480 495 480 c 1
 471 381 l 1
 471 381 368 397 303 397 c 0
 262 397 241 375 241 348 c 0
 241 326 258 318 312 301 c 0
 397 274 445 255 445 178 c 0x9d
 445 50 353 -10 227 -12 c 1
 221 -33 l 1
 227 -33 l 2
 288 -33 333 -51 316 -124 c 0xba
EndSplineSet
Substitution2: "'locl' Localized Forms in Latin lookup 0 subtable" scommaaccent
EndChar
StartChar: Tcedilla
Encoding: 354 354 450
Width: 456
Flags: MW
HStem: -229 91<191.5 207 186 246.5> -218 21G<128 128> -94 61<183 252> 0 21G<158 204 158 158 255 255 255 296> 560 120<166 287 138 604 425 425 425 576>
VStem: 236 109
LayerCount: 2
Back
Fore
SplineSet
341 -124 m 0xbc
 325 -192 281 -229 212 -229 c 0xbc
 171 -229 128 -218 128 -218 c 1x7c
 148 -137 l 1
 148 -137 178 -138 194 -138 c 0
 220 -138 232 -130 236 -114 c 0
 241 -96 227 -94 205 -94 c 2
 183 -94 l 1
 204 0 l 1
 158 0 l 1
 287 560 l 1
 138 560 l 1
 166 680 l 1
 604 680 l 1
 576 560 l 1
 425 560 l 1
 296 0 l 1
 255 0 l 1
 246 -33 l 1
 252 -33 l 2
 313 -33 358 -51 341 -124 c 0xbc
EndSplineSet
Substitution2: "'locl' Localized Forms in Latin lookup 0 subtable" Tcommaaccent
EndChar
StartChar: tcedilla
Encoding: 355 355 451
Width: 329
Flags: MW
HStem: -229 91<154.5 170 149 209.5> -218 21G<91 91> -94 61<146 215> -4 21G<166 166> 386 114<134 158 104 185 134 292 319 396>
VStem: 99 139<73 137> 199 109
LayerCount: 2
Back
Fore
SplineSet
304 -124 m 0xba
 288 -192 244 -229 175 -229 c 0x9a
 134 -229 91 -218 91 -218 c 1x5a
 111 -137 l 1
 111 -137 141 -138 157 -138 c 0
 183 -138 195 -130 199 -114 c 0
 204 -96 190 -94 168 -94 c 2
 146 -94 l 1xba
 166 -4 l 1
 121 11 99 50 99 96 c 0
 99 127 106 165 114 198 c 2
 158 386 l 1
 104 386 l 1
 134 500 l 1
 185 500 l 1
 214 628 l 1
 348 628 l 1
 319 500 l 1
 424 500 l 1
 396 386 l 1
 292 386 l 1
 246 186 l 2
 242 169 238 144 238 130 c 0
 238 111 246 102 267 102 c 0
 293 102 335 107 335 107 c 1
 324 11 l 1
 324 11 273 -11 215 -12 c 1x9c
 209 -33 l 1
 215 -33 l 2
 276 -33 321 -51 304 -124 c 0xba
EndSplineSet
Substitution2: "'locl' Localized Forms in Latin lookup 0 subtable" tcommaaccent
EndChar
StartChar: Tcaron
Encoding: 356 356 108
Width: 456
Flags: MW
HStem: 0 21G<158 296 158 158> 560 120<138 604 166 287 425 425 425 576> 776 151<343 382 250 435 343 343>
VStem: 138 466<560 680>
LayerCount: 2
Back
Fore
SplineSet
595 927 m 1
 435 776 l 1
 343 776 l 1
 250 927 l 1
 382 927 l 1
 411 870 l 1
 464 927 l 1
 595 927 l 1
138 560 m 1
 166 680 l 1
 604 680 l 1
 576 560 l 1
 425 560 l 1
 296 0 l 1
 158 0 l 1
 287 560 l 1
 138 560 l 1
EndSplineSet
Position2: "'cpsp' Capital Spacing in Latin lookup 0 subtable" dx=5 dy=0 dh=10 dv=0
EndChar
StartChar: tcaron
Encoding: 357 357 345
Width: 464
Flags: MW
HStem: -12 114<174.5 280> 386 114<134 158 104 185 319 396 134 292> 429 71
VStem: 99 139<66.5 137> 99 532
LayerCount: 2
Back
Fore
SplineSet
631 680 m 1xa8
 571 429 l 1
 448 429 l 1
 509 680 l 1
 631 680 l 1xa8
396 386 m 1xc8
 292 386 l 1
 246 186 l 2
 242 169 238 144 238 130 c 0
 238 111 246 102 267 102 c 0
 293 102 335 107 335 107 c 1
 324 11 l 1
 324 11 271 -12 212 -12 c 0
 137 -12 99 37 99 96 c 0
 99 127 106 165 114 198 c 2
 158 386 l 1
 104 386 l 1xd0
 134 500 l 1
 185 500 l 1xb0
 214 628 l 1
 348 628 l 1
 319 500 l 1
 424 500 l 1xa8
 396 386 l 1xc8
EndSplineSet
EndChar
StartChar: Tbar
Encoding: 358 358 107
Width: 461
Flags: MW
HStem: 0 21G<161 299 161 161> 248 119<124 218 97 245 383 482 124 356> 560 120<141 607 169 290 428 428 428 579>
VStem: 97 510<248 680>
LayerCount: 2
Back
Fore
SplineSet
141 560 m 1
 169 680 l 1
 607 680 l 1
 579 560 l 1
 428 560 l 1
 383 367 l 1
 511 367 l 1
 482 248 l 1
 356 248 l 1
 299 0 l 1
 161 0 l 1
 218 248 l 1
 97 248 l 1
 124 367 l 1
 245 367 l 1
 290 560 l 1
 141 560 l 1
EndSplineSet
Position2: "'cpsp' Capital Spacing in Latin lookup 0 subtable" dx=5 dy=0 dh=10 dv=0
EndChar
StartChar: tbar
Encoding: 359 359 347
Width: 332
Flags: MW
HStem: -12 114<176.5 282> 200 116<91 116 66 143 278 344 91 251> 386 114<136 160 106 187 321 398 136 294>
VStem: 66 360<200 500> 101 139<66.5 137>
LayerCount: 2
Back
Fore
SplineSet
398 386 m 1xf0
 294 386 l 1
 278 316 l 1
 369 316 l 1
 344 200 l 1
 251 200 l 1
 248 186 l 2
 244 169 240 144 240 130 c 0
 240 111 248 102 269 102 c 0
 295 102 337 107 337 107 c 1
 326 11 l 1
 326 11 273 -12 214 -12 c 0
 139 -12 101 37 101 96 c 0
 101 127 108 165 116 198 c 1
 116 200 l 1
 66 200 l 1
 91 316 l 1
 143 316 l 1
 160 386 l 1
 106 386 l 1
 136 500 l 1
 187 500 l 1xe8
 216 628 l 1
 350 628 l 1
 321 500 l 1
 426 500 l 1
 398 386 l 1xf0
EndSplineSet
EndChar
StartChar: Utilde
Encoding: 360 360 120
Width: 595
Flags: MW
HStem: -12 120<297 365.5 297 390> 779 119<550.5 563> 822 118<392 406.5>
VStem: 103 137<141.5 160>
LayerCount: 2
Back
Fore
SplineSet
650 936 m 1xd0
 652 842 l 1
 652 842 588 779 538 779 c 0xd0
 488 779 425 822 388 822 c 0
 363 822 304 783 304 783 c 1
 300 876 l 1
 300 876 368 940 416 940 c 0xb0
 476 940 538 898 563 898 c 0
 588 898 650 936 650 936 c 1xd0
353 680 m 1
 249 231 l 2
 244 210 240 189 240 165 c 0
 240 118 272 108 322 108 c 0
 409 108 432 147 451 231 c 2
 555 680 l 1
 693 680 l 1
 589 231 l 2
 550 61 470 -12 310 -12 c 0
 186 -12 103 36 103 142 c 0
 103 178 109 221 116 253 c 2
 215 680 l 1
 353 680 l 1
EndSplineSet
Position2: "'cpsp' Capital Spacing in Latin lookup 0 subtable" dx=5 dy=0 dh=10 dv=0
EndChar
StartChar: utilde
Encoding: 361 361 348
Width: 513
Flags: MW
HStem: -12 116<163.5 283> 0 104<250 458 250 330> 480 20G<164 298 298 298 439 573 573 573> 590 118<460.5 471.5> 634 117<319 332.5> 688 20G<460.5 485>
VStem: 87 139<143.5 145.5> 87 486<90 500>
LayerCount: 2
Back
Fore
SplineSet
559 747 m 1x65
 563 654 l 1
 563 654 496 590 447 590 c 0x71
 399 590 348 634 317 634 c 0
 290 634 231 594 231 594 c 1x69
 228 686 l 1
 228 686 295 751 343 751 c 0
 398 751 448 708 473 708 c 0
 497 708 559 747 559 747 c 1x65
439 500 m 1
 573 500 l 1
 458 0 l 1
 330 0 l 1x65
 336 49 l 1
 336 49 275 -12 209 -12 c 0xa6
 118 -12 87 51 87 129 c 0
 87 162 101 226 108 255 c 2
 164 500 l 1
 298 500 l 1
 244 265 l 2
 238 240 226 185 226 162 c 0
 226 125 233 104 267 104 c 0x66
 299 104 362 164 362 164 c 1
 439 500 l 1
EndSplineSet
EndChar
StartChar: umacron
Encoding: 363 363 349
Width: 513
Flags: MW
HStem: -12 116<163.5 283> 0 104<250 458 250 330> 480 20G<164 298 298 298 439 573 573 573> 627 109<230 564 255 538>
VStem: 87 139<143.5 145.5> 87 486<90 500>
LayerCount: 2
Back
Fore
SplineSet
439 500 m 1x74
 573 500 l 1
 458 0 l 1
 330 0 l 1x74
 336 49 l 1
 336 49 275 -12 209 -12 c 0xb8
 118 -12 87 51 87 129 c 0
 87 162 101 226 108 255 c 2
 164 500 l 1
 298 500 l 1
 244 265 l 2
 238 240 226 185 226 162 c 0
 226 125 233 104 267 104 c 0x78
 299 104 362 164 362 164 c 1
 439 500 l 1x74
230 627 m 1
 255 736 l 1
 564 736 l 1
 538 627 l 1
 230 627 l 1
EndSplineSet
EndChar
StartChar: ubreve
Encoding: 365 365 350
Width: 513
Flags: MW
HStem: -12 116<163.5 283> 0 104<250 458 250 330> 480 20G<164 298 298 298 439 573 573 573> 590 112<385.5 420 385.5 431> 590 156<319 362 241 431>
VStem: 87 139<143.5 145.5> 238 124
LayerCount: 2
Back
Fore
SplineSet
439 500 m 1x72
 573 500 l 1
 458 0 l 1
 330 0 l 1x6a
 336 49 l 1
 336 49 275 -12 209 -12 c 0xb6
 118 -12 87 51 87 129 c 0
 87 162 101 226 108 255 c 2
 164 500 l 1
 298 500 l 1
 244 265 l 2
 238 240 226 185 226 162 c 0
 226 125 233 104 267 104 c 0x76
 299 104 362 164 362 164 c 1
 439 500 l 1x72
241 746 m 1
 362 746 l 1x6a
 360 723 367 702 404 702 c 0x72
 436 702 456 716 467 746 c 1
 588 746 l 1x6a
 556 650 492 590 370 590 c 0x72
 268 590 227 643 241 746 c 1
EndSplineSet
EndChar
StartChar: Uring
Encoding: 366 366 119
Width: 595
Flags: MW
HStem: -12 120<297 365.5 297 390> 718 86<467 493.5 467 498> 866 86<481.5 503>
VStem: 103 137<141.5 160> 353 90 532 91
LayerCount: 2
Back
Fore
SplineSet
619 835 m 0
 600 757 537 718 459 718 c 0
 386 718 337 756 357 835 c 0
 377 916 441 952 517 952 c 0
 588 952 639 918 619 835 c 0
443 835 m 0
 439 816 454 804 480 804 c 0
 507 804 528 816 532 835 c 0
 538 860 511 866 495 866 c 0
 468 866 448 854 443 835 c 0
353 680 m 1
 249 231 l 2
 244 210 240 189 240 165 c 0
 240 118 272 108 322 108 c 0
 409 108 432 147 451 231 c 2
 555 680 l 1
 693 680 l 1
 589 231 l 2
 550 61 470 -12 310 -12 c 0
 186 -12 103 36 103 142 c 0
 103 178 109 221 116 253 c 2
 215 680 l 1
 353 680 l 1
EndSplineSet
Position2: "'cpsp' Capital Spacing in Latin lookup 0 subtable" dx=5 dy=0 dh=10 dv=0
EndChar
StartChar: uring
Encoding: 367 367 351
Width: 513
Flags: MW
HStem: -12 116<163.5 283> 0 104<250 458 250 330> 480 20G<164 298 298 298 439 573 573 573> 527 79<384.5 401.5 384.5 402> 663 80<398.5 414>
VStem: 87 139<143.5 145.5> 294 210
LayerCount: 2
Back
Fore
SplineSet
299 636 m 0x6e
 314 697 363 743 427 743 c 0
 493 743 514 695 500 635 c 0
 484 567 433 527 371 527 c 0x7e
 306 527 283 575 299 636 c 0x6e
371 636 m 0x7e
 366 621 376 606 393 606 c 0
 410 606 424 619 429 635 c 0
 434 652 421 663 407 663 c 0
 390 663 376 652 371 636 c 0x7e
439 500 m 1x6e
 573 500 l 1
 458 0 l 1
 330 0 l 1x6e
 336 49 l 1
 336 49 275 -12 209 -12 c 0xae
 118 -12 87 51 87 129 c 0
 87 162 101 226 108 255 c 2
 164 500 l 1
 298 500 l 1
 244 265 l 2
 238 240 226 185 226 162 c 0
 226 125 233 104 267 104 c 0
 299 104 362 164 362 164 c 1
 439 500 l 1x6e
EndSplineSet
EndChar
StartChar: uhungarumlaut
Encoding: 369 369 352
Width: 513
Flags: MW
HStem: -12 116<163.5 283> 0 104<250 458 250 330> 480 20G<164 298 298 298 439 573 573 573>
VStem: 87 139<143.5 145.5> 87 569
LayerCount: 2
Back
Fore
SplineSet
492 563 m 1x68
 411 628 l 1
 567 818 l 1
 656 751 l 1
 492 563 l 1x68
298 563 m 1
 218 628 l 1
 373 817 l 1
 462 751 l 1
 298 563 l 1
439 500 m 1
 573 500 l 1
 458 0 l 1
 330 0 l 1x68
 336 49 l 1
 336 49 275 -12 209 -12 c 0xb0
 118 -12 87 51 87 129 c 0
 87 162 101 226 108 255 c 2
 164 500 l 1
 298 500 l 1
 244 265 l 2
 238 240 226 185 226 162 c 0
 226 125 233 104 267 104 c 0x70
 299 104 362 164 362 164 c 1
 439 500 l 1
EndSplineSet
EndChar
StartChar: Uogonek
Encoding: 370 370 118
Width: 598
Flags: MW
HStem: -214 21G<233.5 279.5> -214 118<233.5 336.5> -8 21G
VStem: 105 137<141.5 160> 176 144<-162.5 -72.5>
LayerCount: 2
Back
Fore
SplineSet
355 680 m 1xb0
 251 231 l 2
 246 210 242 189 242 165 c 0
 242 118 274 108 324 108 c 0xb0
 411 108 434 147 453 231 c 2
 557 680 l 1
 695 680 l 1
 591 231 l 2
 558 86 494 12 377 -7 c 1
 352 -27 320 -63 320 -82 c 0
 320 -89 323 -96 333 -96 c 0
 340 -96 370 -93 370 -93 c 1x68
 357 -203 l 1
 357 -203 300 -214 259 -214 c 0
 208 -214 176 -188 176 -137 c 0xa8
 176 -90 220 -39 256 -8 c 1
 164 5 105 52 105 142 c 0
 105 178 111 221 118 253 c 2
 217 680 l 1
 355 680 l 1xb0
EndSplineSet
Position2: "'cpsp' Capital Spacing in Latin lookup 0 subtable" dx=5 dy=0 dh=10 dv=0
EndChar
StartChar: uogonek
Encoding: 371 371 353
Width: 513
Flags: MW
HStem: -214 21G<296.5 342.5> -214 118<296.5 399.5> -12 116<163.5 283> 480 20G<164 298 298 298 439 573 573 573>
VStem: 87 139<143.5 145.5> 87 486<90 500> 239 144<-162.5 -70>
LayerCount: 2
Back
Fore
SplineSet
439 500 m 1xb4
 573 500 l 1
 458 0 l 1
 432 -14 383 -58 383 -82 c 0
 383 -89 386 -96 396 -96 c 0
 403 -96 433 -93 433 -93 c 1x72
 420 -203 l 1
 420 -203 363 -214 322 -214 c 0
 271 -214 239 -188 239 -137 c 0
 239 -85 292 -29 330 1 c 1
 336 49 l 1xb2
 336 49 275 -12 209 -12 c 0
 118 -12 87 51 87 129 c 0
 87 162 101 226 108 255 c 2
 164 500 l 1
 298 500 l 1
 244 265 l 2
 238 240 226 185 226 162 c 0
 226 125 233 104 267 104 c 0xb8
 299 104 362 164 362 164 c 1
 439 500 l 1xb4
EndSplineSet
EndChar
StartChar: ycircumflex
Encoding: 375 375 359
Width: 464
Flags: MW
HStem: -210 21G<102 235 102 102> 0 21G<122 205 122 122> 0 111<122 258> 480 20G<126 257 257 257 432 567 567 567> 575 175<184 432 184 432 396 396 396 432 352 518>
VStem: 124 126
LayerCount: 2
Back
Fore
SplineSet
126 500 m 1xdc
 257 500 l 1
 243 111 l 1
 258 111 l 1xbc
 432 500 l 1
 567 500 l 1
 235 -210 l 1
 102 -210 l 1
 205 0 l 1
 122 0 l 1
 126 500 l 1xdc
184 575 m 1
 352 750 l 1
 432 750 l 1
 518 575 l 1
 396 575 l 1
 372 639 l 1
 314 575 l 1
 184 575 l 1
EndSplineSet
EndChar
StartChar: Zacute
Encoding: 377 377 134
Width: 490
Flags: MW
HStem: 0 120<220 454> 560 120<165 611 193 423>
VStem: 36 575
LayerCount: 2
Back
Fore
SplineSet
316 765 m 1
 306 871 l 1
 570 962 l 1
 580 842 l 1
 316 765 l 1
165 560 m 1
 193 680 l 1
 611 680 l 1
 579 541 l 1
 226 144 l 1
 220 120 l 1
 482 120 l 1
 454 0 l 1
 36 0 l 1
 67 137 l 1
 418 536 l 1
 423 560 l 1
 165 560 l 1
EndSplineSet
Position2: "'cpsp' Capital Spacing in Latin lookup 0 subtable" dx=5 dy=0 dh=10 dv=0
EndChar
StartChar: zacute
Encoding: 378 378 360
Width: 414
Flags: MW
HStem: 114 272<216 310 122 408 216 216> 683 21G<228 228>
VStem: 34 468
LayerCount: 2
Back
Fore
SplineSet
151 500 m 1
 122 386 l 1
 310 386 l 1
 59 112 l 1
 34 0 l 1
 379 0 l 1
 408 114 l 1
 216 114 l 1
 468 389 l 1
 496 500 l 1
 151 500 l 1
238 576 m 1
 228 683 l 1
 492 774 l 1
 502 654 l 1
 238 576 l 1
EndSplineSet
EndChar
StartChar: Zdotaccent
Encoding: 379 379 136
Width: 490
Flags: MW
HStem: 0 120<220 454> 560 120<165 611 193 423> 771 138<367 517 399 483>
VStem: 36 575
LayerCount: 2
Back
Fore
SplineSet
367 771 m 1
 399 909 l 1
 517 909 l 1
 483 771 l 1
 367 771 l 1
165 560 m 1
 193 680 l 1
 611 680 l 1
 579 541 l 1
 226 144 l 1
 220 120 l 1
 482 120 l 1
 454 0 l 1
 36 0 l 1
 67 137 l 1
 418 536 l 1
 423 560 l 1
 165 560 l 1
EndSplineSet
Position2: "'cpsp' Capital Spacing in Latin lookup 0 subtable" dx=5 dy=0 dh=10 dv=0
EndChar
StartChar: zdotaccent
Encoding: 380 380 361
Width: 414
Flags: MW
HStem: 114 272<216 310 122 408 216 216> 582 137<276 424 308 392>
VStem: 34 462
LayerCount: 2
Back
Fore
SplineSet
151 500 m 1
 122 386 l 1
 310 386 l 1
 59 112 l 1
 34 0 l 1
 379 0 l 1
 408 114 l 1
 216 114 l 1
 468 389 l 1
 496 500 l 1
 151 500 l 1
276 582 m 1
 308 719 l 1
 424 719 l 1
 392 582 l 1
 276 582 l 1
EndSplineSet
EndChar
StartChar: Zcaron
Encoding: 381 381 135
Width: 490
Flags: MW
HStem: 0 120<220 454> 560 120<165 611 193 423> 776 151<378 417 285 470 378 378>
VStem: 36 594
LayerCount: 2
Back
Fore
SplineSet
630 927 m 1
 470 776 l 1
 378 776 l 1
 285 927 l 1
 417 927 l 1
 446 870 l 1
 499 927 l 1
 630 927 l 1
165 560 m 1
 193 680 l 1
 611 680 l 1
 579 541 l 1
 226 144 l 1
 220 120 l 1
 482 120 l 1
 454 0 l 1
 36 0 l 1
 67 137 l 1
 418 536 l 1
 423 560 l 1
 165 560 l 1
EndSplineSet
Position2: "'cpsp' Capital Spacing in Latin lookup 0 subtable" dx=5 dy=0 dh=10 dv=0
EndChar
StartChar: zcaron
Encoding: 382 382 155
Width: 414
Flags: MW
HStem: 0 114<216 379> 386 114<122 496 151 310> 575 175<292 333 210 377 292 292>
VStem: 34 510
LayerCount: 2
Back
Fore
SplineSet
377 575 m 1
 292 575 l 1
 210 750 l 1
 333 750 l 1
 362 684 l 1
 415 750 l 1
 544 750 l 1
 377 575 l 1
122 386 m 1
 151 500 l 1
 496 500 l 1
 468 389 l 1
 216 114 l 1
 408 114 l 1
 379 0 l 1
 34 0 l 1
 59 112 l 1
 310 386 l 1
 122 386 l 1
EndSplineSet
EndChar
StartChar: florin
Encoding: 402 402 225
Width: 560
Flags: MW
HStem: -243 116<104.5 131.5 104.5 163> -230 21G<17 17> 375 124<221 281 193 310 441 545 221 412> 585 123<487 519 450 522>
VStem: 17 606
LayerCount: 2
Back
Fore
SplineSet
412 375 m 1x78
 307 -63 l 2
 273 -206 216 -243 110 -243 c 0xb8
 78 -243 17 -230 17 -230 c 1x78
 41 -124 l 1
 41 -124 91 -127 118 -127 c 0
 145 -127 166 -111 177 -63 c 2xb8
 281 375 l 1
 193 375 l 1
 221 499 l 1
 310 499 l 1
 316 520 l 2
 357 663 399 708 501 708 c 0
 537 708 590 702 623 695 c 1
 596 583 l 1
 596 583 537 585 507 585 c 0
 467 585 449 548 443 512 c 2
 441 499 l 1
 574 499 l 1
 545 375 l 1
 412 375 l 1x78
EndSplineSet
EndChar
StartChar: Aringacute
Encoding: 506 506 299
Width: 551
Flags: MW
HStem: 0 21G<13 13 13 151 398 398 398 536> 118 120<256 402 204 407> 748 86<440.5 462>
VStem: 414 132 491 91
LayerCount: 2
Back
Fore
SplineSet
13 0 m 1xd0
 313 666 l 1
 310 681 311 697 316 717 c 0
 336 798 400 834 476 834 c 0xe8
 547 834 598 800 578 717 c 0
 573 698 566 681 556 667 c 1
 536 0 l 1
 398 0 l 1
 402 118 l 1
 204 118 l 1
 151 0 l 1
 13 0 l 1xd0
355 856 m 1
 345 963 l 1
 609 1054 l 1
 619 934 l 1
 355 856 l 1
400 560 m 1xd0
 256 238 l 1
 407 238 l 1
 421 560 l 1
 400 560 l 1xd0
402 717 m 0xe8
 398 698 413 686 439 686 c 0
 466 686 487 698 491 717 c 0
 497 742 470 748 454 748 c 0
 427 748 407 736 402 717 c 0xe8
EndSplineSet
Position2: "'cpsp' Capital Spacing in Latin lookup 0 subtable" dx=5 dy=0 dh=10 dv=0
EndChar
StartChar: aringacute
Encoding: 507 507 303
Width: 528
Flags: MW
HStem: -12 114<246.5 259.5> -2 21G<349 349> 398 114<297.5 351> 527 79<410.5 427.5 410.5 428> 663 80<424.5 440>
VStem: 80 136<148.5 215.5 148.5 238> 320 210
LayerCount: 2
Back
Fore
SplineSet
365 758 m 1x6e
 354 875 l 1
 618 966 l 1
 629 836 l 1
 365 758 l 1x6e
221 -12 m 0xae
 119 -12 80 66 80 170 c 0
 80 306 152 512 334 512 c 0
 407 512 584 479 584 479 c 1
 509 156 l 2
 495 94 482 3 482 3 c 1
 349 -2 l 1x6e
 349 -2 358 59 362 76 c 1
 362 76 298 -12 221 -12 c 0xae
338 398 m 0
 257 398 216 261 216 170 c 0
 216 127 226 102 267 102 c 0
 308 102 384 191 384 191 c 1
 430 384 l 1
 430 384 364 398 338 398 c 0
325 636 m 0
 340 697 389 743 453 743 c 0
 519 743 540 695 526 635 c 0
 510 567 459 527 397 527 c 0x7e
 332 527 309 575 325 636 c 0
397 636 m 0x7e
 392 621 402 606 419 606 c 0
 436 606 450 619 455 635 c 0
 460 652 447 663 433 663 c 0
 416 663 402 652 397 636 c 0x7e
EndSplineSet
EndChar
StartChar: aeacute
Encoding: 509 509 305
Width: 714
Flags: MW
HStem: -12 115<125 228> -12 121<499 531> 193 102 212 100 386 125<324.5 343> 396 115<580.5 593.5> 683 21G<377 377>
VStem: 53 132 326 129 633 127
LayerCount: 2
Back
Fore
SplineSet
521 109 m 0x67c0
 590 109 693 118 693 118 c 1
 670 16 l 1
 670 16 579 -12 483 -12 c 0
 420 -12 370 3 344 37 c 1
 314 21 216 -12 168 -12 c 0
 82 -12 37 72 57 153 c 0
 79 249 139 289 210 302 c 0
 255 310 302 313 349 312 c 1
 358 337 362 386 324 386 c 0
 254 386 142 372 142 372 c 1x5bc0
 163 489 l 1
 163 489 290 511 359 511 c 0
 409 511 451 500 473 470 c 1
 510 497 555 511 606 511 c 0
 706 511 755 460 760 378 c 0
 762 346 756 309 747 277 c 2
 724 192 l 1
 455 194 l 1
 452 180 451 165 453 153 c 0
 458 127 477 109 521 109 c 0x67c0
215 103 m 0x97c0
 241 103 283 108 316 116 c 1
 312 146 317 179 326 212 c 1
 308 212 274 210 247 208 c 0
 218 206 192 187 185 157 c 0
 180 135 186 103 215 103 c 0x97c0
478 296 m 1x67c0
 628 294 l 1
 634 318 636 341 633 358 c 0
 628 381 611 396 576 396 c 0
 516 396 493 355 478 296 c 1x67c0
387 576 m 1
 377 683 l 1
 641 774 l 1
 651 654 l 1
 387 576 l 1
EndSplineSet
EndChar
StartChar: Oslashacute
Encoding: 510 510 91
Width: 617
Flags: MW
HStem: -12 120<328 351.5> 572 120<418 445>
VStem: 102 142<200 200 200 210 200 279> 528 142<470 478 478 478>
LayerCount: 2
Back
Fore
SplineSet
120 -121 m 1
 54 -81 l 1
 145 53 l 1
 117 87 102 134 102 196 c 0
 102 362 152 533 258 625 c 0
 309 669 374 692 449 692 c 0
 493 692 532 686 564 672 c 1
 655 805 l 1
 729 774 l 1
 627 624 l 1
 654 591 670 545 670 484 c 0
 670 312 620 135 506 46 c 0
 457 8 387 -12 316 -12 c 0
 274 -12 238 -5 207 7 c 1
 120 -121 l 1
388 755 m 1
 377 871 l 1
 641 962 l 1
 652 832 l 1
 388 755 l 1
340 108 m 0
 371 108 401 119 424 142 c 0
 490 208 528 356 528 470 c 2
 528 478 l 1
 424 325 l 1
 283 118 l 1
 297 111 316 108 340 108 c 0
244 200 m 1
 354 363 l 1
 489 562 l 1
 475 569 457 572 433 572 c 0
 403 572 374 564 352 542 c 0
 281 472 244 310 244 210 c 2
 244 200 l 1
EndSplineSet
Position2: "'cpsp' Capital Spacing in Latin lookup 0 subtable" dx=5 dy=0 dh=10 dv=0
EndChar
StartChar: oslashacute
Encoding: 511 511 280
Width: 496
Flags: MW
HStem: -12 114<273 315 273 361> 0 21G<191 191> 397 114<295 336.5> 480 20G<418 418> 683 21G<268 268>
VStem: 80 133<168 168 168 175 168 254> 397 133<324 330 330 330>
LayerCount: 2
Back
Fore
SplineSet
333 511 m 0xae
 365 511 393 507 418 500 c 1
 483 606 l 1
 554 575 l 1
 482 463 l 1
 513 432 530 386 530 322 c 0
 530 168 445 -12 277 -12 c 0x9e
 245 -12 216 -8 191 0 c 1x6e
 126 -107 l 1
 56 -76 l 1
 128 36 l 1
 97 66 80 112 80 177 c 0
 80 331 173 511 333 511 c 0xae
278 576 m 1
 268 683 l 1
 532 774 l 1
 542 654 l 1
 278 576 l 1
213 168 m 1
 276 266 l 1
 354 394 l 1
 347 396 340 397 333 397 c 0
 257 397 213 279 213 175 c 2
 213 168 l 1
277 102 m 0
 353 102 397 220 397 324 c 2
 397 330 l 1
 336 235 l 1
 256 104 l 1
 262 103 269 102 277 102 c 0
EndSplineSet
EndChar
StartChar: Scommaaccent
Encoding: 536 536 105
Width: 495
Flags: MW
HStem: -72 180<180 293.5 221 293.5 221 303> -12 120<221 293.5 221 335> 574 118<351 416>
VStem: 146 140<466.5 511.5 466.5 532> 375 140<169.5 226>
LayerCount: 2
Back
Fore
SplineSet
180 -72 m 1xb8
 83 -309 l 1
 196 -309 l 1
 303 -72 l 1
 180 -72 l 1xb8
586 654 m 1
 561 556 l 1
 561 556 451 574 381 574 c 0
 321 574 286 538 286 485 c 0
 286 448 297 436 379 399 c 0
 491 349 515 312 515 223 c 0
 515 69 412 -12 258 -12 c 0
 152 -12 50 29 50 29 c 1
 73 128 l 1
 73 128 186 108 256 108 c 0
 331 108 375 132 375 207 c 0x78
 375 245 362 257 274 297 c 0
 184 338 146 379 146 469 c 0
 146 595 234 692 377 692 c 0
 486 692 586 654 586 654 c 1
EndSplineSet
Position2: "'cpsp' Capital Spacing in Latin lookup 0 subtable" dx=5 dy=0 dh=10 dv=0
EndChar
StartChar: Tcommaaccent
Encoding: 538 538 109
Width: 456
Flags: MW
HStem: 0 21G<158 296 158 158> 560 120<138 604 166 287 425 425 425 576>
VStem: 58 546
LayerCount: 2
Back
Fore
SplineSet
155 -72 m 1
 58 -309 l 1
 171 -309 l 1
 278 -72 l 1
 155 -72 l 1
138 560 m 1
 166 680 l 1
 604 680 l 1
 576 560 l 1
 425 560 l 1
 296 0 l 1
 158 0 l 1
 287 560 l 1
 138 560 l 1
EndSplineSet
Position2: "'cpsp' Capital Spacing in Latin lookup 0 subtable" dx=5 dy=0 dh=10 dv=0
EndChar
StartChar: tcommaaccent
Encoding: 539 539 346
Width: 329
Flags: MW
HStem: -72 174<112 280 112 280> -12 114<174.5 280> 386 114<134 158 104 185 319 396 134 292>
VStem: 15 409 99 139<66.5 137>
LayerCount: 2
Back
Fore
SplineSet
396 386 m 1x70
 292 386 l 1
 246 186 l 2
 242 169 238 144 238 130 c 0
 238 111 246 102 267 102 c 0
 293 102 335 107 335 107 c 1
 324 11 l 1
 324 11 271 -12 212 -12 c 0
 137 -12 99 37 99 96 c 0
 99 127 106 165 114 198 c 2
 158 386 l 1
 104 386 l 1
 134 500 l 1
 185 500 l 1x68
 214 628 l 1
 348 628 l 1
 319 500 l 1
 424 500 l 1
 396 386 l 1x70
112 -72 m 1xa8
 15 -309 l 1
 128 -309 l 1
 235 -72 l 1
 112 -72 l 1xa8
EndSplineSet
EndChar
StartChar: circumflex
Encoding: 710 710 6
Width: 791
Flags: MW
HStem: 575 175<353 601 353 601 565 565 565 601 521 687>
VStem: 353 334<575 575>
LayerCount: 2
Back
Fore
SplineSet
353 575 m 1
 521 750 l 1
 601 750 l 1
 687 575 l 1
 565 575 l 1
 541 639 l 1
 483 575 l 1
 353 575 l 1
EndSplineSet
EndChar
StartChar: caron
Encoding: 711 711 4
Width: 791
Flags: MW
HStem: 575 175<477 518 395 562 477 477>
VStem: 395 334<750 750>
LayerCount: 2
Back
Fore
SplineSet
562 575 m 1
 477 575 l 1
 395 750 l 1
 518 750 l 1
 547 684 l 1
 600 750 l 1
 729 750 l 1
 562 575 l 1
EndSplineSet
EndChar
StartChar: breve
Encoding: 728 728 3
Width: 462
Flags: MW
HStem: 590 112<354.5 389 354.5 400> 590 156<288 331 210 400>
VStem: 207 124
LayerCount: 2
Back
Fore
SplineSet
210 746 m 1x60
 331 746 l 1x60
 329 723 336 702 373 702 c 0xa0
 405 702 425 716 436 746 c 1
 557 746 l 1x60
 525 650 461 590 339 590 c 0xa0
 237 590 196 643 210 746 c 1x60
EndSplineSet
EndChar
StartChar: dotaccent
Encoding: 729 729 9
Width: 255
Flags: MW
HStem: 582 137<206 354 238 322>
VStem: 206 148<582 719>
LayerCount: 2
Back
Fore
SplineSet
206 582 m 1
 238 719 l 1
 354 719 l 1
 322 582 l 1
 206 582 l 1
EndSplineSet
EndChar
StartChar: ring
Encoding: 730 730 14
Width: 791
Flags: MW
HStem: 527 79<387.5 404.5 387.5 405> 663 80<401.5 417>
VStem: 297 210
LayerCount: 2
Back
Fore
SplineSet
302 636 m 0
 317 697 366 743 430 743 c 0
 496 743 517 695 503 635 c 0
 487 567 436 527 374 527 c 0
 309 527 286 575 302 636 c 0
374 636 m 0
 369 621 379 606 396 606 c 0
 413 606 427 619 432 635 c 0
 437 652 424 663 410 663 c 0
 393 663 379 652 374 636 c 0
EndSplineSet
EndChar
StartChar: ogonek
Encoding: 731 731 13
Width: 450
Flags: MW
HStem: -214 118<232.5 335.5>
VStem: 175 144<-162.5 -70>
LayerCount: 2
Back
Fore
SplineSet
369 -93 m 1
 356 -203 l 1
 356 -203 299 -214 258 -214 c 0
 207 -214 175 -188 175 -137 c 0
 175 -76 250 -9 285 15 c 1
 393 5 l 1
 370 -9 319 -58 319 -82 c 0
 319 -89 322 -96 332 -96 c 0
 339 -96 369 -93 369 -93 c 1
EndSplineSet
EndChar
StartChar: tilde
Encoding: 732 732 15
Width: 446
Flags: MW
HStem: 590 118<429.5 440.5> 634 117<288 301.5> 688 20G<429.5 454>
VStem: 197 335<654 686>
LayerCount: 2
Back
Fore
SplineSet
528 747 m 1x30
 532 654 l 1
 532 654 465 590 416 590 c 0x90
 368 590 317 634 286 634 c 0
 259 634 200 594 200 594 c 1x50
 197 686 l 1
 197 686 264 751 312 751 c 0
 367 751 417 708 442 708 c 0
 466 708 528 747 528 747 c 1x30
EndSplineSet
EndChar
StartChar: hungarumlaut
Encoding: 733 733 10
Width: 689
Flags: MW
HStem: 563 255<546 621>
VStem: 272 438<628 751>
LayerCount: 2
Back
Fore
SplineSet
546 563 m 1
 465 628 l 1
 621 818 l 1
 710 751 l 1
 546 563 l 1
352 563 m 1
 272 628 l 1
 427 817 l 1
 516 751 l 1
 352 563 l 1
EndSplineSet
EndChar
StartChar: pi
Encoding: 960 960 206
Width: 560
Flags: MW
HStem: -10 114<558 587 558 587> 0 21G<138 273 138 138> 386 114<154.5 483 299 384 299 299> 492 20G<592 592>
VStem: 384 134<154 386 386 386>
LayerCount: 2
Back
Fore
SplineSet
384 154 m 2x68
 384 386 l 1
 299 386 l 1
 273 0 l 1
 138 0 l 1
 170 386 l 1
 139 386 82 373 82 373 c 1
 82 482 l 1
 82 482 146 500 232 500 c 2
 483 500 l 2x68
 540 500 592 512 592 512 c 1
 592 402 l 1
 592 402 568 391 518 388 c 1
 518 154 l 2
 518 121 529 104 587 104 c 1
 587 -10 l 1x98
 406 -10 384 20 384 154 c 2x68
EndSplineSet
EndChar
StartChar: wgrave
Encoding: 7809 7809 354
Width: 762
Flags: MW
HStem: 0 114<238 261 238 325 552 575> 480 20G<135 270 270 270 724 859 859 859> 662 21G<340 340> 682 21G<625 625>
VStem: 441.5 120.5
LayerCount: 2
Back
Fore
SplineSet
404 772 m 1xd8
 625 682 l 1
 569 583 l 1xd8
 340 662 l 1xe8
 404 772 l 1xd8
135 500 m 1
 270 500 l 1
 238 114 l 1
 261 114 l 1
 420 490 l 1
 572 490 l 1
 552 114 l 1
 575 114 l 1
 724 500 l 1
 859 500 l 1
 655 0 l 1
 432 0 l 1
 451 311 l 1
 325 0 l 1
 106 0 l 1
 135 500 l 1
EndSplineSet
EndChar
StartChar: Wacute
Encoding: 7810 7810 123
Width: 865
Flags: MW
HStem: 0 127<270 284 270 349 629 643>
VStem: 143 862<0 680>
LayerCount: 2
Back
Fore
SplineSet
502 765 m 1
 492 871 l 1
 756 962 l 1
 766 842 l 1
 502 765 l 1
174 680 m 1
 312 680 l 1
 270 127 l 1
 284 127 l 1
 510 670 l 1
 662 670 l 1
 629 127 l 1
 643 127 l 1
 867 680 l 1
 1005 680 l 1
 714 0 l 1
 514 0 l 1
 547 494 l 1
 349 0 l 1
 143 0 l 1
 174 680 l 1
EndSplineSet
Position2: "'cpsp' Capital Spacing in Latin lookup 0 subtable" dx=5 dy=0 dh=10 dv=0
EndChar
StartChar: wacute
Encoding: 7811 7811 355
Width: 762
Flags: MW
HStem: 0 114<238 261 238 325 552 575> 480 20G<135 270 270 270 724 859 859 859> 683 21G<390 390>
VStem: 441.5 120.5
LayerCount: 2
Back
Fore
SplineSet
135 500 m 1
 270 500 l 1
 238 114 l 1
 261 114 l 1
 420 490 l 1
 572 490 l 1
 552 114 l 1
 575 114 l 1
 724 500 l 1
 859 500 l 1
 655 0 l 1
 432 0 l 1
 451 311 l 1
 325 0 l 1
 106 0 l 1
 135 500 l 1
400 576 m 1
 390 683 l 1
 654 774 l 1
 664 654 l 1
 400 576 l 1
EndSplineSet
EndChar
StartChar: wdieresis
Encoding: 7813 7813 357
Width: 762
Flags: MW
HStem: 0 114<238 261 238 325 552 575> 480 20G<135 270 270 270 724 859 859 859> 601 135<356 498 387 466 581 660 387 550>
VStem: 441.5 120.5
LayerCount: 2
Back
Fore
SplineSet
135 500 m 1
 270 500 l 1
 238 114 l 1
 261 114 l 1
 420 490 l 1
 572 490 l 1
 552 114 l 1
 575 114 l 1
 724 500 l 1
 859 500 l 1
 655 0 l 1
 432 0 l 1
 451 311 l 1
 325 0 l 1
 106 0 l 1
 135 500 l 1
356 601 m 1
 387 736 l 1
 498 736 l 1
 466 601 l 1
 356 601 l 1
550 601 m 1
 581 736 l 1
 692 736 l 1
 660 601 l 1
 550 601 l 1
EndSplineSet
EndChar
StartChar: uni1EAB
Encoding: 7851 7851 369
Width: 528
Flags: MW
HStem: -12 114<246.5 259.5> -2 21G<349 349> 398 114<297.5 351> 545 175<236 484 236 484 448 448 448 484 404 570> 750 118<529.5 540.5> 794 117<388 401.5>
VStem: 80 136<148.5 215.5 148.5 238>
LayerCount: 2
Back
Fore
SplineSet
221 -12 m 0xb6
 119 -12 80 66 80 170 c 0
 80 306 152 512 334 512 c 0
 407 512 584 479 584 479 c 1
 509 156 l 2
 495 94 482 3 482 3 c 1
 349 -2 l 1x76
 349 -2 358 59 362 76 c 1
 362 76 298 -12 221 -12 c 0xb6
338 398 m 0xba
 257 398 216 261 216 170 c 0
 216 127 226 102 267 102 c 0
 308 102 384 191 384 191 c 1
 430 384 l 1
 430 384 364 398 338 398 c 0xba
628 907 m 1
 632 814 l 1
 632 814 565 750 516 750 c 0x7a
 468 750 417 794 386 794 c 0
 359 794 300 754 300 754 c 1
 297 846 l 1
 297 846 364 911 412 911 c 0x76
 467 911 517 868 542 868 c 0
 566 868 628 907 628 907 c 1
236 545 m 1x76
 404 720 l 1
 484 720 l 1
 570 545 l 1
 448 545 l 1
 424 609 l 1
 366 545 l 1
 236 545 l 1x76
EndSplineSet
EndChar
StartChar: uni1EB0
Encoding: 7856 7856 365
Width: 551
Flags: MW
HStem: 0 21G<13 13 13 151 398 398 398 536> 118 120<256 402 204 407> 560 120<400 400 400 421> 743 144<401.5 438 316 509.5>
VStem: 414 132.5
LayerCount: 2
Back
Fore
SplineSet
442 1133 m 1
 663 1043 l 1
 607 944 l 1
 378 1023 l 1
 442 1133 l 1
13 0 m 1
 319 680 l 1
 557 680 l 1
 536 0 l 1
 398 0 l 1
 402 118 l 1
 204 118 l 1
 151 0 l 1
 13 0 l 1
400 560 m 1
 256 238 l 1
 407 238 l 1
 421 560 l 1
 400 560 l 1
316 887 m 1
 438 887 l 1
 434 859 447 848 473 848 c 0
 499 848 517 864 526 887 c 1
 648 887 l 1
 618 800 568 743 451 743 c 0
 352 743 304 795 316 887 c 1
EndSplineSet
EndChar
StartChar: uni1EC5
Encoding: 7877 7877 367
Width: 476
Flags: MW
HStem: -12 114<268 298> 195 99<233 253 218 274> 403 108<318.5 364> 545 175<204 452 204 452 416 416 416 452 372 538> 750 118<504.5 515.5> 794 117<363 376.5>
VStem: 81 134<141 167 141 248.5> 398 132<336.5 376>
LayerCount: 2
Back
Fore
SplineSet
603 907 m 1xfb
 607 814 l 1
 607 814 540 750 491 750 c 0xfb
 443 750 392 794 361 794 c 0
 334 794 275 754 275 754 c 1
 272 846 l 1
 272 846 339 911 387 911 c 0xf7
 442 911 492 868 517 868 c 0
 541 868 603 907 603 907 c 1xfb
288 102 m 0
 356 102 454 115 454 115 c 1
 439 16 l 1
 439 16 346 -12 250 -12 c 0
 135 -12 81 41 81 158 c 0
 81 339 160 511 355 511 c 0
 462 511 530 469 530 362 c 0
 530 231 444 195 253 195 c 2
 218 195 l 1
 216 187 215 173 215 161 c 0
 215 121 248 102 288 102 c 0
233 294 m 1
 274 294 l 2
 368 294 398 313 398 360 c 0
 398 392 380 403 348 403 c 0
 289 403 250 366 233 294 c 1
204 545 m 1xf7
 372 720 l 1
 452 720 l 1
 538 545 l 1
 416 545 l 1
 392 609 l 1
 334 545 l 1
 204 545 l 1xf7
EndSplineSet
EndChar
StartChar: uni1ED7
Encoding: 7895 7895 368
Width: 496
Flags: MW
HStem: -12 114<256 315 256 361> 397 114<295 354> 545 175<202 450 202 450 414 414 414 450 370 536> 750 118<498.5 509.5> 794 117<357 370.5>
VStem: 80 133<152 227 152 254> 397 133<272 347>
LayerCount: 2
Back
Fore
SplineSet
333 511 m 0xee
 457 511 530 456 530 322 c 0
 530 168 445 -12 277 -12 c 0
 153 -12 80 43 80 177 c 0
 80 331 173 511 333 511 c 0xee
277 102 m 0
 353 102 397 220 397 324 c 0
 397 370 375 397 333 397 c 0
 257 397 213 279 213 175 c 0
 213 129 235 102 277 102 c 0
597 907 m 1xf6
 601 814 l 1
 601 814 534 750 485 750 c 0xf6
 437 750 386 794 355 794 c 0
 328 794 269 754 269 754 c 1
 266 846 l 1
 266 846 333 911 381 911 c 0xee
 436 911 486 868 511 868 c 0
 535 868 597 907 597 907 c 1xf6
202 545 m 1xee
 370 720 l 1
 450 720 l 1
 536 545 l 1
 414 545 l 1
 390 609 l 1
 332 545 l 1
 202 545 l 1xee
EndSplineSet
EndChar
StartChar: ygrave
Encoding: 7923 7923 358
Width: 464
Flags: MW
HStem: -210 21G<102 235 102 102> 0 21G<122 205 122 122> 0 111<122 258> 480 20G<126 257 257 257 432 567 567 567> 662 21G<192 192> 682 21G<477 477>
VStem: 124 126
LayerCount: 2
Back
Fore
SplineSet
256 772 m 1xd6
 477 682 l 1
 421 583 l 1xd6
 192 662 l 1xda
 256 772 l 1xd6
126 500 m 1
 257 500 l 1
 243 111 l 1
 258 111 l 1xb6
 432 500 l 1
 567 500 l 1
 235 -210 l 1
 102 -210 l 1
 205 0 l 1
 122 0 l 1
 126 500 l 1
EndSplineSet
EndChar
StartChar: uni1EF9
Encoding: 7929 7929 364
Width: 464
Flags: MW
HStem: -210 21G<102 235 102 102> 0 21G<122 205 122 122> 0 111<122 258> 480 20G<126 257 257 257 432 567 567 567> 590 118<449.5 460.5> 634 117<308 321.5> 688 20G<449.5 474>
VStem: 124 126
LayerCount: 2
Back
Fore
SplineSet
548 747 m 1xd3
 552 654 l 1
 552 654 485 590 436 590 c 0xd9
 388 590 337 634 306 634 c 0
 279 634 220 594 220 594 c 1xd5
 217 686 l 1
 217 686 284 751 332 751 c 0
 387 751 437 708 462 708 c 0
 486 708 548 747 548 747 c 1xd3
126 500 m 1
 257 500 l 1
 243 111 l 1
 258 111 l 1xb3
 432 500 l 1
 567 500 l 1
 235 -210 l 1
 102 -210 l 1
 205 0 l 1
 122 0 l 1
 126 500 l 1
EndSplineSet
EndChar
StartChar: emdash
Encoding: 8212 8212 212
Width: 1026
Flags: MW
HStem: 209 114<75 1075 75 1075>
VStem: 75 1000<209 323 209 323>
LayerCount: 2
Back
Fore
SplineSet
75 323 m 1
 1075 323 l 1
 1075 209 l 1
 75 209 l 1
 75 323 l 1
EndSplineSet
Substitution2: "'case' Case-Sensitive Forms in Latin lookup 4 subtable" emdash.cap
EndChar
StartChar: quoteleft
Encoding: 8216 8216 243
Width: 174
Flags: MW
HStem: 424 255<96 333 96 333>
VStem: 96 237
LayerCount: 2
Back
Fore
SplineSet
233 679 m 1
 333 679 l 1
 228 424 l 1
 96 424 l 1
 233 679 l 1
EndSplineSet
EndChar
StartChar: quoteright
Encoding: 8217 8217 244
Width: 174
Flags: MW
HStem: 425 255<96 333 96 333>
VStem: 96 237
LayerCount: 2
Back
Fore
SplineSet
196 425 m 1
 96 425 l 1
 201 680 l 1
 333 680 l 1
 196 425 l 1
EndSplineSet
EndChar
StartChar: quotesinglbase
Encoding: 8218 8218 283
Width: 150
Flags: MW
HStem: -165 255<-66 171 -66 171>
VStem: -66 237
LayerCount: 2
Back
Fore
SplineSet
34 -165 m 1
 -66 -165 l 1
 39 90 l 1
 171 90 l 1
 34 -165 l 1
EndSplineSet
EndChar
StartChar: quotedblleft
Encoding: 8220 8220 210
Width: 363
Flags: MW
HStem: 425 255<94 331 94 331 284 284 284 331 231 416>
VStem: 94 427<425 680>
LayerCount: 2
Back
Fore
SplineSet
231 680 m 1
 331 680 l 1
 226 425 l 1
 94 425 l 1
 231 680 l 1
421 680 m 1
 521 680 l 1
 416 425 l 1
 284 425 l 1
 421 680 l 1
EndSplineSet
EndChar
StartChar: quotedblright
Encoding: 8221 8221 255
Width: 364
Flags: MW
HStem: 425 255<96 333 96 333 286 286 286 333 201 386>
VStem: 96 427<425 680>
LayerCount: 2
Back
Fore
SplineSet
196 425 m 1
 96 425 l 1
 201 680 l 1
 333 680 l 1
 196 425 l 1
386 425 m 1
 286 425 l 1
 391 680 l 1
 523 680 l 1
 386 425 l 1
EndSplineSet
EndChar
StartChar: quotedblbase
Encoding: 8222 8222 380
Width: 347
Flags: MW
HStem: -170 255<-91 146 -91 146 129 146 46 261 129 129>
VStem: -91 457<-170 85>
LayerCount: 2
Back
Fore
SplineSet
266 85 m 1
 366 85 l 1
 261 -170 l 1
 129 -170 l 1
 266 85 l 1
46 85 m 1
 146 85 l 1
 41 -170 l 1
 -91 -170 l 1
 46 85 l 1
EndSplineSet
EndChar
StartChar: dagger
Encoding: 8224 8224 251
Width: 454
Flags: MW
HStem: 362 135<112 280 142 248 142 374 405 512>
VStem: 112 429<362 497>
LayerCount: 2
Back
Fore
SplineSet
112 362 m 1
 142 497 l 1
 280 497 l 1
 320 668 l 1
 445 668 l 1
 405 497 l 1
 541 497 l 1
 512 362 l 1
 374 362 l 1
 271 -70 l 1
 147 -70 l 1
 248 362 l 1
 112 362 l 1
EndSplineSet
EndChar
StartChar: daggerdbl
Encoding: 8225 8225 227
Width: 473
Flags: MW
HStem: 100 135<90 196 59 228 90 321 353 459> 362 134.5
VStem: 59 491<100 497>
LayerCount: 2
Back
Fore
SplineSet
157 -70 m 1
 196 100 l 1
 59 100 l 1
 90 235 l 1
 228 235 l 1
 258 362 l 1
 122 362 l 1
 152 497 l 1
 290 496 l 1
 330 668 l 1
 455 668 l 1
 415 497 l 1
 550 497 l 1
 521 362 l 1
 384 362 l 1
 353 235 l 1
 491 235 l 1
 459 100 l 1
 321 100 l 1
 281 -70 l 1
 157 -70 l 1
EndSplineSet
EndChar
StartChar: bullet
Encoding: 8226 8226 207
Width: 458
Flags: MW
HStem: 100 280<160 410 160 410>
VStem: 160 250<100 380 100 380>
LayerCount: 2
Back
Fore
SplineSet
160 100 m 1
 160 380 l 1
 410 380 l 1
 410 100 l 1
 160 100 l 1
EndSplineSet
EndChar
StartChar: ellipsis
Encoding: 8230 8230 268
Width: 614
Flags: MW
HStem: 0 153<8 179 43 144 273 374 43 238 505 606>
VStem: 8 633<0 153>
LayerCount: 2
Back
Fore
SplineSet
8 0 m 1
 43 153 l 1
 179 153 l 1
 144 0 l 1
 8 0 l 1
238 0 m 1
 273 153 l 1
 409 153 l 1
 374 0 l 1
 238 0 l 1
470 0 m 1
 505 153 l 1
 641 153 l 1
 606 0 l 1
 470 0 l 1
EndSplineSet
EndChar
StartChar: perthousand
Encoding: 8240 8240 274
Width: 833
Flags: MW
HStem: 0 80<439 457 439 467.5 696 714> 211 80<472 490 729 747>
VStem: 245 60 337 97 495 98 594 97 752 98
LayerCount: 2
Back
Fore
SplineSet
291 621 m 0
 309 621 309 602 297 556 c 0
 286 510 277 490 259 490 c 0
 241 490 242 510 253 556 c 0
 265 602 273 621 291 621 c 0
144 -2 m 1
 516 720 l 1
 596 697 l 1
 225 -24 l 1
 144 -2 l 1
155 556 m 0
 131 459 162 410 239 410 c 0
 316 410 371 459 395 556 c 0
 419 653 388 701 311 701 c 0
 234 701 179 653 155 556 c 0
345 146 m 0
 369 243 424 291 501 291 c 0
 578 291 609 243 585 146 c 0xc8
 561 49 506 0 429 0 c 0
 352 0 321 49 345 146 c 0
443 146 m 0xd8
 431 100 430 80 448 80 c 0
 466 80 475 100 487 146 c 0
 498 192 499 211 481 211 c 0
 463 211 454 192 443 146 c 0xd8
602 146 m 0xc6
 626 243 681 291 758 291 c 0
 835 291 866 243 842 146 c 0
 818 49 763 0 686 0 c 0
 609 0 578 49 602 146 c 0xc6
700 146 m 0
 688 100 687 80 705 80 c 0
 723 80 732 100 744 146 c 0
 755 192 756 211 738 211 c 0
 720 211 711 192 700 146 c 0
EndSplineSet
EndChar
StartChar: guilsinglleft
Encoding: 8249 8249 381
Width: 232
Flags: MW
HStem: 43 393<223 326>
VStem: 53 273<212 436>
LayerCount: 2
Back
Fore
SplineSet
326 436 m 1
 289 305 l 1
 176 240 l 1
 256 163 l 1
 223 43 l 1
 53 212 l 1
 76 273 l 1
 326 436 l 1
EndSplineSet
EndChar
StartChar: guilsinglright
Encoding: 8250 8250 382
Width: 234
Flags: MW
HStem: 43 393<19 122>
VStem: 19 273<43 267>
LayerCount: 2
Back
Fore
SplineSet
19 43 m 1
 56 174 l 1
 169 239 l 1
 89 316 l 1
 122 436 l 1
 292 267 l 1
 269 206 l 1
 19 43 l 1
EndSplineSet
EndChar
StartChar: fraction
Encoding: 8260 8260 419
Width: 73
Flags: MW
HStem: 666 21G<399 399>
VStem: -158 557
LayerCount: 2
Back
Fore
SplineSet
-32 -32 m 1
 -158 12 l 1
 273 710 l 1
 399 666 l 1
 -32 -32 l 1
EndSplineSet
EndChar
StartChar: zerosuperior
Encoding: 8304 8304 256
Width: 280
Flags: MW
HStem: 467 95<262.5 263.5> 706 95<310 312>
VStem: 145 112 317 109
LayerCount: 2
Back
Fore
SplineSet
328 801 m 0
 410 801 447 760 415 632 c 0
 397 559 374 513 340 489 c 0
 314 471 282 467 245 467 c 0
 160 467 125 504 157 632 c 0
 175 705 200 752 234 777 c 0
 260 796 292 801 328 801 c 0
305 706 m 0
 292 706 284 698 267 632 c 0
 251 567 256 562 269 562 c 0
 283 562 289 567 305 632 c 0
 322 698 319 706 305 706 c 0
EndSplineSet
Substitution2: "Single Substitution lookup 5 subtable" zeroinferior
EndChar
StartChar: foursuperior
Encoding: 8308 8308 260
Width: 280
Flags: MW
HStem: 513 95<263 266 263 371 263 382>
VStem: 131 287<513 698>
LayerCount: 2
Back
Fore
SplineSet
258 478 m 1
 266 513 l 1
 131 513 l 1
 153 601 l 1
 242 790 l 1
 360 790 l 1
 263 608 l 1
 290 608 l 1
 327 698 l 1
 418 698 l 1
 395 608 l 1
 406 608 l 1
 382 513 l 1
 371 513 l 1
 363 478 l 1
 258 478 l 1
EndSplineSet
Substitution2: "Single Substitution lookup 5 subtable" fourinferior
EndChar
StartChar: fivesuperior
Encoding: 8309 8309 261
Width: 280
Flags: MW
HStem: 471 90<233.5 260.5 233.5 287> 592 89<266.5 352.5> 700 90<288 412 288 288>
VStem: 281 116
LayerCount: 2
Back
Fore
SplineSet
227 790 m 1
 434 790 l 1
 412 700 l 1
 288 700 l 1x30
 279 675 l 1
 279 675 308 681 324 681 c 0
 381 681 410 651 393 582 c 0
 372 502 327 471 247 471 c 0
 195 471 132 485 132 485 c 1
 162 570 l 1
 162 570 215 561 252 561 c 0
 269 561 279 566 281 576 c 0
 284 587 281 592 271 592 c 0
 262 592 244 588 244 588 c 1
 169 599 l 1xf0
 227 790 l 1
EndSplineSet
Substitution2: "Single Substitution lookup 5 subtable" fiveinferior
EndChar
StartChar: sixsuperior
Encoding: 8310 8310 262
Width: 280
Flags: MW
HStem: 467 92<264.5 275 264.5 289.5> 601 86<275 357.5> 708 93<309 336>
VStem: 151 109 292 113
LayerCount: 2
Back
Fore
SplineSet
442 789 m 1
 415 702 l 1
 415 702 350 708 322 708 c 0xb8
 296 708 286 695 283 682 c 1
 297 685 312 687 322 687 c 0xf8
 393 687 417 651 400 582 c 0
 379 502 327 467 252 467 c 0
 160 467 135 525 160 622 c 0
 188 734 235 801 341 801 c 0
 377 801 442 789 442 789 c 1
281 601 m 0xf8
 269 601 260 593 260 593 c 1
 256 574 259 559 270 559 c 0
 280 559 289 567 292 580 c 0
 296 594 291 601 281 601 c 0xf8
EndSplineSet
Substitution2: "Single Substitution lookup 5 subtable" sixinferior
EndChar
StartChar: sevensuperior
Encoding: 8311 8311 263
Width: 280
Flags: MW
HStem: 685 105<183 436 209 282>
VStem: 140 296
LayerCount: 2
Back
Fore
SplineSet
183 685 m 1
 209 790 l 1
 436 790 l 1
 411 689 l 1
 261 468 l 1
 140 489 l 1
 279 672 l 1
 282 685 l 1
 183 685 l 1
EndSplineSet
Substitution2: "Single Substitution lookup 5 subtable" seveninferior
EndChar
StartChar: eightsuperior
Encoding: 8312 8312 264
Width: 280
Flags: MW
HStem: 467 85<260.5 273.5 260.5 287> 716 85<302.5 314>
VStem: 139 115 180 105 386 17
LayerCount: 2
Back
Fore
SplineSet
329 801 m 0xe8
 413 801 445 769 431 711 c 0
 420 666 386 640 386 640 c 1
 386 640 413 622 400 572 c 0
 380 493 328 467 246 467 c 0xe8
 163 467 124 493 144 572 c 0
 155 617 193 641 193 641 c 1
 193 641 171 661 184 712 c 0xd8
 198 769 244 801 329 801 c 0xe8
267 552 m 0
 280 552 288 561 292 574 c 0
 294 582 290 593 286 599 c 1
 272 599 l 1
 264 593 256 582 254 574 c 0
 250 561 254 552 267 552 c 0
308 716 m 0xd8
 297 716 289 710 285 697 c 0
 283 689 287 678 290 672 c 1
 304 672 l 1
 311 678 319 689 321 697 c 0
 324 709 320 716 308 716 c 0xd8
EndSplineSet
Substitution2: "Single Substitution lookup 5 subtable" eightinferior
EndChar
StartChar: ninesuperior
Encoding: 8313 8313 265
Width: 280
Flags: MW
HStem: 467 95<227 259.5 227 287.5> 581 82<214 294> 669 21G<310 310> 708 93<296 307>
VStem: 167 112 313 107
LayerCount: 2
Back
Fore
SplineSet
132 481 m 1
 160 568 l 1
 160 568 208 562 246 562 c 0xbc
 273 562 282 575 284 585 c 0
 285 586 265 581 248 581 c 0xdc
 180 581 155 616 172 685 c 0
 191 759 245 801 320 801 c 0
 413 801 437 743 410 636 c 0
 381 521 338 467 237 467 c 0
 189 467 132 481 132 481 c 1
290 663 m 0
 298 663 310 669 310 669 c 1xbc
 317 696 313 708 301 708 c 0
 291 708 283 699 279 685 c 0xdc
 276 671 282 663 290 663 c 0
EndSplineSet
Substitution2: "Single Substitution lookup 5 subtable" nineinferior
EndChar
StartChar: zeroinferior
Encoding: 8320 8320 422
Width: 280
Flags: MW
HStem: -11 95<152.5 153.5> 228 95<200 202>
VStem: 35 112 207 109
LayerCount: 2
Back
Fore
SplineSet
218 323 m 0
 300 323 337 282 305 154 c 0
 287 81 264 35 230 11 c 0
 204 -7 172 -11 135 -11 c 0
 50 -11 15 26 47 154 c 0
 65 227 90 274 124 299 c 0
 150 318 182 323 218 323 c 0
195 228 m 0
 182 228 174 220 157 154 c 0
 141 89 146 84 159 84 c 0
 173 84 179 89 195 154 c 0
 212 220 209 228 195 228 c 0
EndSplineSet
Substitution2: "'frac' Diagonal Fractions in Latin lookup 1 subtable" zerosuperior
EndChar
StartChar: oneinferior
Encoding: 8321 8321 423
Width: 280
Flags: MW
HStem: -100 312<189 208 102 285>
VStem: 65 220<137 212>
LayerCount: 2
Back
Fore
SplineSet
65 137 m 1
 189 212 l 1
 285 212 l 1
 208 -100 l 1
 102 -100 l 1
 150 95 l 1
 95 63 l 1
 65 137 l 1
EndSplineSet
Substitution2: "'frac' Diagonal Fractions in Latin lookup 1 subtable" onesuperior
EndChar
StartChar: twoinferior
Encoding: 8322 8322 424
Width: 280
Flags: MW
HStem: -100 95<156 227> 121 102<122 237.5>
VStem: 166 122
LayerCount: 2
Back
Fore
SplineSet
227 -100 m 1
 -4 -100 l 1
 18 -10 l 1
 106 49 l 2
 147 76 162 91 166 106 c 0
 169 118 158 121 133 121 c 0
 111 121 55 115 55 115 c 1
 76 214 l 1
 76 214 151 223 196 223 c 0
 279 223 300 194 282 123 c 0
 271 78 249 52 201 23 c 2
 156 -5 l 1
 250 -5 l 1
 227 -100 l 1
EndSplineSet
Substitution2: "'frac' Diagonal Fractions in Latin lookup 1 subtable" twosuperior
EndChar
StartChar: threeinferior
Encoding: 8323 8323 425
Width: 280
Flags: MW
HStem: -111 95<96.5 123.5 96.5 146.5> 14 85<78 123 57 142> 128 95<124.5 224>
VStem: 146 112 166 120
LayerCount: 2
Back
Fore
SplineSet
74 214 m 1x68
 74 214 144 223 184 223 c 0
 264 223 298 195 283 134 c 0x68
 275 100 258 75 237 64 c 1
 257 54 264 34 253 -9 c 0
 236 -78 183 -111 110 -111 c 0
 61 -111 -9 -103 -9 -103 c 1
 20 -10 l 1
 20 -10 80 -16 113 -16 c 0xd0
 134 -16 143 -12 146 0 c 0
 149 12 141 14 123 14 c 2
 57 14 l 1
 78 99 l 1x50
 142 99 l 2x48
 155 99 163 103 166 113 c 0
 169 125 159 128 143 128 c 0
 106 128 57 123 57 123 c 1
 74 214 l 1x68
EndSplineSet
Substitution2: "'frac' Diagonal Fractions in Latin lookup 1 subtable" threesuperior
EndChar
StartChar: fourinferior
Encoding: 8324 8324 426
Width: 280
Flags: MW
HStem: -65 95<130 133 130 238 130 249>
VStem: -2 287<-65 120>
LayerCount: 2
Back
Fore
SplineSet
125 -100 m 1
 133 -65 l 1
 -2 -65 l 1
 20 23 l 1
 109 212 l 1
 227 212 l 1
 130 30 l 1
 157 30 l 1
 194 120 l 1
 285 120 l 1
 262 30 l 1
 273 30 l 1
 249 -65 l 1
 238 -65 l 1
 230 -100 l 1
 125 -100 l 1
EndSplineSet
Substitution2: "'frac' Diagonal Fractions in Latin lookup 1 subtable" foursuperior
EndChar
StartChar: fiveinferior
Encoding: 8325 8325 427
Width: 280
Flags: MW
HStem: -107 90<95.5 122.5 95.5 149> 14 89<128.5 214.5> 122 90<150 274 150 150>
VStem: 143 116
LayerCount: 2
Back
Fore
SplineSet
89 212 m 1
 296 212 l 1
 274 122 l 1
 150 122 l 1x30
 141 97 l 1
 141 97 170 103 186 103 c 0
 243 103 272 73 255 4 c 0
 234 -76 189 -107 109 -107 c 0
 57 -107 -6 -93 -6 -93 c 1
 24 -8 l 1
 24 -8 77 -17 114 -17 c 0
 131 -17 141 -12 143 -2 c 0
 146 9 143 14 133 14 c 0
 124 14 106 10 106 10 c 1
 31 21 l 1xf0
 89 212 l 1
EndSplineSet
Substitution2: "'frac' Diagonal Fractions in Latin lookup 1 subtable" fivesuperior
EndChar
StartChar: sixinferior
Encoding: 8326 8326 428
Width: 280
Flags: MW
HStem: -111 92<130.5 141 130.5 155.5> 23 86<141 223.5> 130 93<175 202>
VStem: 17 109 158 113
LayerCount: 2
Back
Fore
SplineSet
308 211 m 1
 281 124 l 1
 281 124 216 130 188 130 c 0xb8
 162 130 152 117 149 104 c 1
 163 107 178 109 188 109 c 0xf8
 259 109 283 73 266 4 c 0
 245 -76 193 -111 118 -111 c 0
 26 -111 1 -53 26 44 c 0
 54 156 101 223 207 223 c 0
 243 223 308 211 308 211 c 1
147 23 m 0xf8
 135 23 126 15 126 15 c 1
 122 -4 125 -19 136 -19 c 0
 146 -19 155 -11 158 2 c 0
 162 16 157 23 147 23 c 0xf8
EndSplineSet
Substitution2: "'frac' Diagonal Fractions in Latin lookup 1 subtable" sixsuperior
EndChar
StartChar: seveninferior
Encoding: 8327 8327 429
Width: 280
Flags: MW
HStem: 107 105<50 303 76 149>
VStem: 7 296
LayerCount: 2
Back
Fore
SplineSet
50 107 m 1
 76 212 l 1
 303 212 l 1
 278 111 l 1
 128 -110 l 1
 7 -89 l 1
 146 94 l 1
 149 107 l 1
 50 107 l 1
EndSplineSet
Substitution2: "'frac' Diagonal Fractions in Latin lookup 1 subtable" sevensuperior
EndChar
StartChar: eightinferior
Encoding: 8328 8328 430
Width: 280
Flags: MW
HStem: -111 85<125.5 138.5 125.5 152> 138 85<167.5 179>
VStem: 4 115 45 105 251 17
LayerCount: 2
Back
Fore
SplineSet
194 223 m 0xe8
 278 223 310 191 296 133 c 0
 285 88 251 62 251 62 c 1
 251 62 278 44 265 -6 c 0
 245 -85 193 -111 111 -111 c 0xe8
 28 -111 -11 -85 9 -6 c 0
 20 39 58 63 58 63 c 1
 58 63 36 83 49 134 c 0xd8
 63 191 109 223 194 223 c 0xe8
132 -26 m 0
 145 -26 153 -17 157 -4 c 0
 159 4 155 15 151 21 c 1
 137 21 l 1
 129 15 121 4 119 -4 c 0
 115 -17 119 -26 132 -26 c 0
173 138 m 0xd8
 162 138 154 132 150 119 c 0
 148 111 152 100 155 94 c 1
 169 94 l 1
 176 100 184 111 186 119 c 0
 189 131 185 138 173 138 c 0xd8
EndSplineSet
Substitution2: "'frac' Diagonal Fractions in Latin lookup 1 subtable" eightsuperior
EndChar
StartChar: nineinferior
Encoding: 8329 8329 431
Width: 280
Flags: MW
HStem: -111 95<94 126.5 94 154.5> 3 82<81 161> 130 93<163 174>
VStem: 34 112 180 107
LayerCount: 2
Back
Fore
SplineSet
-1 -97 m 1
 27 -10 l 1
 27 -10 75 -16 113 -16 c 0xb8
 140 -16 149 -3 151 7 c 0
 152 8 132 3 115 3 c 0xf8
 47 3 22 38 39 107 c 0
 58 181 112 223 187 223 c 0
 280 223 304 165 277 58 c 0
 248 -57 205 -111 104 -111 c 0
 56 -111 -1 -97 -1 -97 c 1
157 85 m 0xf8
 165 85 177 91 177 91 c 1
 184 118 180 130 168 130 c 0
 158 130 150 121 146 107 c 0
 143 93 149 85 157 85 c 0xf8
EndSplineSet
Substitution2: "'frac' Diagonal Fractions in Latin lookup 1 subtable" ninesuperior
EndChar
StartChar: Euro
Encoding: 8364 8364 246
Width: 560
Flags: MW
HStem: -12 117<339 385> 183 105<115 149 91 156 294 492> 357 105<155 170 130 204 155 308 349 531> 555 117<456 524>
VStem: 149 138<180 183 183 183>
LayerCount: 2
Back
Fore
SplineSet
523 117 m 1
 512 14 l 1
 512 14 422 -12 348 -12 c 0
 213 -12 149 57 149 180 c 2
 149 183 l 1
 91 183 l 1
 115 288 l 1
 156 288 l 1
 160 311 164 334 170 357 c 1
 130 357 l 1
 155 462 l 1
 204 462 l 1
 256 579 346 672 489 672 c 0
 569 672 655 643 655 643 c 1
 624 544 l 1
 624 544 564 555 484 555 c 0
 428 555 382 518 349 462 c 1
 555 462 l 1
 531 357 l 1
 308 357 l 1
 302 335 297 312 294 288 c 1
 516 288 l 1
 492 183 l 1
 287 183 l 1
 288 133 312 105 366 105 c 0
 441 105 523 117 523 117 c 1
EndSplineSet
EndChar
StartChar: trademark
Encoding: 8482 8482 159
Width: 689
Flags: MW
HStem: 331 313<214 439 439 521 648 648 648 730> 565 79<214 414 214 285 373 373 373 414>
VStem: 285 88<332 565 332 565> 439 82<331 505 331 644> 648 82<331 505 505 505>
LayerCount: 2
Back
Fore
SplineSet
214 565 m 1x78
 214 644 l 1
 414 644 l 1
 414 565 l 1
 373 565 l 1
 373 332 l 1
 285 332 l 1
 285 565 l 1
 214 565 l 1x78
439 331 m 1
 439 644 l 1
 542 644 l 1x78
 583 486 l 1
 628 644 l 1
 730 644 l 1
 730 331 l 1
 648 331 l 1
 648 505 l 1
 614 352 l 1
 559 352 l 1xb8
 521 505 l 1
 521 331 l 1
 439 331 l 1
EndSplineSet
EndChar
StartChar: Omega
Encoding: 8486 8486 279
Width: 560
Flags: MW
HStem: -9 114<115 195 115 323 115 195 491 571> 552 120<300.5 385.5>
VStem: 103 142<299 423 287.5 484.5> 115 208<-9 90 -9 105 -9 105> 363 208<-9 90 90 90> 441 142<299 423>
LayerCount: 2
Back
Fore
SplineSet
115 105 m 1xd4
 195 105 l 1
 195 105 103 213 103 385 c 0
 103 584 170 672 343 672 c 0
 516 672 583 584 583 385 c 0xe4
 583 213 491 105 491 105 c 1
 571 105 l 1
 571 -9 l 1
 363 -9 l 1xe8
 363 90 l 1
 363 90 441 225 441 350 c 0
 441 496 428 552 343 552 c 0
 258 552 245 496 245 350 c 0xe4
 245 225 323 90 323 90 c 1
 323 -9 l 1
 115 -9 l 1
 115 105 l 1xd4
EndSplineSet
EndChar
StartChar: partialdiff
Encoding: 8706 8706 413
Width: 560
Flags: MW
HStem: -9 114<310.5 380 310.5 435> 324 114<310.5 362 258 381> 598 114<295 370>
VStem: 109 144<182 247 182 287> 455 144<231 302 414 414>
LayerCount: 2
Back
Fore
SplineSet
166 564 m 1
 162 667 l 1
 162 667 247 712 343 712 c 0
 526 712 599 593 599 347 c 0
 599 106 526 -9 344 -9 c 0
 191 -9 109 64 109 216 c 0
 109 358 188 438 328 438 c 0
 396 438 455 414 455 414 c 1
 447 550 420 598 320 598 c 0
 247 598 166 564 166 564 c 1
345 324 m 0
 276 324 253 278 253 216 c 0
 253 148 277 105 344 105 c 0
 416 105 455 160 455 302 c 1
 455 302 417 324 345 324 c 0
EndSplineSet
EndChar
StartChar: Delta
Encoding: 8710 8710 278
Width: 560
Flags: MW
HStem: 0 114<215 421 215 554> 548 112<305 332 305 305>
VStem: 82 472<0 102 0 104 0 104>
LayerCount: 2
Back
Fore
SplineSet
82 104 m 1
 206 660 l 1
 431 660 l 1
 554 102 l 1
 554 0 l 1
 82 0 l 1
 82 104 l 1
332 548 m 1
 305 548 l 1
 215 114 l 1
 421 114 l 1
 332 548 l 1
EndSplineSet
EndChar
StartChar: product
Encoding: 8719 8719 409
Width: 560
Flags: MW
HStem: 640 120<125 178 125 624 316 429 316 316 567 567 567 624>
VStem: 178 138<-180 640 -180 640> 429 138<-180 640 -180 640>
LayerCount: 2
Back
Fore
SplineSet
429 -180 m 1
 429 640 l 1
 316 640 l 1
 316 -180 l 1
 178 -180 l 1
 178 640 l 1
 125 640 l 1
 125 760 l 1
 624 760 l 1
 624 640 l 1
 567 640 l 1
 567 -180 l 1
 429 -180 l 1
EndSplineSet
EndChar
StartChar: summation
Encoding: 8721 8721 146
Width: 560
Flags: MW
HStem: -180 120<242 596 242 596> 640 120<242 596 242 242>
VStem: 96 146<-60 -45 -60 -41 -60 -41 625 640>
LayerCount: 2
Back
Fore
SplineSet
334 298 m 1
 96 620 l 1
 96 760 l 1
 596 760 l 1
 596 640 l 1
 242 640 l 1
 242 625 l 1
 457 344 l 1
 457 251 l 1
 242 -45 l 1
 242 -60 l 1
 596 -60 l 1
 596 -180 l 1
 96 -180 l 1
 96 -41 l 1
 334 298 l 1
EndSplineSet
EndChar
StartChar: minus
Encoding: 8722 8722 182
Width: 560
Flags: MW
HStem: 191 120<119 555 119 555>
VStem: 119 436<191 311 191 311>
LayerCount: 2
Back
Fore
SplineSet
119 191 m 1
 119 311 l 1
 555 311 l 1
 555 191 l 1
 119 191 l 1
EndSplineSet
EndChar
StartChar: radical
Encoding: 8730 8730 408
Width: 560
Flags: MW
HStem: -130 114<359 372 359 471 257 372> 320 120<101 267 101 155>
VStem: 101 570<320 791 440 791>
LayerCount: 2
Back
Fore
SplineSet
101 320 m 1
 101 440 l 1
 267 440 l 1
 359 -16 l 1
 372 -16 l 1
 535 791 l 1
 671 791 l 1
 471 -130 l 1
 257 -130 l 1
 155 320 l 1
 101 320 l 1
EndSplineSet
EndChar
StartChar: infinity
Encoding: 8734 8734 362
Width: 560
Flags: MW
HStem: 121 115<238.5 256.5 437.5 455.5> 348 115<238 255 187 261.5 438.5 456>
VStem: 94 122<275 308 275 349> 478 122<275 308>
LayerCount: 2
Back
Fore
SplineSet
233 121 m 0
 143 121 94 177 94 291 c 0
 94 407 143 463 231 463 c 0
 279 463 316 444 347 385 c 1
 378 444 414 463 463 463 c 0
 551 463 600 407 600 292 c 0
 600 177 551 121 461 121 c 0
 414 121 377 139 347 198 c 1
 316 139 280 121 233 121 c 0
302 292 m 1
 285 326 271 348 252 348 c 0
 224 348 216 325 216 291 c 0
 216 259 225 236 252 236 c 0
 271 236 285 260 302 292 c 1
392 292 m 1
 409 260 423 236 442 236 c 0
 469 236 478 259 478 291 c 0
 478 325 470 348 442 348 c 0
 423 348 409 326 392 292 c 1
EndSplineSet
EndChar
StartChar: integral
Encoding: 8747 8747 412
Width: 560
Flags: MW
HStem: -199 120<213 308> 661 120<445 446 372 480>
VStem: 278 138<-13 592>
LayerCount: 2
Back
Fore
SplineSet
416 -16 m 2
 416 -158 349 -199 267 -199 c 0
 228 -199 170 -186 170 -186 c 1
 174 -76 l 1
 174 -76 199 -79 227 -79 c 0
 265 -79 278 -63 278 -13 c 2
 278 593 l 2
 278 736 317 781 427 781 c 0
 465 781 532 767 532 767 c 1
 528 657 l 1
 528 657 496 661 464 661 c 0
 426 661 416 642 416 592 c 2
 416 -16 l 2
EndSplineSet
EndChar
StartChar: approxequal
Encoding: 8776 8776 363
Width: 560
Flags: MW
HStem: 45 120<419 463 419 470.5> 89 120<210 253.5> 265 120<419 463 419 470.5> 309 120<210 253.5>
VStem: 114 441<96 157 96 377>
LayerCount: 2
Back
Fore
SplineSet
546 423 m 1xa8
 555 316 l 1
 555 316 501 265 440 265 c 0xa8
 386 265 273 309 234 309 c 0
 186 309 124 270 124 270 c 1
 114 377 l 1
 114 377 178 429 238 429 c 0x98
 293 429 395 385 443 385 c 0
 483 385 546 423 546 423 c 1xa8
546 203 m 1
 555 96 l 1
 555 96 501 45 440 45 c 0xa8
 386 45 273 89 234 89 c 0
 186 89 124 50 124 50 c 1
 114 157 l 1
 114 157 178 209 238 209 c 0x68
 293 209 395 165 443 165 c 0
 483 165 546 203 546 203 c 1
EndSplineSet
EndChar
StartChar: notequal
Encoding: 8800 8800 222
Width: 560
Flags: MW
HStem: 87 121<116 200 116 253 375 560 116 322> 295 121<116 344 116 291 116 413 466 560>
VStem: 116 444<87 208 87 208 295 416 87 416>
LayerCount: 2
Back
Fore
SplineSet
116 295 m 1
 116 416 l 1
 344 416 l 1
 412 570 l 1
 516 529 l 1
 466 416 l 1
 560 416 l 1
 560 295 l 1
 413 295 l 1
 375 208 l 1
 560 208 l 1
 560 87 l 1
 322 87 l 1
 259 -56 l 1
 155 -15 l 1
 200 87 l 1
 116 87 l 1
 116 208 l 1
 253 208 l 1
 291 295 l 1
 116 295 l 1
EndSplineSet
EndChar
StartChar: lessequal
Encoding: 8804 8804 275
Width: 560
Flags: MW
HStem: 19 120<118 539 118 539>
VStem: 118 421<19 139 19 139 274 283 386 390 390 390>
LayerCount: 2
Back
Fore
SplineSet
539 386 m 1
 267 337 l 1
 539 283 l 1
 539 153 l 1
 118 274 l 1
 118 390 l 1
 539 516 l 1
 539 386 l 1
118 19 m 1
 118 139 l 1
 539 139 l 1
 539 19 l 1
 118 19 l 1
EndSplineSet
EndChar
StartChar: greaterequal
Encoding: 8805 8805 276
Width: 560
Flags: MW
HStem: 19 120<130 551 130 551>
VStem: 130 421<19 139 19 139 274 283 283 283 386 390 19 516 19 516>
LayerCount: 2
Back
Fore
SplineSet
402 337 m 1
 130 386 l 1
 130 516 l 1
 551 390 l 1
 551 274 l 1
 130 153 l 1
 130 283 l 1
 402 337 l 1
551 139 m 1
 551 19 l 1
 130 19 l 1
 130 139 l 1
 551 139 l 1
EndSplineSet
EndChar
StartChar: lozenge
Encoding: 9674 9674 410
Width: 560
Flags: MW
HStem: 0 114<268 364 347 364 347 443> 546 114<347 364 347 347>
VStem: 119 472<324 324>
LayerCount: 2
Back
Fore
SplineSet
268 0 m 1
 119 324 l 1
 268 660 l 1
 443 660 l 1
 591 324 l 1
 443 0 l 1
 268 0 l 1
364 114 m 1
 458 324 l 1
 364 546 l 1
 347 546 l 1
 252 324 l 1
 347 114 l 1
 364 114 l 1
EndSplineSet
EndChar
StartChar: dotlessj
Encoding: 63166 63166 406
Width: 244
Flags: MW
HStem: -230 21G<-28 -28> 480 20G<170 304 304 304>
VStem: -70 374
LayerCount: 2
Back
Fore
SplineSet
55 0 m 2
 170 500 l 1
 304 500 l 1
 189 0 l 2
 157 -138 147 -153 -28 -230 c 1
 -70 -123 l 1
 34 -69 41 -61 55 0 c 2
EndSplineSet
EndChar
StartChar: commaaccent
Encoding: 63171 63171 7
Width: 161
Flags: MW
HStem: -309 237<-77 143 20 36>
VStem: -77 220
LayerCount: 2
Back
Fore
SplineSet
-77 -309 m 1
 20 -72 l 1
 143 -72 l 1
 36 -309 l 1
 -77 -309 l 1
EndSplineSet
EndChar
StartChar: acute.cap.001
Encoding: 65593 -1 452
Width: 528
Flags: MW
HStem: 765 197
VStem: 289 274<842 871>
LayerCount: 2
Back
Fore
SplineSet
299 765 m 1
 289 871 l 1
 553 962 l 1
 563 842 l 1
 299 765 l 1
EndSplineSet
EndChar
StartChar: at.cap
Encoding: 65581 -1 420
Width: 906
Flags: MW
HStem: -127 112<354 479.5> 68 114 70 127<754.5 787.5 754.5 802.5> 478 114<520.5 565> 695 112<490 753>
VStem: 68 125 295 135 888 122
LayerCount: 2
Back
Fore
SplineSet
626 807 m 0xbf
 976 807 1052 608 991 375 c 0
 934 158 867 70 738 70 c 0xbf
 682 70 645 84 625 114 c 1
 585 94 495 68 436 68 c 0xdf
 299 68 281 210 303 322 c 0
 335 482 412 592 555 592 c 0
 599 592 686 578 799 559 c 1
 791 524 732 262 728 230 c 0
 725 206 741 197 768 197 c 0
 807 197 834 247 870 387 c 0
 912 554 900 695 606 695 c 0
 374 695 257 566 206 351 c 0
 162 164 220 -15 488 -15 c 0
 526 -15 625 -6 625 -6 c 1
 599 -117 l 1
 599 -117 502 -127 457 -127 c 0
 138 -127 24 108 82 351 c 0
 161 681 336 807 626 807 c 0xbf
471 182 m 0xdf
 511 181 562 201 593 220 c 1
 596 254 626 384 645 464 c 1
 622 469 576 478 554 478 c 0
 487 478 456 402 438 322 c 0
 420 242 432 184 471 182 c 0xdf
EndSplineSet
Position2: "'cpsp' Capital Spacing in Latin lookup 0 subtable" dx=5 dy=0 dh=10 dv=0
EndChar
StartChar: braceleft.cap
Encoding: 65559 -1 288
Width: 288
Flags: MW
HStem: -103 115<206 285> -103 892<206 465>
VStem: 95 132<-18 78> 137 135<230 235>
LayerCount: 2
Back
Fore
SplineSet
272 249 m 0x50
 272 211 227 96 227 60 c 0
 227 30 247 12 285 12 c 1
 254 -103 l 1
 158 -103 95 -58 95 22 c 0xa0
 95 63 137 180 137 220 c 0
 137 250 121 278 70 305 c 1
 94 400 l 1
 182 423 192 445 203 487 c 0
 210 511 232 633 232 633 c 1
 266 747 332 784 465 789 c 1
 443 674 l 1
 385 669 364 641 354 602 c 2
 330 476 l 1
 311 398 279 367 211 343 c 1
 252 320 272 297 272 249 c 0x50
EndSplineSet
Position2: "'cpsp' Capital Spacing in Latin lookup 0 subtable" dx=5 dy=0 dh=10 dv=0
EndChar
StartChar: braceright.cap
Encoding: 65560 -1 289
Width: 287
Flags: MW
HStem: 671 21G<160 179> 671 115<160 239>
VStem: 173 135<448 453> 218 132<605 701>
LayerCount: 2
Back
Fore
SplineSet
173 434 m 0xa0
 173 472 218 587 218 623 c 0
 218 653 198 671 160 671 c 1
 191 786 l 1
 287 786 350 741 350 661 c 0x50
 350 620 308 503 308 463 c 0
 308 433 324 405 375 378 c 1
 351 283 l 1
 263 260 253 238 242 196 c 0
 235 172 213 50 213 50 c 1
 179 -64 113 -101 -20 -106 c 1
 2 9 l 1
 60 14 81 42 91 81 c 2
 115 207 l 1
 134 285 166 316 234 340 c 1
 193 363 173 386 173 434 c 0xa0
EndSplineSet
Position2: "'cpsp' Capital Spacing in Latin lookup 0 subtable" dx=5 dy=0 dh=10 dv=0
EndChar
StartChar: bracketleft.cap
Encoding: 65557 -1 286
Width: 245
Flags: MW
HStem: -92 114<157 217> 663 114<306 394 306 306>
VStem: -9 431
LayerCount: 2
Back
Fore
SplineSet
193 777 m 1
 422 777 l 1
 394 663 l 1
 306 663 l 1
 157 22 l 1
 245 22 l 1
 217 -92 l 1
 -9 -92 l 1
 193 777 l 1
EndSplineSet
Position2: "'cpsp' Capital Spacing in Latin lookup 0 subtable" dx=5 dy=0 dh=10 dv=0
EndChar
StartChar: bracketright.cap
Encoding: 65558 -1 287
Width: 245
Flags: MW
HStem: -92 114<9 97 9 210 -19 97> 663 114<186 246 158 412>
VStem: -19 431
LayerCount: 2
Back
Fore
SplineSet
210 -92 m 1
 -19 -92 l 1
 9 22 l 1
 97 22 l 1
 246 663 l 1
 158 663 l 1
 186 777 l 1
 412 777 l 1
 210 -92 l 1
EndSplineSet
Position2: "'cpsp' Capital Spacing in Latin lookup 0 subtable" dx=5 dy=0 dh=10 dv=0
EndChar
StartChar: breve.cap
Encoding: 65566 -1 295
Width: 462
Flags: MW
HStem: 783 144<346.5 383 261 454.5>
VStem: 259 334
LayerCount: 2
Back
Fore
SplineSet
261 927 m 1
 383 927 l 1
 379 899 392 888 418 888 c 0
 444 888 462 904 471 927 c 1
 593 927 l 1
 563 840 513 783 396 783 c 0
 297 783 249 835 261 927 c 1
EndSplineSet
EndChar
StartChar: caron.cap
Encoding: 65562 -1 291
Width: 462
Flags: MW
HStem: 776 151<341 380 248 433 341 341>
VStem: 248 345<927 927>
LayerCount: 2
Back
Fore
SplineSet
593 927 m 1
 433 776 l 1
 341 776 l 1
 248 927 l 1
 380 927 l 1
 409 870 l 1
 462 927 l 1
 593 927 l 1
EndSplineSet
EndChar
StartChar: circumflex.cap.001
Encoding: 65594 -1 453
Width: 462
Flags: MW
HStem: 779 152<213 469 443 443 443 469 389 565>
VStem: 213 352<779 779>
LayerCount: 2
Back
Fore
SplineSet
213 779 m 1
 389 931 l 1
 469 931 l 1
 565 779 l 1
 443 779 l 1
 417 834 l 1
 355 779 l 1
 213 779 l 1
EndSplineSet
EndChar
StartChar: dieresis.cap
Encoding: 65564 -1 293
Width: 410
Flags: MW
HStem: 788 135<256 398 287 366 486 564 287 455>
VStem: 256 341<788 923>
LayerCount: 2
Back
Fore
SplineSet
256 788 m 1
 287 923 l 1
 398 923 l 1
 366 788 l 1
 256 788 l 1
455 788 m 1
 486 923 l 1
 597 923 l 1
 564 788 l 1
 455 788 l 1
EndSplineSet
EndChar
StartChar: dotaccent.cap
Encoding: 65569 -1 298
Width: 255
Flags: MW
HStem: 771 138<250 400 282 366>
VStem: 250 150<771 909>
LayerCount: 2
Back
Fore
SplineSet
250 771 m 1
 282 909 l 1
 400 909 l 1
 366 771 l 1
 250 771 l 1
EndSplineSet
EndChar
StartChar: eight.dnom
Encoding: 65590 -1 440
Width: 280
Flags: MW
HStem: -111 85<126.5 139.5 126.5 153> 138 85<168.5 180>
VStem: 5 115 46 105 252 17
LayerCount: 2
Back
Fore
SplineSet
195 223 m 0xe8
 279 223 311 191 297 133 c 0
 286 88 252 62 252 62 c 1
 252 62 279 44 266 -6 c 0
 246 -85 194 -111 112 -111 c 0xe8
 29 -111 -10 -85 10 -6 c 0
 21 39 59 63 59 63 c 1
 59 63 37 83 50 134 c 0xd8
 64 191 110 223 195 223 c 0xe8
133 -26 m 0
 146 -26 154 -17 158 -4 c 0
 160 4 156 15 152 21 c 1
 138 21 l 1
 130 15 122 4 120 -4 c 0
 116 -17 120 -26 133 -26 c 0
174 138 m 0xd8
 163 138 155 132 151 119 c 0
 149 111 153 100 156 94 c 1
 170 94 l 1
 177 100 185 111 187 119 c 0
 190 131 186 138 174 138 c 0xd8
EndSplineSet
Substitution2: "'frac' Diagonal Fractions in Latin lookup 1 subtable" eightsuperior
EndChar
StartChar: eight.numr
Encoding: 65578 -1 378
Width: 280
Flags: MW
HStem: 367 85<234.5 247.5 234.5 261> 616 85<276.5 288>
VStem: 113 115 154 105 360 17
LayerCount: 2
Back
Fore
SplineSet
303 701 m 0xe8
 387 701 419 669 405 611 c 0
 394 566 360 540 360 540 c 1
 360 540 387 522 374 472 c 0
 354 393 302 367 220 367 c 0xe8
 137 367 98 393 118 472 c 0
 129 517 167 541 167 541 c 1
 167 541 145 561 158 612 c 0xd8
 172 669 218 701 303 701 c 0xe8
241 452 m 0
 254 452 262 461 266 474 c 0
 268 482 264 493 260 499 c 1
 246 499 l 1
 238 493 230 482 228 474 c 0
 224 461 228 452 241 452 c 0
282 616 m 0xd8
 271 616 263 610 259 597 c 0
 257 589 261 578 264 572 c 1
 278 572 l 1
 285 578 293 589 295 597 c 0
 298 609 294 616 282 616 c 0xd8
EndSplineSet
Substitution2: "'frac' Diagonal Fractions in Latin lookup 1 subtable" eightsuperior
EndChar
StartChar: eight.pnum
Encoding: 65548 -1 202
Width: 478
Flags: MW
HStem: -10 127<232.5 307 232.5 340> 200 117<271 329 241 359> 392 117<289 360>
VStem: 30 155<142 144> 99 146<340.5 351.5 340 387> 365 146<158 178> 404 153<366.5 371>
LayerCount: 2
Back
Fore
SplineSet
361 509 m 0xea
 493 509 557 454 557 394 c 0xea
 557 339 524 293 457 265 c 1
 501 231 511 195 511 169 c 0
 511 84 448 -10 232 -10 c 0
 103 -10 30 42 30 109 c 0xf4
 30 179 78 233 148 265 c 1
 100 301 99 335 99 346 c 0
 99 428 185 509 361 509 c 0xea
264 117 m 0xf4
 350 117 365 147 365 169 c 0
 365 187 353 196 329 200 c 1
 241 200 l 1
 199 194 185 169 185 151 c 0
 185 133 201 117 264 117 c 0xf4
332 392 m 0xea
 246 392 245 358 245 345 c 0
 245 335 249 326 271 317 c 1
 359 317 l 1
 394 329 404 346 404 363 c 0
 404 379 388 392 332 392 c 0xea
EndSplineSet
Substitution2: "'frac' Diagonal Fractions in Latin lookup 1 subtable" eightsuperior
EndChar
StartChar: emdash.cap
Encoding: 65552 -1 270
Width: 1027
Flags: MW
HStem: 239 114<82 1082 82 1082>
VStem: 82 1000<239 353 239 353>
LayerCount: 2
Back
Fore
SplineSet
82 353 m 1
 1082 353 l 1
 1082 239 l 1
 82 239 l 1
 82 353 l 1
EndSplineSet
Position2: "'cpsp' Capital Spacing in Latin lookup 0 subtable" dx=5 dy=0 dh=10 dv=0
EndChar
StartChar: endash.cap
Encoding: 65551 -1 269
Width: 527
Flags: MW
HStem: 239 114<82 582 82 582>
VStem: 82 500<239 353 239 353>
LayerCount: 2
Back
Fore
SplineSet
82 353 m 1
 582 353 l 1
 582 239 l 1
 82 239 l 1
 82 353 l 1
EndSplineSet
Position2: "'cpsp' Capital Spacing in Latin lookup 0 subtable" dx=5 dy=0 dh=10 dv=0
EndChar
StartChar: exclamdown.cap
Encoding: 65554 -1 282
Width: 163
Flags: MW
HStem: 527 153<170 271 135 306>
VStem: 5 301
LayerCount: 2
Back
Fore
SplineSet
243 422 m 1
 148 -20 l 1
 5 -20 l 1
 117 422 l 1
 243 422 l 1
306 680 m 1
 271 527 l 1
 135 527 l 1
 170 680 l 1
 306 680 l 1
EndSplineSet
EndChar
StartChar: five.numr
Encoding: 65575 -1 375
Width: 280
Flags: MW
HStem: 371 90<210.5 237.5 210.5 264> 479 20G<146 146> 492 89<243.5 329.5> 600 90<265 389 265 265>
VStem: 258 116
LayerCount: 2
Back
Fore
SplineSet
204 690 m 1x58
 411 690 l 1
 389 600 l 1
 265 600 l 1x58
 256 575 l 1
 256 575 285 581 301 581 c 0
 358 581 387 551 370 482 c 0
 349 402 304 371 224 371 c 0
 172 371 109 385 109 385 c 1
 139 470 l 1
 139 470 192 461 229 461 c 0
 246 461 256 466 258 476 c 0
 261 487 258 492 248 492 c 0
 239 492 221 488 221 488 c 1xb8
 146 499 l 1
 204 690 l 1x58
EndSplineSet
Substitution2: "'frac' Diagonal Fractions in Latin lookup 1 subtable" fivesuperior
EndChar
StartChar: five.pnum
Encoding: 65545 -1 199
Width: 461
Flags: MW
HStem: -9 122<216 282 216 322.5> 205 116<290 302.5> 368 132<251 522 251 251>
VStem: 353 144<146.5 179>
LayerCount: 2
Back
Fore
SplineSet
160 500 m 1
 555 500 l 1
 522 368 l 1
 251 368 l 1
 221 306 l 1
 221 306 266 321 314 321 c 0
 418 321 497 293 497 183 c 0
 497 66 408 -9 237 -9 c 0
 148 -9 5 24 5 24 c 1
 47 145 l 1
 47 145 179 113 253 113 c 0
 311 113 353 127 353 166 c 0
 353 192 332 205 273 205 c 0
 232 205 166 186 166 186 c 1
 66 209 l 1
 160 500 l 1
EndSplineSet
Substitution2: "'frac' Diagonal Fractions in Latin lookup 1 subtable" fivesuperior
EndChar
StartChar: four.dnom
Encoding: 65586 -1 436
Width: 280
Flags: MW
HStem: -65 95<133 136 133 241 133 252>
VStem: 1 287<-65 120>
LayerCount: 2
Back
Fore
SplineSet
128 -100 m 1
 136 -65 l 1
 1 -65 l 1
 23 23 l 1
 112 212 l 1
 230 212 l 1
 133 30 l 1
 160 30 l 1
 197 120 l 1
 288 120 l 1
 265 30 l 1
 276 30 l 1
 252 -65 l 1
 241 -65 l 1
 233 -100 l 1
 128 -100 l 1
EndSplineSet
Substitution2: "'frac' Diagonal Fractions in Latin lookup 1 subtable" foursuperior
EndChar
StartChar: four.numr
Encoding: 65574 -1 374
Width: 280
Flags: MW
HStem: 378 130<235 267 240 267 240 340> 413 95<240 243 240 348 240 359>
VStem: 108 287<413 598>
LayerCount: 2
Back
Fore
SplineSet
235 378 m 1xa0
 243 413 l 1
 108 413 l 1
 130 501 l 1
 219 690 l 1
 337 690 l 1
 240 508 l 1
 267 508 l 1
 304 598 l 1
 395 598 l 1
 372 508 l 1
 383 508 l 1
 359 413 l 1
 348 413 l 1x60
 340 378 l 1
 235 378 l 1xa0
EndSplineSet
Substitution2: "'frac' Diagonal Fractions in Latin lookup 1 subtable" foursuperior
EndChar
StartChar: four.pnum
Encoding: 65544 -1 198
Width: 468
Flags: MW
HStem: 0 205<262 262 262 314 215 400> 84 121<215 283 215 421 452 484> 480 20G<274 433 433 433>
VStem: 20 493<84 205>
LayerCount: 2
Back
Fore
SplineSet
262 0 m 1xb0
 283 84 l 1
 20 84 l 1x70
 47 187 l 1
 274 500 l 1
 433 500 l 1
 215 205 l 1
 314 205 l 1
 341 315 l 1
 479 315 l 1
 452 205 l 1
 513 205 l 1xb0
 484 84 l 1
 421 84 l 1x70
 400 0 l 1
 262 0 l 1xb0
EndSplineSet
Substitution2: "'frac' Diagonal Fractions in Latin lookup 1 subtable" foursuperior
EndChar
StartChar: grave.cap
Encoding: 65561 -1 290
Width: 513
Flags: MW
HStem: 754 196<349 510>
VStem: 283 288<831 859>
LayerCount: 2
Back
Fore
SplineSet
349 950 m 1
 571 859 l 1
 510 754 l 1
 283 831 l 1
 349 950 l 1
EndSplineSet
EndChar
StartChar: hungarumlaut.cap
Encoding: 65568 -1 297
Width: 689
Flags: MW
HStem: 740 239<424 616>
VStem: 312 425<780 933>
LayerCount: 2
Back
Fore
SplineSet
616 740 m 1
 517 780 l 1
 628 978 l 1
 737 933 l 1
 616 740 l 1
412 741 m 1
 312 780 l 1
 424 979 l 1
 533 934 l 1
 412 741 l 1
EndSplineSet
EndChar
StartChar: hyphen.cap
Encoding: 65592 -1 449
Width: 267
Flags: MW
HStem: 235 120<60 343 90 313>
VStem: 60 283<235 355>
LayerCount: 2
Back
Fore
SplineSet
60 235 m 1
 90 355 l 1
 343 355 l 1
 313 235 l 1
 60 235 l 1
EndSplineSet
EndChar
StartChar: macron.cap
Encoding: 65565 -1 294
Width: 462
Flags: MW
HStem: 806 109<249 601 274 576>
VStem: 249 352<806 915>
LayerCount: 2
Back
Fore
SplineSet
249 806 m 1
 274 915 l 1
 601 915 l 1
 576 806 l 1
 249 806 l 1
EndSplineSet
EndChar
StartChar: nine.dnom
Encoding: 65591 -1 441
Width: 280
Flags: MW
HStem: -111 95<95 127.5 95 155.5> 3 82<82 162> 130 93<164 175>
VStem: 35 112 181 107
LayerCount: 2
Back
Fore
SplineSet
0 -97 m 1
 28 -10 l 1
 28 -10 76 -16 114 -16 c 0xb8
 141 -16 150 -3 152 7 c 0
 153 8 133 3 116 3 c 0xf8
 48 3 23 38 40 107 c 0
 59 181 113 223 188 223 c 0
 281 223 305 165 278 58 c 0
 249 -57 206 -111 105 -111 c 0
 57 -111 0 -97 0 -97 c 1
158 85 m 0xf8
 166 85 178 91 178 91 c 1
 185 118 181 130 169 130 c 0
 159 130 151 121 147 107 c 0
 144 93 150 85 158 85 c 0xf8
EndSplineSet
Substitution2: "'frac' Diagonal Fractions in Latin lookup 1 subtable" ninesuperior
EndChar
StartChar: nine.numr
Encoding: 65579 -1 379
Width: 280
Flags: MW
HStem: 367 95<207 239.5 207 267.5> 481 82<194 274> 608 93<276 287>
VStem: 147 112 293 107
LayerCount: 2
Back
Fore
SplineSet
112 381 m 1
 140 468 l 1
 140 468 188 462 226 462 c 0xb8
 253 462 262 475 264 485 c 0
 265 486 245 481 228 481 c 0xf8
 160 481 135 516 152 585 c 0
 171 659 225 701 300 701 c 0
 393 701 417 643 390 536 c 0
 361 421 318 367 217 367 c 0
 169 367 112 381 112 381 c 1
270 563 m 0xf8
 278 563 290 569 290 569 c 1
 297 596 293 608 281 608 c 0
 271 608 263 599 259 585 c 0
 256 571 262 563 270 563 c 0xf8
EndSplineSet
Substitution2: "'frac' Diagonal Fractions in Latin lookup 1 subtable" ninesuperior
EndChar
StartChar: nine.pnum
Encoding: 65549 -1 203
Width: 459
Flags: MW
HStem: -10 121<179 262 179 304> 183 110<257 266> 402 109<274 347>
VStem: 76 135<317.5 350 317.5 354.5> 390 133<329 345.5>
LayerCount: 2
Back
Fore
SplineSet
24 19 m 1
 63 126 l 1
 63 126 139 111 219 111 c 0
 305 111 342 138 361 209 c 1
 329 196 289 183 243 183 c 0
 120 183 76 227 76 307 c 0
 76 402 156 511 340 511 c 0
 469 511 523 437 523 338 c 0
 523 141 401 -10 207 -10 c 0
 133 -10 24 19 24 19 c 1
283 293 m 0
 342 293 388 316 388 316 c 2
 389 320 390 326 390 332 c 0
 390 359 383 402 311 402 c 0
 237 402 211 370 211 330 c 0
 211 305 231 293 283 293 c 0
EndSplineSet
Substitution2: "'frac' Diagonal Fractions in Latin lookup 1 subtable" ninesuperior
EndChar
StartChar: one.dnom
Encoding: 65583 -1 433
Width: 280
Flags: MW
HStem: -100 312<180 199 93 276>
VStem: 56 220<137 212>
LayerCount: 2
Back
Fore
SplineSet
56 137 m 1
 180 212 l 1
 276 212 l 1
 199 -100 l 1
 93 -100 l 1
 141 95 l 1
 86 63 l 1
 56 137 l 1
EndSplineSet
Substitution2: "'frac' Diagonal Fractions in Latin lookup 1 subtable" onesuperior
EndChar
StartChar: one.numr
Encoding: 65571 -1 371
Width: 280
Flags: MW
HStem: 378 312<285 304 198 381>
VStem: 161 220<615 690>
LayerCount: 2
Back
Fore
SplineSet
161 615 m 1
 285 690 l 1
 381 690 l 1
 304 378 l 1
 198 378 l 1
 246 573 l 1
 191 541 l 1
 161 615 l 1
EndSplineSet
Substitution2: "'frac' Diagonal Fractions in Latin lookup 1 subtable" onesuperior
EndChar
StartChar: one.pnum
Encoding: 65541 -1 195
Width: 344
Flags: MW
HStem: 0 21G<178 326 178 178> 480 20G<312 450 450 450>
VStem: 80 370<372 500>
LayerCount: 2
Back
Fore
SplineSet
80 372 m 1
 312 500 l 1
 450 500 l 1
 326 0 l 1
 178 0 l 1
 261 334 l 1
 118 257 l 1
 80 372 l 1
EndSplineSet
Substitution2: "'frac' Diagonal Fractions in Latin lookup 1 subtable" onesuperior
EndChar
StartChar: parenleft.cap
Encoding: 65555 -1 284
Width: 234
Flags: MW
HStem: -93 871<87 419 87 419>
VStem: 58 141<92 305.5 92 320.5>
LayerCount: 2
Back
Fore
SplineSet
294 778 m 1
 419 778 l 1
 419 778 199 449 199 162 c 0
 199 22 215 -93 215 -93 c 1
 87 -93 l 1
 87 -93 58 4 58 162 c 0
 58 479 294 778 294 778 c 1
EndSplineSet
Position2: "'cpsp' Capital Spacing in Latin lookup 0 subtable" dx=5 dy=0 dh=10 dv=0
EndChar
StartChar: parenright.cap
Encoding: 65556 -1 285
Width: 236
Flags: MW
HStem: -88 871<-24 308 -24 308>
VStem: 196 141<384.5 598>
LayerCount: 2
Back
Fore
SplineSet
101 -88 m 1
 -24 -88 l 1
 -24 -88 196 241 196 528 c 0
 196 668 180 783 180 783 c 1
 308 783 l 1
 308 783 337 686 337 528 c 0
 337 211 101 -88 101 -88 c 1
EndSplineSet
Position2: "'cpsp' Capital Spacing in Latin lookup 0 subtable" dx=5 dy=0 dh=10 dv=0
EndChar
StartChar: periodcentered.cap
Encoding: 65553 -1 272
Width: 152
Flags: MW
HStem: 247 169<66 239 104 201>
VStem: 66 173<247 416>
LayerCount: 2
Back
Fore
SplineSet
66 247 m 1
 104 416 l 1
 239 416 l 1
 201 247 l 1
 66 247 l 1
EndSplineSet
Position2: "'cpsp' Capital Spacing in Latin lookup 0 subtable" dx=5 dy=0 dh=10 dv=0
EndChar
StartChar: questiondown.cap
Encoding: 65550 -1 267
Width: 378
Flags: MW
HStem: 8 120<236.5 263> 532 168<310 408 272 446>
VStem: 44 142<155.5 196.5 155.5 211.5>
LayerCount: 2
Back
Fore
SplineSet
44 164 m 0
 44 259 85 303 195 379 c 0
 231 404 252 430 257 452 c 2
 266 492 l 1
 392 492 l 1
 392 492 392 443 384 402 c 0
 378 368 346 332 290 292 c 0
 219 242 186 215 186 178 c 0
 186 133 214 128 259 128 c 0
 329 128 402 140 402 140 c 1
 388 35 l 1
 388 35 298 8 228 8 c 0
 115 8 44 52 44 164 c 0
446 700 m 1
 408 532 l 1
 272 532 l 1
 310 700 l 1
 446 700 l 1
EndSplineSet
EndChar
StartChar: ring.cap
Encoding: 65567 -1 296
Width: 338
Flags: MW
HStem: 600 86<300 326.5 300 331> 748 86<314.5 336>
VStem: 186 90 365 91
LayerCount: 2
Back
Fore
SplineSet
452 717 m 0
 433 639 370 600 292 600 c 0
 219 600 170 638 190 717 c 0
 210 798 274 834 350 834 c 0
 421 834 472 800 452 717 c 0
276 717 m 0
 272 698 287 686 313 686 c 0
 340 686 361 698 365 717 c 0
 371 742 344 748 328 748 c 0
 301 748 281 736 276 717 c 0
EndSplineSet
EndChar
StartChar: seven.dnom
Encoding: 65589 -1 439
Width: 280
Flags: MW
HStem: 107 105<49 302 75 148>
VStem: 6 296
LayerCount: 2
Back
Fore
SplineSet
49 107 m 1
 75 212 l 1
 302 212 l 1
 277 111 l 1
 127 -110 l 1
 6 -89 l 1
 145 94 l 1
 148 107 l 1
 49 107 l 1
EndSplineSet
Substitution2: "'frac' Diagonal Fractions in Latin lookup 1 subtable" sevensuperior
EndChar
StartChar: seven.numr
Encoding: 65577 -1 377
Width: 280
Flags: MW
HStem: 585 105<166 419 192 265>
VStem: 123 296
LayerCount: 2
Back
Fore
SplineSet
166 585 m 1
 192 690 l 1
 419 690 l 1
 394 589 l 1
 244 368 l 1
 123 389 l 1
 262 572 l 1
 265 585 l 1
 166 585 l 1
EndSplineSet
Substitution2: "'frac' Diagonal Fractions in Latin lookup 1 subtable" sevensuperior
EndChar
StartChar: seven.pnum
Encoding: 65547 -1 201
Width: 411
Flags: MW
HStem: 377 124<88 524 120 343>
VStem: 73 451
LayerCount: 2
Back
Fore
SplineSet
88 377 m 1
 120 501 l 1
 524 501 l 1
 483 334 l 1
 185 -25 l 1
 73 38 l 1
 334 344 l 1
 343 377 l 1
 88 377 l 1
EndSplineSet
Substitution2: "'frac' Diagonal Fractions in Latin lookup 1 subtable" sevensuperior
EndChar
StartChar: six.dnom
Encoding: 65588 -1 438
Width: 280
Flags: MW
HStem: -111 92<127.5 138 127.5 152.5> 23 86<138 220.5> 130 93<172 199>
VStem: 14 109 155 113
LayerCount: 2
Back
Fore
SplineSet
305 211 m 1
 278 124 l 1
 278 124 213 130 185 130 c 0xb8
 159 130 149 117 146 104 c 1
 160 107 175 109 185 109 c 0xf8
 256 109 280 73 263 4 c 0
 242 -76 190 -111 115 -111 c 0
 23 -111 -2 -53 23 44 c 0
 51 156 98 223 204 223 c 0
 240 223 305 211 305 211 c 1
144 23 m 0xf8
 132 23 123 15 123 15 c 1
 119 -4 122 -19 133 -19 c 0
 143 -19 152 -11 155 2 c 0
 159 16 154 23 144 23 c 0xf8
EndSplineSet
Substitution2: "'frac' Diagonal Fractions in Latin lookup 1 subtable" sixsuperior
EndChar
StartChar: six.numr
Encoding: 65576 -1 376
Width: 280
Flags: MW
HStem: 367 92<238.5 249 238.5 263.5> 501 86<249 331.5> 608 93<283 310> 689 21G<416 416>
VStem: 125 109 266 113
LayerCount: 2
Back
Fore
SplineSet
416 689 m 1x9c
 389 602 l 1
 389 602 324 608 296 608 c 0xac
 270 608 260 595 257 582 c 1
 271 585 286 587 296 587 c 0xec
 367 587 391 551 374 482 c 0
 353 402 301 367 226 367 c 0
 134 367 109 425 134 522 c 0
 162 634 209 701 315 701 c 0xac
 351 701 416 689 416 689 c 1x9c
255 501 m 0xec
 243 501 234 493 234 493 c 1
 230 474 233 459 244 459 c 0
 254 459 263 467 266 480 c 0
 270 494 265 501 255 501 c 0xec
EndSplineSet
Substitution2: "'frac' Diagonal Fractions in Latin lookup 1 subtable" sixsuperior
EndChar
StartChar: six.pnum
Encoding: 65546 -1 200
Width: 462
Flags: MW
HStem: -10 109<228 301 228 330> 208 110<309 318> 390 121<313 396>
VStem: 52 133<155.5 172 155.5 261.5> 364 135<151 183.5>
LayerCount: 2
Back
Fore
SplineSet
551 482 m 1
 512 375 l 1
 512 375 436 390 356 390 c 0
 270 390 233 363 214 292 c 1
 245 307 286 318 332 318 c 0
 455 318 499 274 499 194 c 0
 499 75 425 -10 235 -10 c 0
 106 -10 52 64 52 163 c 0
 52 360 174 511 368 511 c 0
 442 511 551 482 551 482 c 1
292 208 m 0
 233 208 187 185 187 185 c 2
 186 181 185 175 185 169 c 0
 185 142 192 99 264 99 c 0
 338 99 364 131 364 171 c 0
 364 196 344 208 292 208 c 0
EndSplineSet
Substitution2: "'frac' Diagonal Fractions in Latin lookup 1 subtable" sixsuperior
EndChar
StartChar: three.dnom
Encoding: 65585 -1 435
Width: 280
Flags: MW
HStem: -111 95<97.5 124.5 97.5 147.5> 14 85<79 124 58 143> 128 95<125.5 225>
VStem: 147 112 167 120
LayerCount: 2
Back
Fore
SplineSet
75 214 m 1x68
 75 214 145 223 185 223 c 0
 265 223 299 195 284 134 c 0x68
 276 100 259 75 238 64 c 1
 258 54 265 34 254 -9 c 0
 237 -78 184 -111 111 -111 c 0
 62 -111 -8 -103 -8 -103 c 1
 21 -10 l 1
 21 -10 81 -16 114 -16 c 0xd0
 135 -16 144 -12 147 0 c 0
 150 12 142 14 124 14 c 2
 58 14 l 1
 79 99 l 1x50
 143 99 l 2x48
 156 99 164 103 167 113 c 0
 170 125 160 128 144 128 c 0
 107 128 58 123 58 123 c 1
 75 214 l 1x68
EndSplineSet
Substitution2: "'frac' Diagonal Fractions in Latin lookup 1 subtable" threesuperior
EndChar
StartChar: three.numr
Encoding: 65573 -1 373
Width: 280
Flags: MW
HStem: 367 95<211.5 238.5 211.5 261.5> 492 85<193 238 172 257> 606 95<239.5 339>
VStem: 261 112 281 120
LayerCount: 2
Back
Fore
SplineSet
189 692 m 1xb0
 189 692 259 701 299 701 c 0
 379 701 413 673 398 612 c 0xa8
 390 578 373 553 352 542 c 1
 372 532 379 512 368 469 c 0
 351 400 298 367 225 367 c 0
 176 367 106 375 106 375 c 1
 135 468 l 1
 135 468 195 462 228 462 c 0xb0
 249 462 258 466 261 478 c 0
 264 490 256 492 238 492 c 2
 172 492 l 1
 193 577 l 1xf0
 257 577 l 2xe8
 270 577 278 581 281 591 c 0
 284 603 274 606 258 606 c 0xa8
 221 606 172 601 172 601 c 1
 189 692 l 1xb0
EndSplineSet
Substitution2: "'frac' Diagonal Fractions in Latin lookup 1 subtable" threesuperior
EndChar
StartChar: three.pnum
Encoding: 65543 -1 197
Width: 427
Flags: MW
HStem: -9 129<189 251 189 301> 190 120<149 247 119 277> 381 129<282 317>
VStem: 326 137<146 173> 361 144<353 363>
LayerCount: 2
Back
Fore
SplineSet
127 485 m 1xf0
 127 485 242 510 322 510 c 0
 473 510 505 449 505 401 c 0xe8
 505 305 442 270 397 260 c 1
 443 247 463 217 463 185 c 0
 463 93 397 -9 205 -9 c 0
 112 -9 2 14 2 14 c 1
 44 131 l 1
 44 131 156 120 222 120 c 0
 280 120 326 128 326 164 c 0
 326 182 300 190 247 190 c 2xf0
 119 190 l 1
 149 310 l 1
 277 310 l 2
 329 310 361 321 361 353 c 0
 361 373 345 381 289 381 c 0xe8
 213 381 111 369 111 369 c 1
 127 485 l 1xf0
EndSplineSet
Substitution2: "'frac' Diagonal Fractions in Latin lookup 1 subtable" threesuperior
EndChar
StartChar: tilde.cap
Encoding: 65563 -1 292
Width: 456
Flags: MW
HStem: 779 119<492.5 505> 822 118<334 348.5>
VStem: 242 352<842 876>
LayerCount: 2
Back
Fore
SplineSet
592 936 m 1xa0
 594 842 l 1
 594 842 530 779 480 779 c 0xa0
 430 779 367 822 330 822 c 0
 305 822 246 783 246 783 c 1
 242 876 l 1
 242 876 310 940 358 940 c 0x60
 418 940 480 898 505 898 c 0
 530 898 592 936 592 936 c 1xa0
EndSplineSet
EndChar
StartChar: two.dnom
Encoding: 65584 -1 434
Width: 280
Flags: MW
HStem: -100 95<161 232> 121 102<127 242.5>
VStem: 171 122
LayerCount: 2
Back
Fore
SplineSet
232 -100 m 1
 1 -100 l 1
 23 -10 l 1
 111 49 l 2
 152 76 167 91 171 106 c 0
 174 118 163 121 138 121 c 0
 116 121 60 115 60 115 c 1
 81 214 l 1
 81 214 156 223 201 223 c 0
 284 223 305 194 287 123 c 0
 276 78 254 52 206 23 c 2
 161 -5 l 1
 255 -5 l 1
 232 -100 l 1
EndSplineSet
Substitution2: "'frac' Diagonal Fractions in Latin lookup 1 subtable" twosuperior
EndChar
StartChar: two.numr
Encoding: 65572 -1 372
Width: 280
Flags: MW
HStem: 378 95<268 339> 599 102<234 349.5>
VStem: 278 122
LayerCount: 2
Back
Fore
SplineSet
339 378 m 1
 108 378 l 1
 130 468 l 1
 218 527 l 2
 259 554 274 569 278 584 c 0
 281 596 270 599 245 599 c 0
 223 599 167 593 167 593 c 1
 188 692 l 1
 188 692 263 701 308 701 c 0
 391 701 412 672 394 601 c 0
 383 556 361 530 313 501 c 2
 268 473 l 1
 362 473 l 1
 339 378 l 1
EndSplineSet
Substitution2: "'frac' Diagonal Fractions in Latin lookup 1 subtable" twosuperior
EndChar
StartChar: two.pnum
Encoding: 65542 -1 196
Width: 422
Flags: MW
HStem: 0 129<260 417> 378 131<275.5 282.5>
VStem: 3 486<0 417> 325 164<342 361>
LayerCount: 2
Back
Fore
SplineSet
417 0 m 1xe0
 3 0 l 1
 33 123 l 1
 139 194 l 2
 213 243 325 323 325 353 c 0
 325 369 310 378 255 378 c 0
 187 378 101 364 101 363 c 2
 123 483 l 1
 123 483 229 509 322 509 c 0
 447 509 489 447 489 387 c 0xd0
 489 297 439 252 360 198 c 2
 260 129 l 1
 449 129 l 1
 417 0 l 1xe0
EndSplineSet
Substitution2: "'frac' Diagonal Fractions in Latin lookup 1 subtable" twosuperior
EndChar
StartChar: zero.dnom
Encoding: 65582 -1 432
Width: 280
Flags: MW
HStem: -111 95<130.5 131.5> 128 95<178 180>
VStem: 13 112 185 109
LayerCount: 2
Back
Fore
SplineSet
196 223 m 0
 278 223 315 182 283 54 c 0
 265 -19 242 -65 208 -89 c 0
 182 -107 150 -111 113 -111 c 0
 28 -111 -7 -74 25 54 c 0
 43 127 68 174 102 199 c 0
 128 218 160 223 196 223 c 0
173 128 m 0
 160 128 152 120 135 54 c 0
 119 -11 124 -16 137 -16 c 0
 151 -16 157 -11 173 54 c 0
 190 120 187 128 173 128 c 0
EndSplineSet
Substitution2: "'frac' Diagonal Fractions in Latin lookup 1 subtable" zerosuperior
EndChar
StartChar: zero.numr
Encoding: 65570 -1 370
Width: 280
Flags: MW
HStem: 367 95<237.5 238.5> 606 95<285 287>
VStem: 120 112 292 109
LayerCount: 2
Back
Fore
SplineSet
303 701 m 0
 385 701 422 660 390 532 c 0
 372 459 349 413 315 389 c 0
 289 371 257 367 220 367 c 0
 135 367 100 404 132 532 c 0
 150 605 175 652 209 677 c 0
 235 696 267 701 303 701 c 0
280 606 m 0
 267 606 259 598 242 532 c 0
 226 467 231 462 244 462 c 0
 258 462 264 467 280 532 c 0
 297 598 294 606 280 606 c 0
EndSplineSet
Substitution2: "'frac' Diagonal Fractions in Latin lookup 1 subtable" zerosuperior
EndChar
StartChar: zero.pnum
Encoding: 65540 -1 194
Width: 504
Flags: MW
HStem: -8 126<249.5 278.5> 382 127<338.5 364.5>
VStem: 49 151<166.5 215.5> 415 153<294.5 329.5>
LayerCount: 2
Back
Fore
SplineSet
371 509 m 0
 501 509 568 456 568 328 c 0
 568 228 527 112 432 46 c 0
 383 12 318 -8 239 -8 c 0
 127 -8 49 44 49 156 c 0
 49 275 101 400 203 465 c 0
 249 494 306 509 371 509 c 0
342 382 m 0
 247 382 200 275 200 187 c 0
 200 146 227 118 272 118 c 0
 407 118 415 288 415 301 c 0
 415 358 387 382 342 382 c 0
EndSplineSet
Substitution2: "'frac' Diagonal Fractions in Latin lookup 1 subtable" zerosuperior
EndChar
StartChar: zero.slash
Encoding: 65580 -1 411
Width: 560
Flags: MW
HStem: -12 127<305.5 368.5 305.5 417.5> 545 127<342 405>
VStem: 87 149<223 300.5 223 356.5> 476 150<433 433>
LayerCount: 2
Back
Fore
SplineSet
411 672 m 0
 451 672 486 665 516 653 c 1
 611 799 l 1
 695 767 l 1
 585 600 l 1
 612 566 626 519 626 458 c 0
 626 228 537 -12 298 -12 c 0
 261 -12 227 -4 198 10 c 1
 111 -123 l 1
 30 -93 l 1
 132 64 l 1
 103 101 87 150 87 208 c 0
 87 505 237 672 411 672 c 0
397 545 m 0
 287 545 236 378 236 223 c 1
 439 535 l 1
 428 542 413 545 397 545 c 0
313 115 m 0
 424 115 475 297 476 433 c 1
 274 126 l 1
 285 119 298 115 313 115 c 0
EndSplineSet
EndChar
